<mxfile host="app.diagrams.net" modified="2020-07-05T07:29:30.830Z" agent="5.0 (Macintosh; Intel Mac OS X 10_13_6) AppleWebKit/537.36 (KHTML, like Gecko) Chrome/83.0.4103.116 Safari/537.36" etag="Qp_RqvLAtUTHE35YxqiA" version="13.3.5" type="github">
  <diagram id="kU1HfVH-x4pDuQzSTE3v" name="第1頁">
    <mxGraphModel dx="1050" dy="585" grid="1" gridSize="10" guides="1" tooltips="1" connect="1" arrows="1" fold="1" page="1" pageScale="1" pageWidth="827" pageHeight="1169" math="0" shadow="0">
      <root>
        <mxCell id="0" />
        <mxCell id="1" parent="0" />
        <mxCell id="RSmmQlb0bZlPWAiJbf1R-1" value="" style="rounded=1;whiteSpace=wrap;html=1;fillColor=#b1ddf0;strokeColor=#10739e;" vertex="1" parent="1">
          <mxGeometry y="10" width="830" height="590" as="geometry" />
        </mxCell>
        <mxCell id="LD7MNeFPw9spvS_a8iKk-1" value="奶油&lt;br&gt;cream" style="strokeWidth=2;html=1;shape=mxgraph.flowchart.database;whiteSpace=wrap;fillColor=#f9f7ed;strokeColor=#36393d;" parent="1" vertex="1">
          <mxGeometry x="90" y="40" width="260" height="90" as="geometry" />
        </mxCell>
        <mxCell id="LD7MNeFPw9spvS_a8iKk-2" value="&lt;br&gt;洋紅&lt;br&gt;Magenta" style="strokeWidth=2;html=1;shape=mxgraph.flowchart.database;whiteSpace=wrap;fillColor=#EA0081;" parent="1" vertex="1">
          <mxGeometry x="600" y="125.72" width="60" height="60" as="geometry" />
        </mxCell>
        <mxCell id="LD7MNeFPw9spvS_a8iKk-3" value="&lt;br&gt;黃&lt;br&gt;Yellow" style="strokeWidth=2;html=1;shape=mxgraph.flowchart.database;whiteSpace=wrap;fillColor=#FFF104;" parent="1" vertex="1">
          <mxGeometry x="600" y="45.72" width="60" height="60" as="geometry" />
        </mxCell>
        <mxCell id="LD7MNeFPw9spvS_a8iKk-4" value="&lt;br&gt;青&lt;br&gt;Cyan" style="strokeWidth=2;html=1;shape=mxgraph.flowchart.database;whiteSpace=wrap;fillColor=#00A4ED;" parent="1" vertex="1">
          <mxGeometry x="600" y="205.72" width="60" height="60" as="geometry" />
        </mxCell>
        <mxCell id="LD7MNeFPw9spvS_a8iKk-5" value="" style="shape=image;verticalLabelPosition=bottom;labelBackgroundColor=#ffffff;verticalAlign=top;aspect=fixed;imageAspect=0;image=data:image/jpeg,/9j/4AAQSkZJRgABAQAAAQABAAD/2wCEAAMCAggICAgICAgICAgICAgICAgICAgICAgICAgICAgICAgICAgICAgICAgICAoICAgICQkJCAgLDQoIDQgICQgBAwQEBgUGBwUGBwgHBwcICAgICAgICAgICAgICAgICAgICAgICAgICAgICAgICAgICAgICAgICAgICAgICAgICP/AABEIAfwCAAMBEQACEQEDEQH/xAAdAAACAgMBAQEAAAAAAAAAAAACAwQGAAEFBwgJ/8QAVhAAAgEDAgIFCAYGBgcFBwQDAQIDAAQRBSESMQYTQVFhBwgicYGRofAUMkKxwdEjM1JicuEVJIKSovEJNENTc7LCRHSD0uIlVGNkk6OzVYSU8hZ1lf/EABsBAQEBAQEBAQEAAAAAAAAAAAABAgMGBwUE/8QAKxEBAQEAAQMDAwMEAwEAAAAAAAERAgMhMQQSUQZBYQVxwVKBkaEiQqIT/9oADAMBAAIRAxEAPwD6wRKMJCR0D0SjUPRKKaq0DUSgcq0DVSgYqUDVSgYqUDAtAQFAQSgMLQGFoCC0BBaAgtAQWgLhoNgUBBaDYWg3w0G8UGcNBvFBmKDfDQbx4UGsUG8UGY8KDXDQaxQZw0GuGgzFBrhoNcNBorQBw0GuGgErQaK0AlaACtAJWgErQAVoANALLQKZKBbJQLZKBbJQKdKBDLQLZaBLpRKS6UZR5EoI7x0EqNKCQiUah6JRTQtA1EoHKlA1VoGqtAxVoGqlAYFAQWgMLQGooDC0BhaAuGg2BQEFoCC0BBaAgtBvhoN8NBsLQZig3w0GYoN4oMxQZig3w0GcNBrFBmKDKDWKDOGg1w0GFaAcUGcNAJWg0VoBK0AlaASKAStABWgErQARQAVoAIoBK0AMlApkoFstAploEslAp1olKK0CXSgjvHRlHkjoJSJRrEhEopqrQORKBqrQOVaBqrQNVKBipQEBQGq0DAtAQWgNVoDC0BcNAQWgMLQEFoN4oCC0G8UGwKDYFBvFBnDQbxQbFBmKDMUGwtBnBQZwUGitBmKDKDDQaxQa4aDWKDMUGiKDRWgHhoNcNAJWgErQCVoBIoAK0AMtAJWgAigWUoBIoFslAtkoFMtAploFMtEwlloeCmWhpLpQxHkSjKTGlGzlWgciUDVWgcq0DUWgaq0DVWgICgNVoGBaAwtAYWgICgNVoDC0G8UBgUGwKAgtBug2BQbxQbxQb4aDOGg3igygygygygygygygygygyg1igzhoMK0A4oMIoNEUA4oNEUGiKASKAStAJWgBloBIoAK0AFaBZFADLQARQAy0C2WgUyUCWWgUy0SkslEwplo0RIlGT0WjRyLQOVaBypQNVaBqrQNVaAgKBirQMAoDVaAwtAYWgILQGBQEBQEBQFw0GwKDfDQbxQFw0G8UGUGUGUGUGUGYoN8NBnDQZw0GcNBnDQZw0GsUGUGUGUGUGUGiKDXDQaoNcNAJFBrFAJFAJFALLQCVoAK0AstAsrQARQLZKADQAy0CmWgU60CWWgUyUCHSgUyUZORKNHKtA5VoHKlA1EoGqtAQFA1VoDVaA1SgYBQGFoDAoCAoCAoCC0BUGwKAsUG8UG6DKDKDKDfDQb4aDAKDdBlBmKDMUGYoMxQZigygygyg1igzhoNYoNUGUGUGUGiKASKDRFANAJFBoigEigBloAIoAIoAZaBbCgWy0AYoAZaBTLQJZaBTrQJdKBDrQPRaByrQORaByrQNUUBgUDFWgMCgYq0DAKAgtAYWgMCgICgLFAQWg2BQbC0BUGUGZoN4oN4oN0GCg2FoM4aDeKDBQZQZmgzioMzQZmgygwigzhoNcNBrFBlBqgwigHFBlBlBlAJFBoigEig1igHFAJFAsrQAVoBIoFMtADLQLZaADQAy0CWWgUy0CXWgS60SnqtFNVaByrQNVaAwKBgFAwCgYq0BgUDFFAYFAQFAYFAQFAQFBsCgKgygyg2BQbAoN0GwtBvFBlA6GzZuSkjvxt7ztVVUulflW0mwJF7qlhbOOcTXMbzf/RjLSfCojzHV/PZ0CPIg/pG/I5G3sZIYyc8hJedQD38QBUjkd6uClap5+jZxbaA7KRs95qaQsD4xW9vcgj/xRVwV2+8+DWWH6Kw0iD/ifSrn3jjhB+FPamuJP54fSVt+u0mI/wDw9Mc//lvXPjV9qagjzruk3/6jbf8A/Ltvzp7TRx+dl0mHO/s38H0uAj1+hIhyPXjwNPaa6Vr55vSJfrf0NKO3i0+eNj/aS+IH93n7qe0137Tz6dSXHW6Rp0/f1V3c2xPqLRXAHqIO9T2rq0aN5+FqcfS9Fv7cnmbW5tr1AO/0/o0pPh1WfVUw1etB877o5OQrX8lm5+xf2dzbgf8AjlGtz6hLmplV6p0e1u3vE6yzurW8T9u1uIpx6j1bEg+B3HhQTpIiNiCD4gj76AKDXDQZw0GqDWKDRFBqgyg1ig0RQCVoBIoBIoBIoAZaACtAsigBloFsKBbLQARQLZaBTrQJZaBLLRKci0U5VoHItAYFAxVoDVaBqrQGBQGq0DAKAwKAgKAsUBAUBAUG6DKDYFBsCg2BQbC0G6BsNuzZIGw3J5KB3ljsMeNB5N0886TQtPZomvDfXK5/qumobpgw+zJOuLaE52xJKp3OxwcWQeFdK/Pf1ObK6fYWmnIdhNdMb+6x+0I16q3ift4S06j96r7U1450r6e6nqBJv9Uv7kHnD9Ie3tfV9FtjFCcdhdHIHbzzfamq3Y6PFF+rijT+FFB9pAyT4netIl5orKqMoMqDKDKDKDKDKDDV1UJdGiD9Yi9XL2SwloZR6pYij/4qiPR+iPnA6/YALBqstxGvKDU1/pBCM5wZZGW6A7NrjIHLbAqWNa9o6IefYmy6rpbxcgbrTZPpEfiXtJQkyDtxG85PsGc2K996BeVHTNVXOm38F0QMtCGMV0g/+JazBJ1x+8lZFoeMjYgg+O1ANBrhoNUGiKAcUGUGUAkUGiKATQCRQARQARQLIoAIoFsKBbLQLYUAYoFutAlloEutGdPRaNGqtAygYooGKtAxVoGYoDUUDAKAwKAgKAgKAxQbAoN0GUGwKAqDYWg3QDdzJHG80skcMMYLSTTOscSKOZZ3IUAUHzp5QvPesoeKLR7dtUlBK/S5uK205DyJQsomuwG5dUqxuNxLjBNkHzT5QPKfqmrE/wBJX0skRz/Urcta2AB+ybeNszDGwNw8pAJ5cTZ1iarNtaqg4UVUUclVQo9wArSGURlBhNBlBlBlBlBfvIp5Jm1q9NmtwtsRA83WNGZRhGjXh4Q8e54+fF2U/KvPoZMgHvAPvGaqDqDKDKDM0GUGUGZoqNcacjMrkYkQ5SVCUljP7UcqcMiHxVhUw1695PfOq1vTgscki6vart1OoM30tR/8LUAC5P8A3lJyf2lySWGvqDyWecvpGrMsMcrWV8wH9QvgInYnst5/1FyMggCOQvjBZF4lzzaepzQlThhg9x+eVABFAJFBlAJFBqgyg0RQCRQCRQCwoAIoAZaBbCgAigWy0C2FAthQLIoFutAl1oyai0aNAoGKtAxRQMUUDQKA1WgYooDWgICgMCg3igPFBlBgFAQoN0BAUDIICxwoyfnc9woPB/K3531hp7PbWCrqt+hKvwNw2Fs2D+vuQCJnU84bfjbOQzRmrIPkXp/05v8AV5RLql01zwkNHbKDFYQEcjDaBinEP97KZJTtltsVuRNcgVWWUGUGUGUHuHmlaTaXV9c2V1BDKbqxnWBpY0dopVG7QlweCQxs54lwfQ57VKrx+26OztP9FSN5LgSND1UalnaRCwZVUbndTVRJ6JdEZ726is4FUzzMyIrsI14lRnYMzbDZG58zgczQSvJ50Hk1G+gsI2SKWcyKrSZ4VaOGSUhuEE5PVlBt9YjOBkgD8l/Qk6neQ2iyiEzJO4cp1mOpt5Z+HgDoSX6vh+sMZzg4wZo9V8yXUo49YZ5HWNTZSrxOwUcUk1sqLk4GWYhQO0nFc+p1OPHjOXK5Nyb8uvT4c+pc4cbyud5O+Tj315N5LOgp1CQwdaIers57kuYzJtbQmQpw8ce744c8Xo88Nyrpe35c610F6FvfvMiOkfUWlxeOz8XD1duoZl9EE5bIAJGM86qI3RjonNeGcQBT9GtZrybiYIFgtwplbJ5kcQwvM5oIWnaRLN1nVRvJ1UTzy8Clurhj4eOV8fVjTiXiY7DIoPXvNJ6HQ3erFrmOOW1tLS4uJllRZIjssSqyMCp/WM4BBH6M+FZqx5FrV6ss00iIsaSSySJGgCpGjuWVEUbKqKQqgcgK0IdEZQZQZQIvbFJFKyIrqexhkesdx8RvnfsFMHq3ks85vVtJCwux1WwXb6LeSE3MS91petlhwjlFcCRMYVTHzGbF19ieSvyyabrUbNYTEzRgGexnXqry3z+1Ef1iZOOuhMkROwckEDDS5Gg1w0GqDRFANBlBmKACKASKASKACKBbCgArQAy0CmWgWy0C2WgBhQJdaBqCgMCgaooGKKBqrQGFoGKKAwKAwKAgKAxQEBQZQYBQFQbAoCFBwunvT2y0q2N5qNwLeDPCgxxTTyYyIreJQXlkbsAUgD0iQoYgPifywectqGshoIw+maWdhaxuRd3K7jN9cRt9Vgd7aFuDsZ5dsbkSvK7a2VFCooRVGAqgAAdwA2rSGURJ07TZJpFihjeWRzwpHGrO7E9iqoJPupQmeEqzIwKsrMrKQQysp4WUg7gqQQQeRFAGaBy2h4wjegSVBLgqFD4wx2zw4IbIB233oLJ0h6G/0dqX0O+wyQTwicwsQJIG4HZ4nK5AeJ8qxXIJG22KC9aZaDQulMSgkQwX6iNiST9CuxwRsWO5xbTjiP2sN31n7Kn+VG3/AKJ6WNMNkGoW99/4dxIss3sy0ygdgGOw1Z4HLlh/o3pZw/VWHWVx4Qzzgqf/AKMwJx+VPsG9Cbf6J0tij5CLWZofUrzSRD2FXx6qfYjXkFtBB0ptYjyjvb6D2dRdw9nfnAPZnO2DhWnmPRW+aESEHDiIY/ijkjkHLsyma8t9RdX2em48Z2t6nGz+12ve/RfQnU9d1OVks49DnL+9447Hmu9Ic3OqH/daJqh590Srz7Ofxr0nC+6S/MjwvU4ezly43zLZ/tYPImOCDXp+xNBuYM9z3U1vEuD34DD29ldfhgzyTr1Wm9IrrkRYQ2Sn/vtygkX2rF2fhTUovJr+g0fX7rk0kVnpsZ5E/SZuOZQf+HGCw7qVF18jH9S6Na/qJ9F7kLp8Ddo416tiuO3NzkdxjBqfceYdHeh0B0jUNQnD8Uc9rZ2PCxVTO/FLPxDB4gluM4ONyMEVpHHsuhMr2FxqHEiQQTwWwDcXHNNMGYrFhSpMSLxvxMo4SCMnag4PUnHFwnhzw8WDw8WM8PFyzjfGc4oAoJum6LNMJDDFJKIU6yUxoz9XHkLxvwg8KgnBY7D2GmiFVGVAtYyskc8byQXELcUNzA5jnhblmORcMuQSCOTAkEEEimLH1F5HvPP3S16QcKHZYtYiThiY7BV1CFc9U57bmICHfLLCAS3OxX1SU2VgVZHUMjqwZHUjIZGXIZSNwR2VnFCRVAmg0RQDQZQYRQAaAcUAEUAEUAFaBZFADCgURQLYUCyKBbigMUDFWgaBQMRaBgFAxRQMAoCAoDAoCxQGBQZQbAoN0GwKAxQeVeXbzirXQ1EAQXmqyJxQ2KthYlOeG4vXH6mHPJB+ll5KuOJkuD4c6U9JLvULpr7UZzdXbAqGI4YoEOD1NrFkiCEYGwJdyOJ2diTW5Gag1UZQZQd/oF01l068t72A+nbyB+HOBInKSJv3ZYyyHu4s8wKYPVvOt6Fxi4g1e0GbLV4xOpA2S44FMin9kygiTB34xN+zgZnw1ii9OuhEMdjpl/aGRoLuForjjYM0N/btwzplVXhSRSJIlxngDHJ51pK73lkP06y0zWB6Uk0R06/P/wA5ZKFjkb964t8P3YTGBQD5WP65p2j6p9Z2hbS7xu36RY/qHc9rzW7hid8hBnGAKLgPK+30mw0TUlJLvZnT7hu36RprhEdj+3JE6tk/WC5AGKmfYxcfOxP0u30LV153unLFKR2SxBZeEnvV5pRnt4D3b5nwYp3nDXhe8sb9f+3aXp17kdkwQxSLn9pHgGfEitT4Suj5X9RSHpOLtWURvdadfZBHCFdLaSTJztuHJ7s1YE6f0ntrfpYbszx/RF1aaXr1YNH1MkknphlyGXhfcjPKi68zlZesuShBTim4GHIrxNwkDuK4x4V4T6n5/wDHocPnnd/bOz6v9A9L/n6vqfHGcZ/fy4HkB6UQ20+siVwhm0m+tYQc+nNO0IVFAzuyByM4Axnsr1no+Xu6PTvzxmvnf6pw/wDn6v1HD+nnc/bXp/QLWoYdH1xWlRZrlNOhijLKJJFFy0khRSeJggA4iNgMb8q/tr8y3ukadcdV0auiGHFeazbwlcjiMNrayT8WOeOtdRvtkUiafrmIOjNgnJtQ1S7vOXNLOIWYwf2Q7tt358a0Ln5XR9B6L6Dp/KS7eTUJR2kHikUNjsX6VGo7xGO6p91xT/KmfomlaJp3J2hm1W5He94+LYHu6u2THjxZ25UlMF5W/wCp6dpGlZw6wNqd4O03F7vCjjsMNuAuOeG9VJ3QXlSb6Bpml6SDiR0Oq347evuQBaxN3GC3B4lbJy6nbtDgeUHoTDY2umBi/wBPuoHvLlCw6uK3lI+hpw8PEJGjDu5LDGcEbrgPW1z0e6M5zwanr+MHcPDZBc+BUiGTvBWW5HPqzUnerj5qArSMojKDTLkYIyD2UV6H5FPL9e6CeqVWvdKY5l08t+kgySWl052IETdpt2PUyHOOrZi5mGvuzoZ0ztNStY72wnW4tZMgMAVeOQfWimjYBopUOzIyg8jyZSebTr0A4oNEUA0GUGiKASKADQCRQARQLIoAIoFEUC2FAp1oFsKA0FA1RQMUUDQKBgFAaigYBQGBQEBQEBQboMAoCoNgUDFUnYbk7AUHgPnF+dCNNZ9O0sxy6rgC4uGAkg0wMM4I+rNeFTlITlE2ZwRhHsmj4yjhPE8ju8s0rmSaaVi8s0jfWkkc7sx8eQ2HKukZMqoyoMoOxo/RG4uIbqeGPjis41luCGXKRu3CG4CeNlByWKghFBJI2yFw6BdErfUNPvoI48apa/16BgzE3dpGuLi2CE8PWRfrYwi8UhON8Gpar0fyCXi6xpN90dmZetRGvdLZvsyqS7JnsAlYEgbmOab9mpe11Ypvkhga6h1LQJgVluA1xZI+AYtTseLMXcpuI1eF/wCDAwTu/JSfIsfplvqeivnju4fpVmrbFdQsQ0gQZ+q08QeJiexAMjO91I4/QbpRAdL1bT7qQRdYsF5ZFgxxeW0nC8Q4VYhriFurOcAcJOVxmquuLbdPgNKm0x4uLivYr2CXix1LiIxTDhweLrU4RkEYweeQAUnVfKddzWFvpsjIbW1kaWFeAdYHbrOcnMqBI4CjAAxzwKkncV671eRxGryO6xLwRKzFhGmS3CgJIReIk4XbJqpUQSUTGuuosjoWEvoP/C3/AC184+peW+o6XT+OM5f+rP4fbfoPhno/UdX+rqcuP+OPGvJ9Om4b1v3uE+9APvFes/SOXu9Nx/Hb/D5t9RdP2ev6t/qkv9+T0hJuXqr9ueI81jYl7aGJdzqsjokbyO0cQcRIzMVjEjcTiNScIHb0mCgZbc70XFk6c+U651JrZrxlcW0KW8axqIh1KtnGF2DEbcQHYNtsUV3tY6ZW+q63Hc3XDaWUtxao6sS6wWkCxRmPKJneOMqCExxvkgDOJia7mjyLrvSOW4lPDadfLeTk/VTTrEAhWzsB1EccJ5AF/VSdkJ6NL/T2vS3NyeG16yW/uyR6MVhajj4D3ARLHb+ts7Uo7Pk80V+k3SGSedcW3Wm6uAdljtIWCwW57uJVjhPLK9Ywxw7S9gnyha1L0m6QCG3bEBk+jWx5JFZw8RluCOQDKHn7yCq9gxfEaUjphp9vdam1vpEDdS0qWtqoZnacriLryWO30hwZfsqqsMhMNTWVZ1nSZLeaWCUBZYZHikAZXAeNijgMhZWwwIypIqoh0GUGUHc8n3lCvdHuvpmnuodsC5tZCfot7GPsTKM8MgBPVzqOOMn7SllMsa19+eSryrWWtWv0uyLKUIS6tJcfSLOU7mOVVJBU7tHKpKSLuDsQMWYq24qASKDRFANBlAJFAJFAJFADCgBhQLYUC2FAphQLYUCiKBiigYtA1RQMUUDVFAaigJRQGtASigKgzFAQoCAoCVSdhuT2UHzr5zfnLtYtJpOlSD+kSgF5erhl02Nwf0UR3DX7rvgjEKMGOSVFWQfHllZLGvCueZYkkszuxyzux3Z2O7MSSTXRnT6Is3RXybXt9FdT2sDSx2cfWTspGVU/ZVc8Tvwhn4VB9FG7cAlVy2gZ2VUBZmIVVUFmZmOFVQNySTgAczQWfoXZ2sV+sOrRTJAGeC4ALRS2zsDGJWGM/wBXfDshG4B2bHCQsNu9z0b1ciQLMiApKowYr/T7gDPDn0WSaLcdiSrg54DQH0y05tD1O2vtPcvayFL/AE2Uk4kt2I44HxvlOJreVfrcJBOC4ADo9OrkaXqNjrmmDFpeH6bbL2RyBsX1g+NhwOzxlRySQAfVzWfLUN84HpLZrq1tq2lXEbPcLBfPGhy1tdoVYiXGytJhS8eS3GJc4DrmyJXmHSfpq099PfQr9DeaZ5wsDuvVPJkuY3yHBZizEjh3YgYG1XEVx7jOSTkk5JJySTz3oFGejRZnpoBp6aA+kUGvpNDXStJ/0beKv9x/Kvlv67y93rL+Mk/bz/L739JcJw/TONn/AH5c+X8fw8ovJMXcbftRj3gsPuxXr/0TlvRvH45V83+qeGeqnP7XhO/5j0OC52HqH3V6OeHi5exgnoo1uKA1noGLPRlMs9WePj4HdOsRo34GZeONvrI/CRxI3arZB7QaCx9HvKBJbWV9aRooN/1CSz5PWLDCzO0KjdeCViOM7HC43yCso9W0fpxaaX0ZkitbiOTUtYlaO6EZ/SW1tHlTG42Zf0blVOMM1xIylgmaZ3acizb+h9GL/V1DXY+CP9q20kMON+9Wv29EZyDEvFkFTkG9Bv8A2Npras2Bf3yyW2kKecMWOC61DHMYUmGFtssxOCr5pWXF6AdCLf6HdarqIdrSLit7WFXKSX1/Kp4VV/rdXb5M0rjuH1sSIaKFa6TK8ckqxu8cHB10ioSkXWNwRmRgCE429FeIjJ2pomdE+is99cxWlrGZJ5m4UQbcslmYnZURQWZjsADQI1/QZrWeW3nQxzQuY5EJBKsOzIJBHIgg4III50RAoOj0R6W3em3ceoWEgjuowUYOCYbmEkF7a5UYLxPgEEENGyqykEVLB+gfkj8rVrrdn9LtQ0bxsI7yzkIM1nPjJR8fWjcenHKPRdCD6JDKvO9mlxNFCaDRFANBlAJFABoBagAigWwoFkUAOKBLCgWy0BqKBqLQNAoGKtAwCgNRQGBQFQFQZQEtBsCgOg8O85/zgzpMY0+xcf0vcx8ZfAYabbPkfSHBOPpEmGEEZHMF2HCoElk1HxJZ2gQYBJJZmdmJZ3djxPI7H0md2JZmbck10hp1GWUFy8k/lTuNHvEu7c5GOCeEnCTwkgtG3cdso+MowB3BZWZrUemeXbyYQSQp0g0Uk2FwwaeOP0XsbjPpEqv6tes2YA/opCpUlHUrmX7FcjpCg1+ya+jAOsWEQOoxKAGv7OMBUv41G7TQAIkygDI32/RK2kiP0QnGt6eNLcg6lYRyS6TIcZuYBl5tOZjzcAdZb55cPDlFU5NK5oPTiBtLu9Lv+NepL3WmSBCWgvM4ltmHNYbrJLZGEcMxBPCKMKW/TG4+iCxMmbUTm5WIqp4ZinVllYqXXK81DBSdyCd6z92o4bT1pSWnoEtcUCjcZ27TyHf4DxoLJ0f8m2oXR/QWsrDvKkAbZ8Ty35Gp2Hpeg+aPqMuOtkhgzzBYuRt3KCf8NTYj0PRvMaXYy3Mrd4ROFf7JfqyR7qWmLVZeZTpqj9Kbhz4SqnwBc1NInDzRtKAxwzYxj9cM4PPfq6/L6n6d0OtzvU5cOGvQen/XPWdDpcfT9PqXjx47/twr7zKdAZlZ4rjK5xwz4xnxCA+zev6+j0OHRmcJJvw/M9V6zq+qsvVu59/lCu/M+0s7Rz3EYAwM+n8eIf8AKa/p1/Fiqar5mv8A7vqEZO/ozZU+oYU5/tEVdMUTpD5rmr2+SsSzqO2Jsnv+qAdsdpIHvq7FeaatoVxbkrPDJERz4lOB6yMge/3VRBS6oHLcUDknoGrNQXO36Ui/v7eXVrh+pJginlSNeJLeFQoSOOJVVcqOEcK4BYvgnOTC3yNN0k1bCYtrSJOFM7Q6dpVqDgtzUFI8duGmfGQCcG2umGsvrV9aadpkTC0gH0TTbc7foxvJdTHsebhM00h5KozkqSZ47iZ5Rtejjji6P6VmaGOVfpU0Yy2p6jkKSuMloImASFBsSOLDcKtU/I9LuJouh+nmNCknSHUIgXYYdbGBuQHeAVPDsetmBY8SRKKnlK+XZ52dmd2LOxLOzElmZjlmYnckk5JO5NdIyCoMoOv0I6c3elXkeo2JHXoOCaBziG9tyctbTbHGSAY5QC0UmCMgsGlmj9DvJ75QLXVrKLULJiYZSVeN8CW2nTaS2mUE8MkZ7MkMpVlLKysebawUA4oBIoNUGEUAEUAkUAEUAEUCmWgBhQKIoFMKA1FA5RQMUUDQKAgKAwKAwKA8UGUG1FBugPFB595dfLPHoVj9I4RNe3DGHTrUnHWzYy00naLe3U9ZI38Kjd1oPz6knlkklnuJWnuriRprmd/rSytzO2yqBhERQFRFVQABgdJGG6oygnaLoU9zIIreKSeUqzCOJC7lUUsxCqCcKoJNNFz8lt5p0yzafqCJCLpla21MD9JZ3CjhQS5YBrNwSJF+yx4j9VXiNRZ/J306uujGoTWWoRdZZzfo722wJIpYnGFurfOBKDHkDkssZKMAwXq82Kb5UehEvR+8ttX0mXrNPncS2U6kyInGMtaTMfrxuvEq8Ry8YIOHjJpB5/5ROkVmL2G/0pntzIEumgClTY3YbLxxMdnj41EqY9EK4Xl6I0KNq2syTSSTSuXlldpJHOMu7kszHAAyScnAA8KDnSXFBHkuKlD9I0ma5cRwRvKxOMIM49Z5D2moPcegHmk3Nwym5crnB6mFS8m+/pHA4dufEUI9hq6y+negvmrWVoA3VRoVGS0n6WQDt4h9Re/0y2B27VjWllk6ZaNbHqVlN5Ku3U2qtdOCOzgtgYU37GdfUtUTIel2oyj+p6M8Knk1/NFaH1mGETyezjyfCgXLp2tP+tvdNtv3YLeWcj1tcyAE/wBjHhQQ5Oht2T+k1u8b92C0soO7ky27N72NQQpugR7dS1dj39eoHsAtwAPCg5V50JI+rqGqA97TRSDw9F7Yj177inYcubQLlfq6nO3hLZ2jD2mNYmPt3p2HIukvl5TWU47mWe2kPtHXwj2YoOeekN5Fv9HuF/ftXS5iH8XVniB8DFnvpgUvlSSf0Jkt7sDIKSqI5h37YDKf7A/GgqGveSnQ77JjL6dOeXGf0RJ/eyV7t3J9VXR5N0883PUbIGRFFzBjIki9LbsPL47eANWUeYGQqSrAqwOCGBBB8Qdx7aobHcVRJjnoOzpXSm4hiuIYpXjiulRLhFwBKkbcaKxxxYDZOFIDZIOQSKC/9Huntvp+mSLZsx1S/wCOK6n4Cv0KzUgdRbsfrSXWMvKoyE2HAwDAPWPJ7oEHRiwXWNQjD6rcqy6ZZPsYVZd5ZBsVbhbMhxmNCIxh5WrNHnvRLo0dRe51rWZ3WwjlJuJc8M15cYytlaLsOIjAPDhYY+1cZWJVS1RJNTvZ3srHq+PjlW0tUZ1hhiQZIAGThVy7YAZ2OFBZVrU7MqwDVGUGUFy8jPlfl0G++lKHksbjhj1O0XfjiGy3cK8/pNsMkAY62Muh3EbLLFj9D7O9iljjngkWaCeNZYJkOUkicAq6nxBBPdXOxoZFBqgA0GUGiKAGoBIoAagWwoFsKBTigUwoGIKBoFAxRQMAoDUUBqKAloCoMxQFQGBQQ9c16C0t57u7kENrbRtLPIx2VF7B3u5wiKN2YgDJIFB+cflD8o1xrN9LqVypTjHV2lsTtZ2SkmKHA261s9ZM4+tISM8KIB0kZ1wqqMoNMaC/650MvNKFpqVrcLLBJwPb6haElI58enBIGXMcqNxIYpVxIoIIOXRY1izavo8PSGKS7sYo4NYiUyX2nx7JeoPrXliu+ZRt11uOZPECTjrSub0S6WW+p2yaRqkqwyQ5XS9RlwPozb/1O7Y4JtHPJmJMLYHILw0UuPyq30NhPpAmRrOSXiZcLIFKsSwgkOeGORwshK8yMqV4n4pgosk9URZJ6BMXE7BUUszHCqoySfADnTR7l5K/Ndnuij3QZVbBWBN5GH7xGAo/e4gu4OW5Vmj7C6J+R2w0q3625aC2hQDI4gg/heY4Zmbb9HFgsduFyRmDs2fTS6uR1ej2ISE/9tvVa3gIPNoYFAuLgfvP1K5xkEb1MEkeRtZ/S1S7uNSIOepz9Gsk3yALeAxoQp5NIzM2ATnfLRdtJ0SKBeC3higT9mGNV7Mc8KDttyaoHTWw+0c/xEn4eiPctXRFeFe7b+HA+ABqCJOo7j8fxoOZcy45KfdQcO+nP7J9x/I0Fev2znIP938/yoKvqW/cfn2Y9tBWNRgI3GQfA/5fjQV/WL8vtOiTr3TJxt4YlHDOMdhVwPWNquivXemwsD1czwH9iUtPb5/4gHXxDGwBDqDzOCcQKsuld9pxDBisTHYgiezlHbhh6IJ5HHVsDkZ2qwS9TttI1gBbiNbC7OyzIf0DseXpbdXk/ZccOTuZKs7DxbykeRW801ssplhP1ZkBIx3nHhvnu3IXNXRRIrirolxz1R09H1h4ZI5oyFkidJEJVWAdGDKSrAqwDAHDAg8iCNqD0+z6QnXdRkvNYvUgghi6ybBCv1EbYW2sYt+KR3fAUZPpvISTkGUSNW1m76Q3lvZWMAhtoE6uytFbEFpbp9aed9xxEelNcPxFmwoz6AZPkTumHTq1sLd9K0eQusmBqOpj0XvXXYwW5GTHZKdxwkGXfJYFmlYmK10r8mE1ja28908cM9yeJLBuL6WlvwkrcSpjESsw4Aj4cns2YLWVOoMoMFFe/wDmeeWb6HONDu3xZ3cjNpkjH0bW8clnsyTyiu2LPFnlOzLg9anDiq+yGUgkHYjbFZUBFAJFANBlAJFAFALCgWaBbCgW1AphQGooGAUDFFAwCgOgMUB0GUBKKDYoDVSSANyeyg+M/PH8rYvLsaLbPmzsHWTUGUgrc6gN0tjjnHZei7jO85ClcwVqRHgtdGWfPz8moPX/ACg+bfcWtpHqFlNHqli0atJPagsYX4R1nFGOJjErZ/SbMm4kSPB4s6qseTjQtNvEktbmdrK8kZWs7uRs2Wy4+j3K4zEJG3FxxEL6IwMYk1VxO0jpDf6Bcz2V7b9ZbzDhvNPn3t7qI7CWJwCA3bFcxb5AGduEFa6W9Cvo6prGiTyyWSyBgwOLzTJxuIrtVyQo24J90kQgEkEGSaKh5S+nyajLHc/Ro7e5aPF48TYjuZwcdeIsBYWZMcarkM+TtUgpEs1XRDluKaOl0R6I3F/KIoEJ39NyDwIO0k8s43x78Demj698j3kGt7QBtpJTjjuGGd+6Icu/BIwDggE5as0ex6Z0x4SbXSYFnmB4Zbhi30WFuWZp1y00gOf0EJJyGUsuCtQW/oz5JUMi3WoStqF2u6tMAIIM81t7Zf0UQGw4uEueEEnOctHpHCAO4e6gjzSDnj2n8B+O3rqCI9wT3n4D8s+tjQJku8D7K/H8VHtyRQc641Id7H1DA94GfiPXQQbi7XxP9on/AKmoObcXfgw+fUaDi3t54sPd+IoODe3h7yfYrfcQfhQVvUrzvAPrBX7wRQVm8uBvzHq3HwyB8KDgX8gPaCPXj+X3UFW1GHc4/I/z9m1BzrfV5IieBscQwwIVkcdzxsCkg/iUkdnfV0JuNMt5/wBWVtJT9ksTaSHu4nLNbseWGLR5OSy5wHkdjo103uLMm0uozJD9q3m3AU59KFznCnORgmM7HCneg4flF8g8NzG17pR/ektjsynmRjcqeeCMg8993qweAyBkYo6lXU4ZWGCD4g/eNjWtEmK4polxTU8j0bTvKXKtgumWFuYXuWP06WLikub9i2IoVwvHHCq8I6iP9YxbsZw9F3s7K26OqstysV3rhUNBaEiS30vIyst1wnhlux9ZIPqx+ixIPCSHG6K9B7jVGm1TUrpreyD5udRuBxPNJ/ubVMfp5zjhWOMcMYGMeiEM1MVfVrOK5vWi0u3uTFK4W1t3PX3LDAHpdWvNiGcgcQQH6zBcimLr5T/IM+kWdvNd3cAvp5N9PQhpEhKkiTiBPEVccLeiIxxei7lTmS6jyutIRe2gdSpJGcEMpKsjAgq6MN1dGAZWGCCAalXX3x5tXlkOtadm4K/0lYFbfUFGxkyD9HvVXb0LqNcnA4RKsqjZM1zV6pUUNALUGqDRFABFAJoFkUAOKBTUC3FAa0DAKBiigYooDAoCAoCoNigKgIUHn3l98rH9C6XLdpwteTMLTTozj0rqUH9KVPOO2TinfY5CY5kUH56WVrwLgszsSXkkY5eSRyWkkcncvI5ZiT2k10jJ9aqMzQX7yYeVrUdEdZ7fj+jzk8UMyv8ARbrg9F+EkcPGuOEyxHiQjB4hxKZix6prPk30vpJG93opjstSUGS50qVlVJCPrPDyCgkgdZGvVFiONYGYk58NPOdP6fdWh0fpBbzvbwkrFIVK3+mOeTQlgTLb43MDFkZSChICqdbBQOkMz2E91bWt8J4JUETzWzusV1A4V+B1PaNg6EtwuHXiO9Simyz1BBmuKCz+TjybT6lLhcpAm8sp5ADmFO+T2Z3wcbEkKYPrLozoVrYwCOILHCgy7nYyd5cnsz9nJJJAyxO0FjsI5LwDrC9vaHlGCUnuVPLjOzQQOOSD9JMuM4DHho9f6KRRxIkcaqiKMKqqFAHgB39p5k7nJzUou9lqg9fz8+Hj2VB1kmzuN/3jyHq7/Z76CFd3Qz+03jsB6l3+INBEkDtzO34eodnt/KgWtiOe59X4EYHsJoFyW2OQA8f8gR8aCHcsnawz68/DJoOZNcR94+IoOLeTR9499BwNQRTnBB/tfhk/dQVbUoMdh9n/AKcH4NQVXUEG/b9/ww3vBoKzfju+faN/7woOBdSkc98+r4dh9nCaDmzoGz9x/Ps9tBC+jkHt/H+fzzqwd/T3DoI5R1sQ+qM4khJzvC+7LzJ6vPA2TyOHFHV0XrLSVGD5RzwxzAYV++KVfqpJvgxnKnmp3UmUZ5UfJDDqcZnhUQ3ajOw9F+3BxjIO5xzBzyyS10fKmo2MkEjQzKUkQ4II9mRnGQcbHtoDhnrUHY0TW5IJEmhkaKWJg8ciHhdGHIqRyNUX/wAn1vpxWa/1W4aYRyYXT43b6XfSsofjllP6q2yfTmyzMwZfROOMLhpWk6t0quVWNEhs7f0EVVMWn2EQ+xGqgBpeHmAGlfIJ4UxwzwL3qnlQ0vo3E9poYS91FhwXOrSBXRNt1gHpK+CB+jjPUg4LNOysKz3o+fekN7cyyG4uzM8twBL1s4fimUkqHRnA44/RKKU9AcJUYwQNs1zaIygsvks8praLqUGpDJgA+jajGMnrbCVl61uEZ4pLYgXEe2TwugKiRsyxY/SHiQhWjdZI3VZIpFIZZI3AZHVhsyspBBBIOa5tBYUA0A0GUAmgAigAigWwoFsKBbCgNKBiigYtAa0BgUBigygIUGxQNhiLEKOZOKD4A85TynDVtYlMbZstL6ywtNzwyTK+L26HYeslUQqwyDHCCDh63xiV5tW2WVB0+i/Rie9njtbZOsnl4urTiROIojSEBnZVB4VOASMnAGSQCFx6OeU6605ZNN1G0+lWQY9bpt4rRyQsc5e2lI621l5kFPRYknGW46ipN55OQw/pHo7dTXCw4ke2B6vVbH1xoczxjkJoMg5xhsMaePLRXlA8v0eqad1OoWSSanEyLBqEZEX6PP6TrVAHpYBHV7xMW4gsRXfMHiE81bHPnuKlFj8mvk8m1O4EaejEmDNLyVB3A8uIj3DffKhsj670zS7eythHGBHBENzjeRu/A5knZVGSSe1iSZ5DbDTmkZZp15EGC3YAhNvRllU7PKRuqH0Igc7/AGtC36dKc5J37+eO/HaW7yf5Vmi2afqn1VGd/bn58dvWKguGlXoXn6R7s5UHx/aPh/I0FmtLpn7cD2e4fs/f2HBoJ8dkBz2HaT+P/q5dxoNO6jkOLxbZfYMb+tVOe+gU5LYySB3gAD2cWSfhQRJ7ZO4t6yT78mg509uo/ZHtGfuNBz5ox8g/gBQcS/Xnn48QHxBoKxqNsvcPYR+AX76CrahAVzgn3/gTj40FY1K4O4YA+sY+fnlQVu+kz4/PvHr3FBw7qLPz2/cfgfGg50lvv8/IPgce2gfBbcXMbDtHMfPu9XaHWsdMIOfcew+vu+fVQXLSdOVwUZQVYYdGzwuOzPce1XG6nke8J2lwtbSJHIS0Mh4YZ25q2+IJz2Pj9XLylHYDkUFZ8u3kSW9iMsYCzqPQcD6xyCUfHPPt4tiMkDNiPji5t3ido5FKujFWU9hH3g8weRG9bNPhuKkV19Ku0WSNpE62NXUyRhzGXQMCyB19JCy5XiGSM5xtWh730n8tF5qvBpGh2b2tjjgS1tlAlmX7TXDphY4v2xx8Lc5JHyAuf3EWLT9L0Te46nV9UXlao3Fptk//AMxIP9blQg5hXEYOzYIDVpmuHcpq+vSTXbrLdC3iZpJSFitreKMF+qQnghi7eGFTxsSThtzRFDVqAqDTLnY7g9lB9f8AmUeUc3FhNpEzFrjSsPbFjlpdNmZjGB2n6JJxQHnwx9Rvvtzrb6HqAaAWFBqg0aAGoAagBqBbCgWaJRKKKYooGAUBigMCgKgwUB0BAUHnHnF+UttJ0e5uIji7uCtjY74IuLnKtKP+7Q9ZP49XjtFWD8+rCyEaIi8lUDJ5kjmxPazHck5JOTk10YPoNE0F10TyQ3l1aC8smiumjLGa1t5eK+tuBiFka32kZWwGVoeMjuGCQajp2floW4QWmu2zX8cfoJdZ6rVLTHYszDMyqRkw3G5OctsForma50HlslGq6Rfi6tYmXFzA3UXdqzkBUurctxoWyFJHFHJ2gAgVkebdKulEt3PLczsrTTNxSMqLGC3CFzwIqqDgDOBuck5JzQV24uKBvRno9Le3EdtCCXkOMgZCrkZY+Azy7Tj1glfavQ3oRBp9sII8BUHFPKftsBlst2gZ338dsgLlUuxtjOyzup4B/qsLDG2NriRSPrH/AGQIwqemfrKp0LBFbe09p/Afifx5YDzkHhA+fn2evYEOpYXHDsDueZH4HfAPfuW7M9gW7Q5PH5+ezcnx3wF60q+zgLy7+z1DH3Lv3kUHejgLc+ztO/8AdX6o9e58aApI1Xmd/ex9nP4e2ghyTju/vHJ9w2959lBEuT6z68KPxPuNByrh17/vb37N99BzbiZe45/gP4H8BQcG+uvAe0EfnQV7Ur0dqkf2vwYLtQVi/uhjnj1jHxG1BWNTl7PuPz+NBV7yPuPz9x9mKDkTN37HvHI+sfnQHFD3+/8AI/g1B17HTeXz7B/5T7KC06bpHhz7O/1fl+XCQsdjpGMfBu7wbw/zyedBabfQEmRopVDK44WU/aAOcHtGDurc1bByD9YB6N25jkOnXZ4iyk2kzbfSIk5xt/8AMwgZIySygOOXHWoPnfzovIO2WuIU/TIM7D9dHk55fbHvye5wRR8oQT/JoOjBPQXTon03voopLO0leNbySNZFiCrLK31Ej60YkCMWAMYcK22eZokeh23QPTtKHFrEv0q6Ayuj2cg9E9gvrxOJYR2GKIM/bkjIE1S77pnquuOljawEW6fqtOsIzHawjOzyKMKx3yZrhuZO68WK1IlV3p10JbT5VgkntpperDSrbSiZYHLMDBI4HD1qgBmClgOIDO29ZcAGgyg7nk98oDaRqVnqi/Ut5BFeLv6enzlUuxgfWMaYuEXkZIl/iqWLH6WS8OcowZGAZGByrIwDKwI5gqQc1yaLIqgTQDQZQBQCRQLYUANQKIoDUUDBQGtAa0BrQboNqKAhQFUHxN55XTf6XrMdihzBo8HC2D6LX94qyTkjkTDAIUUnJUySjbJJ6SJXidaZEIiQxAJCjLEAkKCcAsRsoJOMnG9GsSNDt4XmiS4maCBnAlmWMzNGna4iUguRt6IIPuolXnVPJFqFoBf6ZcC/t4zxLe6ZI4liPPE0CkXMDAYLKVZVB3bY0WAl8r9pqA6vW7XrJccI1SzVIb5cbA3EYAiuwu49JVYDOMnlnVeadM9Pgt52jtrsXkDKrLMkckPEG9IJJFJ6Sum3Eu4B5HbYKncTUHNuZ/nt9Q8aD7A83byUGythcyqBdXIzuN4ou4fIzuRkMtB6HeQCeQxf7CAgznskl5pBkc1XIeUg8+FMqag7kVsc57SP7o+7J+A7tgJokdXjkPUPn4moFMee/rb57O4dvvJCRbrjc/h8/gBt4EO9pdweZ2HYPz7cHx3PhQX3RLwDBJ7vZ3ADx7AB7KC029+WwBt4D63/AKfifVQPaMD8f/UT/wBRPqoI0k/YOzu7PaR/yqPX3BEkBPdn1Fj7/SINBzbyBu3i5fPNh8MUHJmtz2bf2h+BoOPexN+3/iP4GgrOqW5/az6x+ec0FN1eEjlg+rY/PtoKxeMp2Ox+/wDA/O9BwrtSPEfH8fxHqoIqpxc/f2/5e8eNBPstNI5DIPz7PVQWvSdM5bZHbn7j3gd/ZQW/TdL5A8jyPj3Hx7j7D30Fp0/Rt8Efz/Ij8zvvxBYrLR8Y/wAJ/wCk93h+O3EE3pH0MW9gKZMc0ZDwyrs8UqbpIvivaPtKWXt9HUHIs7carZyQTqsd9bN1Uy42WYDaRdt4Lhd1O4wxGWKZpR+ePnDeTBrC6aZUKRyOVkTH6qYE5Bx2N/zb5PGAA8vt56o6NvPy+H5j86D0noLp+lCJrrUbqZyJGVdPtkIuJiArccly/wCjhhbixxAM7EHBBUigstz5WL+9A07S7b6DbOcCy05XMs2dibmdQJ7gn7TOVQjGVGM0gLWfI4tjbyPqN9b2t31ZMGnRD6VcvJjKrcGJurtVOCSzsx5bZODdR59EMkAAkkgADcknkABuSe4CqyNkIJBBBBIIIwQQcEEHcEHYg1IAkjDAqRkMCCO8EYOfZWqr7e8z7p4b3RI7eVuK50mQ2Euc8TW4HHYyEHfe2KxFskM8Tnb6q8qse0mooaATQaoBagA0ANQLIoFvQGtAxaAwKAgKBlBlAQoCUUEbWNeitILi8nOIbO3mupT+5Ahcgd5bGAOZJx20H5fw6hJOZbqb9feTTXk+TnEt1I0zLnuTj4ByAVQAAABXWdmTaIvfkl8tFzo0krQRW80dwEW4iuI+ISIhYhQ4IZPrn9pScZVsDExrXo8updE9Z/WRyaBet9qIA2TMfBV6lRntZLY9nEdsvB5V7W/N/wBb0pheaZObqIDKXWmzESFf3oVYtIpHNUM69/ZUtMUvXvKpbXiyrqunL9MCsFvbMLZ3JkVTwC7hK9TMC2zMVRwvIbCivH55qDmXM9B6X5t3k1/pG/Ekgzb2uJH7mcY4V7tsg+BKHcA0H2XreoNGgEQHXSsIoFx6IJz6RHZHEoMjZ2wqjbIrOh+kaOsSLGuSqfaOcySHJZ25kszEs2Scctwow0T2XA8T85/Ae6oI793b2+A548M8z4UBwW+d+wfE/PLuG/ZuDokyRgZ7h2es/ujs/aO/dQdK3bh25sfnJ+cCgsGlXODz9bd2e7tH3n4UFz03UgAABuewcz6yOfqFB2oYsj0zy+yCAB6zy9g376AmUcgNvH0V9xOT7Tmgjy55A+xRgDwwN/ft66DmyjB+zn2E/Akn4UEC7n8QPf8AyoK7f3A7/gaCq6rMDnkfCgpmqOBncj15x8fzoKpqCc+zxG49o+fXQceTI57j55Hs9vvFBJtLHi3Hf3bg/vD8R8aC2aLpZHMfzHh/LbuxyoLlpOjcscj29/h4MO/2HPYFr07SAOzY+HL8t87dh27aC3aZo4ICnnzU94A5H1AeOcAjluHWt7AYIIx394PYfuB+H2aCZCpU57Rz8e4+75Aq6Kd5QrM2c0erQKSEAivo1H621J3bC/WktmPXKcZKdYvIgUFC85nyZQ39sbhQHjmRUlK4xkj9DOD3tspbsIjPjVH5karpj200kEn14mKnsz3MPBhhvbQPtpqos3RK7tVnQ3iTSW4yZEgdY5G9E8IV3BCgtgMRgheLByACHrWl+UzUbrNloVl9AhbZo9ORjcyL33V9tK3Z6TNEuMA5GKC36P5r6WyC51/UoNOjPpGFHE11IeZAYcQLnt6pLgk+OKJXWXy/6PpI4NA0tJJwCBqN+peX1qv67BO/CJLdcgehsMMqPBtd12S5nmuJeHrZ5Hlk4FCKXdizEIowMkk/5mtIhVR7D5oHTL6Jrq27HEOr2z2rZzj6VbBri0buJ4PpEW+/pruN887Fj7lIrLQDQaIoBoNNQA1ADUCzQLYUBrQGtAwUBigKgwUB0BCg8H89fpV1GiLZq3DJqt5Dbbc/o1ufpVyRjHossawt2YkxsSKsSvjKujIWNAlzQejRaboF2iKtzd6Tc8Kq30pfptlI4ADMJIVWeLjO5LqUQnuFS1qJFj0T1/SAbjTpTPa5z12mzLd2r/8AEt1LMDyyZIRjOzbbZqqh5WPLZNqscK3Ntax3ELMZLmKPgllHDwqjZyyqCSxXjKs3CeFeFRVHk9xNQcu4ck4UEkkAAcyTsAPEk7VB+gfkQ6ADTdNgiI/TTASzHtJO4HuO3bggHPDtB3tHXrpnuOarxW9v3EBv00oHL05BwA/sR47aUWPquzsHPx7/AHnb2HwqBMvMn2+HgPV2+r15oExw527+Z8D+eCfh2UDpTk8I3A2P7x7vV3+6gnwxgbc2Pz7h89lA9I+fxPz8igl2kvYNvHw7x3fxHn2cxQWTTLvHLn29m3j3Dw5n4UFqsJsjPb2Z/Adn4+NB0HQbcXPsHM+wDl7cUEd4Cezb94/lhR7c4oIlzaL359QJ/P7hQcW+t1HJD7gPwoKxqSc/Rx6xn/poKVrA57D2Hf3el8aCnahc4zucdzcvxFBw7jvG33e78qAba3ycEYz7jQWLStC3BGx+B9X5cu6gv+i6ICMY+fD8uw91BbdN0XhwCMg8xjn4jx8OZ9e5C32WjgAciCOfeMD8O3uwew5Dp2tlghfap9X4gjFB0lhDAnk3I+sfgeX8xsHOmbHrHZ3jtGPD3dnJTkMj4XVo2wVYY33BB237weR7/VVHn3Qu3EX0rR58lIV44Ady1hMSqKCeZtpA0WR9ULFsM7h8I+d/5Mmtpxcgbo3UzEfaB3jk9TcQ37esHdVg+frWeqOrby0Hv2jecPqskEGn6Vax23DGiN9Bti88jgYaTZSsXGfSJCcQJz1lTAu48j84Y3GuajBYM27fSJWvtQkHhbQtJLv2cbqRvkCrqOJ00n0gIkWnJeySK5Ml5dvGqypgjgjtoxiMZIbidi2xGCGGNRMVVGohgNAqfUnt2iuos9dZTwXsWDgmS1lWcAH97g4SO0EjfOKlWP1ItdVjuI4bmI5huoYrmI98c8ayKfc3h7K5tCagGgGgw0AGgA0ANQLagJaA1oGLQGooN0G1oCFAVQfFnns9IhNrVpaDddM0/ibuW41KTjdcftCG2hJP7Mi95rpxSvDCa0yW5oJnR3VIYZ45Li3F3CpbrLdpGiEgKMo/SJ6SlWIkBHaoHImiRcp9N6PXeepurzSZT/s7yP6ba57lmtws6r+9KpI7aldENPJXq1pm602dLlFGTc6VdhiAN/0kaskwHbgxsMZzUHlPSjpPNdzPcXEhlml4S8hCgtwqFBIUKvJRyA7+05Cs3c1B6F5tXQL+kdWhVhmKD9NJ3ej9Udu/MjxUcqlH290r1g8LmMgPKwggx2EkgEY7FAaQfweohBO0mBY0RVwFjUInZy2yfEAZPjmpR0HfA+J9XYPntqBb8sd+5/Lu3PwU+NASLgeLZPs/ny9W/ZQbgAXJ7eQH4+388ZoJMCe88z+P4DxzzFA8v2DkNvWe71Dt7/fQOtz25HeSezx/8o9tB0bKYnAGwz29veTnme/Oy+vkFv0W6J5E+vtPqzyH7x3PZQWqKMAZyBnmdz9/M/xbeFBHnkU9uw5FhxE+odnsAoIlyhxnfHYSce7fb3UHD1QDHLf1j7+IGgp2qq2+Dj2/iCfvoKbq8mc5Ab1bn8TQVG9weRPqPzn3H2Gg472mTt7B2H58MHwoO9pGjcX45/HvH7w/Ogvei6HnbG47/wA+0dx+QF50fRSMHGOz58ce/l2KQFytNLGB3H4HsI8G+/HsDoWacOVI7fcdzt69yPHPeBQSmjB2HaOJT8+z2eqgj9fghv7Lj8fnx76CPqg7R28/X4+vt9veaDnNNsPk+Pu5+HKgqHlLn6o22pLztX4bgAZ4rWYiObIG56s8E4xnBQ7c8h575ynQRL21fbIkjMTEYO4BeJx3sBxKD3qnhnUH5iPC0TvG4w8bsjjuZSQfiDVHStpqD0PyedIdUIax02S5H0g8bxWx4ZJOFcEl1w4UL9YcYXbJziguUfkX6kl9V1Ky09iSWiLm+vST3wWxf0j3tLtkZ54pBIvNY0C3jkjtrW91CZo2Rbq8mW1ijZlIEkNtApdihIYdc53HLFaHn6NRg9TQGy9h5HnQfcXmfdJDcdHbNGOZNPludOf+CCUtbeP+rPFk9rA1ybexmgGgCgygEigA0C2oFtQGtAa0BrQGtBug2tAS0DreLiZV72A95qUfm15Vekf0zWdZus5V9SuIYznIMVkRZxlf3WEBcdwaus8MqyTVQlmoO/0N6W2tt1q3WnQX8cvBu8ssM0PBxbwyxnC8XF6QKNxcK8sbljr3Nr0dufqT6jpbn7M6R39spP7LwhLjA/fBNStKz0m8n7WsbXdtqNldRLhC9rcNHOBIeHDQOEmGc+koyAOed6g8yuJaDj3c1B9heZz0a+jaXd6gwxJcv1MR8PRHwxxjwapWXphuuK4X9iCPb/iSbfCNW7c/pP4sxpYorrJVe7c/Pw9tZEy4vM4XPifZyqhscmcePpHwGNvcAfUaB7TZ+eQ7PhuPE0BRDJz2D7+33ch40EnrOwc2+A/9I+NAxWzgDkNvX/n91A5HB8FH+I+H3L3DfuoOjaLnfOBtt2Adg8fxPOgsNheYOBz8eQB7W7Sx7AKC06fd8Xj4nw92MdwwB2nsoJsrKvbufaT7t8ergHj3BCnDnJC48Tt92D/ib10Ff1F8Dcx+w7/eaCnarc88Y9hJ/ECgpOsXGezf57D2+rJoKvcuCccz7iPfn78eAoG2GmFm7fUe3+fx+6g9E0DQs8OxB7D+Hzz8DvQXzSdGBA2AI+HiO9T3cxj10FrsLQDmNvtD8fZ8QPaQ6iLw4zup2PhnlnwPwProF3K9naPeV7MeI2378d1AMMp5dvMHxHP2HOR4NjsoIss42bsPot6+w+vkfDB7qBclxlSp9Xu5e40HAa9xz7/j25+8+z1UEe5VZEkhfdJEZSD2hhwn4H2e6rBSOjkjTaf1Eh4pbcvaOe+S2YdWx3O7JwMd9+MnkRWh+dfnI9FvomqSFRhLhVmXuz9Vh7uEnxb10FBtJqDv6NcOHXq3KMx4AyuU+v6JBYEYUg+lk4xnNB6pbeSqzt/9f1iygI5w2YkvpvEHqlESnxLkUHWtukPR62/U2N7qTj7d/cLbQZ/dhtV6wqe6STNBSdV1NZppJVhit1kYssMIYRRA8ljDszcI8WJ+FWMFK1UNWg+l/MN1sibXLIn0WWx1CIfvES21ySfFUtvjWK2+r6yAAoNNQaoBNABoAagWaJgloo1oGCgIUG6AhQEtAu91ZbeKe5c4S2t57hz+ysMTuT7MZoPyv0CRmgjd/ryL1r/xynrG+LfCusZS3aiHahos8SLLJDNHE6hkkeJ1jdTuGV2UKwPPIJFFd7o35SrWKBbe50mwvEUsRPma3vDxsW9K4ikw4XOFVo8KoxUU26uejs5+pq2nsR9hoL23HsYJcezJ/OKonTjQbSHq2tL9L1ZOLI+jy28sWMfrFkHCQ2SAUY/VOccqCjXcvOg4tyxJwNydgO9jsB7SaD9GLbSxY6VpVkuxEXXN7iEz78f2TWRyNDus5f8A3jlzy5clHZ9lV58hk/apR3LPUN2NQOjv8k78zj2Dn8/yoOnbajzPecD1Dn92KBv9JdufH59Z7PCg6lvOAAPAE+vOw9/3Cgdb3GcntOw/h7/7R/Cge823r2HqzuR6ztty2oJFt6WB9lfieX8vCg6iXOCAPYOzbmx8B2e2g6NnJvgesnl7T3d3hso+0QFi0m97jsNvaO7ly7+QHLPOgtmnRKwzsc+7+Z8SaAb63GTn2Z39w5e4Ggr2pRKNzt6wB8MCgo2uYOeWD89n4EUHn2sR8JPLHj+B/wA/hQc+LS+Mg4zvzH1h+BoLzoHRwEAEZ7m7/nu5jxoPQdJ0DAGdxzB7x2+0du243xnIIWGLT8AdhPI+I/PkR34O/aDluPyPgR84x6gaCRDOCOE8mBx4d49h/DvoFC82Od2Q4PiOfxX40EKa7w3r7u/BI9/pD+73UEKW63YftDI+/Hvzn1+FBBe9ORv9dSPavbQcy5uhse/n6zt9+/soII1LGDncHH37/f8AIqwVeC86q+uk5LcRR3K88ccZ6mXtxnh6o7Dcfw1ofLXnw9Fx1NtdqPqSlG5fUfl/iKDuwKzB8n2ctaHatpKD1Lo/0Z0hYo5LvVZOJ0VmtrOzd5IyRkxtLKVi4hyOMgHt50FhtelmgQfqdLvL1hyfULxYlPris1Axns4zt2imCu9LOmKXkqMlpZ2QVRGsFnGyK3pMQz8ckjSSnOC+QSANtqSphN5os0So0sMsSycXVtJG8YfhxxcBdRxcPEucZxkd9aQpWqo9b80TVjF0ktUz6N7ZX9m3dxKkd1GfWDbuo/iNY5NR92VhQmgFqDVBpqAGoFmgBqDa0DFFAYoDFBlAQoCWgoHnE6kYej2uONidNngB8boC3x7ePFB+esMeFUdwA9wxXWMBdqK9X6KedlrNlDDbxzQSQQRpDFHNboQsUahETij6piFVQMsSx5kk5JmKnXXnVQ3A/r+h6Zc55tGgQ+6RZjn+3t7sZVxb3pt0UuD+l0q8tGP2reXiQH1dePhDQeP+U2LT1uB/Rkk8tsYlLG4ADrMWk4kH6OM8ATqyCQx4i3pHbFRQLySip/kz0c3Op2MA3MlxHseXoenv4ejQfePlm1MC9liT6tvFFAu+SMIHHrxxj25rAqsF3w5HLhHDjPqH3DA8MUEmHVcL7c+7+YoHDVd8dwA/H7z84oOjDquB6l+LbmglQallgPHJ9n8+L2UHVGr88Hmcfh/Og6Fvqnb4YH3D8/dQS1v9wAe4e2g7lpegDwoJFtejduROw8F+fj66CdBe7Y7Tz78Ds8d9vYx7aCw6O2w7uwcs43JP7ooLfZanwjnufnb8tz6qDqXTeiCfR7T+0fWCdh4sc+qgruo3Y39I+0be4AfGgpOv3RweRHirD47igpU8PGccviD+GPUR7KDudGujxB5etfduv5d3sBD0/RdEVRxY9E/WxzU9jAff6/XQWa0twMjbsI7s88j4H1eIagiXUowQOR3Hgw5gfPaAKDky3u5/e39vb+Y9Z9oIi1M7+HpD1j63vG9Aq81PDBhybAPxKn7x7qCHPfAbesD2bj4cIoIN3qwGD3Nn2N/Pag519qeB/CwI9Xh7KDlXOpcxn7Rx6m/Leg50+o888sj59mc0HA6Q3+J7SX994W23xLGcer01Uf2jWoKJ5xejfStBvQAS0Hpj1p6S+oE4+FSD8+rOWtDuWcvKg9j8nI6PLbLJqLX0l1xOGgg2j4Q3oFWCx/WXGQ0x3zyqC+Wflc6OW/8Aq3R8zMOTXkisfXws90AfUaDsQ+eTdxDhsdP02yXGBwQsz4/iV4lI9ce9IKJ5RPLPqOr9X9OmWQQljEqxRxqhfhD4KrxnPCv1nI2rbKoIaqLX5ItXEGuaFMezVbaD/wDmcVoP8Uy1m+Fj9I50wzDuYj3E1zaKNAJoBoNNQA1ADUCzQbWgYKIMUUYoMoDoCFB4v55l3w9Gr1QcGa60qEeptRgZx6jGrD21YPiBzXSMI7mgjNNgg7bEHcZGxzuO0fhRqL3d+XbrCTPpWiz5PM2XVt7GhkQqfV31lXHuvKFpL/rdCiQ9rW1/dR+5HMij3/jQea9KbuBpXa2jeGAkcEcknWuvojiBfA4vS4iNs4I570SqpeSc6K9U8zrSuv6Q2YxkJxSY8FK5PsUmg+gunGs9ZqF23P8ArMxx3hHKgdvZGBWBwhqGx9g+/wDKgcNS5b9w95oGpqXb3n8T+GffQSjrG+O8/DlQPstX3J7h/M/HNBOi1g7b959vIffQdC11zx7z7th+NB0LLXeRz3n8BQduLXvRAzz+TQdO11vJA7B9+34kf3aDraVqXEfWcewc/gKC26ZqvaOWAB+A93pGgsthqo2J3I5d3ifHuAxzoLLYScfM7d2c7/iRz7h6sEgd/p6gDO3d2Z922fAE0FC1+wAO3v8A5ggj1nIHdQQ9E6LFmO2T3Edns2PgV7eYXnQXvT9ECKM7EcvyPgeXt7OI4DqQ3IU77A8x8CPV8jbmATXWNgd13Ge0cx+I9RPPlQcfUdSyTg4zuP4gM/n7VoOPf6mowy8iAw9fb8Dn2UHKbWwGG+xPwIx9340ETUdX9EjPL8PSHwz76CLLrORnPZn3CggXOpei3t+BJFBBudWyvP7IPt3Wg5lzqnjzUe8Hf4bUHOutW57959+cUHH13Vcx5BxwSRP7nU/iT7KsHSWNbmy1SA8jbF9vDJ+8AUg/MjT2I2PMbH1jY1od6zkoL/0J1rT4kf6ZZS3chYcHDdNboExurBVJY8W+c8qC62nlTsI/1Og6eMdt1Nd3fvDSxr7MYqAOkflYe6g+j/Q9Ntoiyt/VLRYpMoSQBJxM/DzyM7ikFZhats1JSiGQ3hjmtJRzhv7CceBivIJAez9nvHrHOpVj9UtTXEj/AMR+O9c2kRqATQDQaNADUANQLaiNrRTKM/cYo0MUGCgOhBCg8F8+GTGhQjsbWLAH+ysz7eOVFWD4wc10YR5TRS7PUmhkjmXh4onWReNVdeJGDLxKwKsuQMqwII2OaNLjd+cFO2ess9Ik/i0+FT/gK9/dWRxbzywwt9fRtGbxWCSI++OYGg8w6QX6ySSSJGkKu5ZYo+IpGCchV4izcI5DJJoK1ePzoPoH/R9WhbpBxD7FtLn1MPzA8aC4NfF5J5M7kzPn+J2Ps+tWEqA91sfXn7qKNbvf2j7qDa3nL2UG/p+/z3fyoDj1EgNv+1+FBL/pM9/YB8aBsWsHHrH3/wCdB049X5DwA+IH86Drxa1uPd9386Dqw63gE5+fkj3UFj0jVsDf9kfHnQW7Stbwo78f5H30Fq0rU+S5+r9/L/CAT/lQXjSr/AA5d57h3Y7SOfdlu3AwFnnswy5I7ueCR6yx3z7vAUFZ/oAvJjHojl3g+Hh7cE7YoLFb2KxAHYMvPHIjtx4Hnjs37hgE6tqqnkeWN/AjPz66CuXetgZyezw5gb+wAEUHOvekeCpzyPCfn3++grt/0i358ifgRj3hsUHFuOkGQBnkWX1fWH4j3UHGl6RDY/Ox2/Cgy66Q4B37viOGg50fST0Rv2ff/nQR36QbEZ+cCggrrew37D94/nQcubXM8IzzUj59tBzn1vx/YP3UEG41fiThz9ZB798fHFWC8+Ru/Ekt6p3DabctjbfhMZ5HtwTQfm5qkfDcXC/szzKPUJWA+FaE2zflQXroV0rituMyWNreFuHh+k9aRHw5zwiORAeLiGeLPIYoL1a+WtV/V6Voqf8A7Ti8ObSk5xtv66B+s+Wu4uYXtzDp0UcgAb6PZQRSYBDbSAF1yQOTDOPXQVSJq0yloaCLrk3DCz/scD/3HVvbjGcdtSkfq/evluL9pUb+8in8a5VpHaqBNANBo0ANQA1ABojFopgoyOjQ6DKA6JBChHgPnyH/ANi2n/8AubT/APBc1Yr4ykNdGEaU0UOm6y9vLHPGVEkTB0LIkihhyykgZGHgykHurLS1XfnHX5+sbBj2ltPssn14hAoObceXK+bnBp8nr0y2JHq4YxQeUa7fNJJJIwVWd2dlRQiqWYkhUGAoB2CjZRttQVq9eg+l/wDRxt/7bn/7t+L1KOjpAbhlz9bqjn15GfjWeIRcg4NBrB+77moMAOFoN8B+fU1AIU4Pt/5hQPlQ/dQEsZx/ZFB0IkOR7PxoOlahtvX+X86Dr2sbHPz3GgtVlatwnY8vwoLRotnIeHY8hnn2EfhQXjRtMl223ycH153zQX7QtGkbfs2JHrI7fUDn1CgtenAqCrNvgHGT6O3ge/v7jyoG3cjBCEHMELjn245evmO7txQVrUruXDD9wZOe0cXz7+6gq19cSni/gAProKvq1xLh9/tOO39gmg4+pXMuCe8jG3bgGg4uqyS5FByJZpBn+Jj7qDlymTA+e0UBztIf8P3mghI0nAP4R9woFAv8B9woIgkfA9R/Cg5zcfof2qDnyFwPYv4UCLVmyvd6P304+R6R5uz4vLrO6/0Ze458sJjnvy76o/PbpEf63df95n//ACvWhIs35UF86CdMZrQuYYoJS4UN19slwF4SccPGDwnfGRjOPAUF6h8v18v+z09Byx/R1oFHh6UX4mgfqPl3vriF7dmtFilUq6xWVnGzA9zrCHU7bFGU0FViNaEtDRmoXSk/1af+A/hRH6xTfZ/4cX/41rk0U1FCaAaDTUANQA1ADUSsWimCjIxRoYoMFAdCCFB4J58KZ0KE/saxYE/2hMg+LD5NWD4tkNdGKizGixmkX8scsc1vkyxOHQiMSgOpyCUZXRsEcmVge0Go09CPld6TyfUN0fCLS7cA+yOyANZ0RZte6WSfZ1EfxWiQ+PN4I9vhQeH9Mop1uJxdBhc9YxnD44usb0mLcPo5PFnbbeqKffNQfQn+j11Dh6QcO/p2smfUv82B9lBfTYcElwmORlT+65G/93wrATPppwfZ99BiacdvZ+X40BHSDgA9mfx/Kgkf0Pt7/wAaDSaISp9v5/hQT10LI5dxoJ9p0WJA27x8/Cg61j0RJCnHzz/Ggslt0GOdhtnPLsOR8+ygsmm9As5OOWM+7H3ge+g9A0LoBkAY+z78bH3jlQW/RugIGMjbB9/h7iPaPCgty6fDGudjjHd2Hx8fhQVLW+mnVsUQgrkgeGTyPPHr9lA7oveuwOdzjIP2h7OZHqoLHDek4UnLdnLb1Ab+3s7+4F3unDGO0g8R7N+e/hvnHPJoONLoo3OMZ7D2KMc/cPVvQcC96PZ2x9Ylj3jiJAHuyPXQcS/0PJAxsX+A7aDj6jouTy7x7C2PeMGg4c+g8/af7x/zoOXe6LsAB2b+HEcj4fdQZcaNheXIZ9wzQc2bScLy+QfyFAibSsDlyWggR6Vy25BvvA/CghNpnLwBP3Cg5dxpm7f2B8RQQf6PwB/Zx7WIH31eI9A8iNmEkvXOwGm3AJ/iMYHwz7qD82dWueO5uG7GuJ2HqMrEfCtCbZtyoPUvJUurATPpYn24BMYQhPJmQENknkxHCD20HpMfTTpZFnK6jgdv9Hq69vb9FZeznnNBG1zypa9NDJb3TTGKRSsgfTreNiueXWi0SVeXNXU7cxQUKOTBwdj3HY+7+VWUTojWkqPrcPFC6c+PgTHfxuq49uazUj9Yb1MNj9lUX3Iork0jtVAmgGg0aAGoAagA0Ri0UwUQYooxQZQHQbWg8W88204ujV8wGTDdaVOPUuowK59iMx3B5e0WD4bkrowXb3hjdJBgmN1cA7glGDDI7sjejUexal55WrHPBHYxD923YkerMuPeD2VnFV6484fpJcfqpJWz2W9hE+fURBI3Z2Gpg5tzf9LJxk/0io73jW1H/wBxIse6g8U6dWFzHcSLdktcHhMjGRZWOQMEupYE4wOeRyPKqKXfHnQereZrrfU9IrMk8IkDx5/i4SR/dU0H1B0v0YpeXowMdbOfYxMm3ic7eus4FR6MSM+GfxqBkeg7cu8fiKCaOju4ONtvy/GgnwdG9sY5fhz+740D7LomTnbYH+R+OaDs6X0S9EZHh7tvhjPuoLBpnRLn6PccY+HvAFB3NM6Hkqy8PLcbd38se6gt2ldDchSR2AH2+ifiF9RProLPp3RcLsRjOx8CeR9QYD1ZoO1ZWwQZ2BXP3YI+4jbt8KCBqnStEGx332yB6vURj34oPNOmHTnOeA7+B3/z7MY++grGl6qztxEnfmRv8P8AL1mg9U6N3HCv1lPdkAHl4lfhkUD7u+I9LiGB44z3Db7gfZQdrSNWV1GdgPYSezf47Z5Z3wOEOiLfiOTsMfDsHrPd3d+TgIV1aczjwX18h7hj/D20HHOnDdsbKOEeJ7ces7e2g4d3pW/Llz+OfbuxFByrnStmPjwj8fZmg5dzpeSdubY9i+iD7yfjQKu9N9H2ffQc+50nbHqHz8aCBe6XzHgB7zQQ5tKxxHuGB7z+NBy203cjH2fvOf8AqFByrzTvreLn/Cp/HHvoOXqljwhF5Eug/wAJP/TmtQWXRpRbWGrXDclteD+9ke7JU+ypB+XOnSEgEnJO58SedaFhsmoPV/JhpWrmOSXTWlCmQI4imjQs6AMMozKWAD7HGOYzsaD0WLpt0stvrDUQB9o2QmT2t9HkT/FQdSy86nX4cCWRGx2T2cae8IsPwxzPhQD0385K+1Kzks7mK0CSNGxkiiZJAY3VxwkyNjJXB7wSNs0kHmkRrTNSba1Mk1pEOc1/YQAd5mvII8f4ql8EfqpqL5kk/jI9xx+Fc2kZqATQDQaNADUANQLag2tAwUBiijFEZQHQbWg8984fTeu6Pa4gGSNNnmHrtgJ8+sdXkeqg/PCOTKg94B94zXVhHmNGohTNTVXlvKB0ivBwxTalKDsBaxyKuOze3jUAY7SeVZHL1HyV63KOK66yMcy99eomB49dMX/w5oPMemPRz6K6p9ItrgsvEWtZeujU8RHCX4VBbbO22CKCl3tB0/JZrxttVsJwcFLlBk8v0mY9x3enQfpF0w0pZLl5B9WVUcEjbdQucczgBTipoidG9M4oYzjcKVIx9pCVYb9uRj11KOpbaCPkdoB/I1B1Yej2V2G+Pj/nQdDT+j+Ty5/9Qz8WoOlY9G/S4cc9vb//AG+6g7ei9Fd2BHbxDI7DzHvx76C02XRsDDY7cE47G7fYwz7qDsWmjhH5bNtjHaM7Z8QSPXQTYIFQlTy7PEHY+3cMPE+BoFXusKoOTz9FvXjZh/EMNmgo2udNsAkNuOfj+8O7PbQeW9JOmmcjiO/Ig8j4+Pf37UFSg1N3bJJz2kdvj4/f66C76BCSQQSPEezn/Og9P0gjhGcZ9RH/AC5+6gzUbtB2jPqLH2Zx91BD07VjxjmB2ZzxH1Ds7849o50HoumaorrvgY59w9X7THt7By9YMmU7k7dijuz2fxHmT9kePII93b7KqjIGAAPtP+S7k+Pq2Dm3drj2ff8A57+pR+1Qcq9sdlHbzx4n6v50EAaWDy5cge8D6x9pz7cUCbzT+z52+ce2g5tzYb+r7zsPvPuoObc2ODy7cn3bCggXdj6OO1jj8/eR8aDnJZDc9hPwGT92KDltp+yjHM5PtOf+kig4t5Z8VxEv7KySnly2jXI9rj2nurUFZ84TW/ofRm/YbNcMY1wf2hwL6wG+8VIPzjsuz2Vod6zoPSuiHk5luY1lgurISNxDqHu0guRwsVHoycKnixxDD8iNt6C82vQ/pHaANEupBR22s0syf3beRwR61oIfSbygapPELa+nuHjDrIEuI+FuJAQDlkWTYMdixG+4O1EcCGtKmwmiVcPI9pAuNc0OE/8A6rbTn/8AZ8V2P8UAqXwkfpM75Zj3sT7zmubQWoBY0A0GmoAagBqBZoNigNaBgoCFBugIUBLQRb7SluI5rZxlLm3nt2HYVmieMg+vioPyr0NGWCNH+vGvVP8Axwkxv/iU+6urBs1GogzVlVq03pBrl1FHb2suoywxKIkjtjOsSKowEZoeFcAY/WN3eFBC1PyL3w9O+ltrQc+K9vI+sPqRWlkJ8CB66Ch9MtAtYFUQ3yXchYh1jt5Y40XH1hNIf0hJ2wqjA3yaChXvbQcG+kI3U4ZcMpHMEbgjxBwRQfqj5LdfW/sbK4X/AGtuvjzAwMntHo+3NZosHRSw4ZbmE/YkWZR/8OYDO2ScCQOOzsON6C1RaCc8uRz7uX3H31BY9L6P9mPV6jyoOhb9HwGAx24Ht3U+88uz3UHWGidoGD+O2PfsPW3hQTzYhSsmNj9b1HZvcd/d7A6bcI29h9w5f4SPAD2BzbvUBggncdvq3B+fiTQcPVOkWwOcMPn3E7e3G3aHn/SbphscHw9Rz2+Gc7UHmHSLpad/S39fz7Rt394oKNNqpdj39q9/iP5UHc0OXJGc7cscx7O0ePKg9V6LqGxy+4+48/fmg9QsxsMY5eGeXqNBzr6Hu278uPwB/A0Fcln4T2n1bA+sklj7/ZzoLFoOucJHEd+xR2eAH2f4jk9woPQLG7DAMdgBtjs8F72PeOXieQSyvb24wB+wvM7952JP8uIIN1B2nl2ePs8e7uwPGg50tkT/ABNkDw7z/ZG3r+AbNgFHgBgez8zvQQJLXO/f8FHP3nb1YoIL2Hb7fht8MnHjQci4su3v/P7idvURQc6+s98dw+Lcs+oYPsNBCuNP2Cjt2/vHJ9y/dQc+WzxxN3DA9mB9+/tNWCsaVbcUtzL2IVt0P/DGXxsNutkcdxIPcKo+c/8ASBdKhFZ2GnqRl361wP2VyeXPPGIz6jUg+MrL8q0O9aUHqWj+T+0nRTDqtr1hA4oruOW04WIGVEr8cbgHbiBAI325UFqsfJZrdsOstlnZBuJNOuetBHeotpC/+HPgKg5nSjpXqE/VxX81zI0HFwJc8XWJx8PFnjAk9LhH1s/GrE+7mQ1pU2KjNey+aDpJl6R2z/ZsrG/uycZHEyR2sQPcT9Icjv4D3Vmkfd8dYabNALUGqDTUCzQCxoFmgwUDFoDWgNaDdAS0GxQahl4WVu5gfcaD81/Kz0b+hazrNrjCpqVxPGOQEV6ReRhR+yon4F7wtdIxVPlqVYgzUadjo9d6pMhs7F754+JpGt7Z5uDifALyLGQoB4VGZCFzjG5oybe+ReeP07+5s7DO5E9wslwfHqYTI57sMVOeyhVT6TWWlRROsM93d3BACS9UttbqcjJKOWlYEZA3G+DRp5reioODeiqPtvzEPKCHsjau29pcFdz/ALKUhlb1AtjGf9meQqUfYGsaYIL21n5R3GbKXuHX/pLdiOW0ymPixt1mCdxiQei22ljCnHP0T4EbZx7j6hUHWsdNx935fiPYKCfLpgPZzGM+PNT7D7s0GoZFYePaPHtx6yTjxPhQJuZQM925x3g/W9vJh4UHCu9Z4fRJ5bZ71P1T/Zzj1HwFBVtZ1/AJzuuzDtx3+ODv8e6goevdKeYzse3PL+R/n2UHmXSLpQcnffkd+Y7/AF/f94UW/wBQL9vq/L+R9VA3TF4tjzHv9Y/KgvWgwkYyAfWBn58QaD07o2VyM5HLsz/i5/E0HollOmBu3+P8RQRL6RezJ9e3wOKCuag+O5fbv8Dn/FQQtPvirA9gPNth7ufwHiO0BfdB1ssRkk9+dgPUOQ+PfvnYL9ZSArk7L48z6x2DPZzJ50G5zzZtu5eZHcMftH4eoDIZbW32iNz8AOQH3+J3oIt8mdvf8+H/ADY8cBFls+zv5+AHIe3f/FQQru3yQo9Z9Xz/ANPfQce6jySez6o8e8+7717qCA1pk7/xN7TyHsP+LwoI81ruT3Dbu4m/AD4Ggr3SS4W3geVhsilsd5GyL63chB27r4ZsHN0jRTBbRI+7kcUh7TIx43PZzY+wUo/Nfzvenn07XJgrZjtVWBO7P1nI57kFFONsr2b1oeW2QoLLopQOhlDGPiXrAhCuUz6QQkEBiORIwDQeo2PRXSrj/V9Re1c/7K/gIX/+TATGP7SdtB3bTyRatb/prRWnQbifTLkTZx4QOJs+BTOe+oODrOtXE8he6lllmUCJmnZmlAjJARi/pAqcjDbg5zzqzwyCGkaTYa0zX0/5h2hkya5ekeiBY6fEf3gJbm5Hue3+PdXOtPrWM1BugEig1QCaADQA1As0TW1oo1oDFAxaDdBtaDZNAuSp9x8U+e10e6nWbS7HLUtPCN+9cabJwOSe1jDcw+xRjtrpxSvApq0sQZ6yOt0R6PalOXGnx3Z6wcEjW5kjRlyG4JJFKRlcgNwu2MgHszV0Ws+bVJCvW6pe2tgpOSrOssx7SPrKnF/C0nqNRmuFqGs9HrLaC3m1OUfbn9GEkfuuigjb/cPnvPOjTwjVGDMxUcKlmIUHIUEkhc9vCDjPbigr14tB6D5sXTr6Dq0aucQ3am3fu4zvEx8c8SDxkqD9bNKtF1TS2QtiThMZcfWSZCDHID2EOEkyOxsb0Fx8n2v/AEu1jlYcMhzHOnLguYm6udcDllhxL+4wwTkVKLQmO3n2/n9xx66gMXWR+8vx7veNvXnuFBX9UvuBuIfVbf1HtHt/PxoOVqWtDGx8Qe4/PP1t3CgpmuauCu31lzt+HsPKgoGqdJSe30l5fvDuP3fIoPOukHSDc4O3aP2T+Xh3eNBSdR1Itz3HYe32UEaGTv7e38x8mgsel22cZ28ea+w/Z9VB6N0dtm27fn57/VQej6DDg54T6xjPuyCfdQXC2Ax2j2EffQKuohjmSfHiwfft8KCvalZeKj3/AIn7iKDjOAu+7EdvYPHu+80Ha0DVcHsz3dg/D2/5UHoOm60BjJyewcwvj6+zf3AbALTYelgt2dnd4nvJ+cciEq5lxy5/Px/z2A3CHDF2n2DvPZ7B2HtOW32oBKbFvd49nu7uwAZ7TQcq6U5wPrNz9udvZz8OX2aDm3VqBt2Lt6//AOze4YI5UEd7bHPnzb1nkPZn2ZoEPbch28z9/wAAeXcWFBSekUH0m7gtR9SPF3ceCIWW2jJ73lDScOc4iB2zmqKj5wHlAj0+yurhjgQxMRggZYggKO4ncDtzw99WD8jWvnmkeWQ5kldpHPe7ksx9WSceHxo69mtBf/Jzr9tbSlrq0W8jeMx9WzAcBLKesTKkcYC4BypwxwwzuHrdh0V6P3/+r3kumzN/s7leKEH+JiF3PYLj1AUHRn83zWLM9fZnr15rPYTlZMcwQoZJD4dWZKg89vbWVJGE6SJKWJcTK6yFiSWLBwGyScknck57aRk6IVtpMjONzyAJPuolfdnmh9GjbdHrJ2GJL+W51GT+CeUrbeP+rJFseRzXNXs6VAVAJoNUAmgCgBzQLagxTQGpoGUBg0BUGCgI0C2oPA/PU6Ldfogu1Xik0q7iutvrfRpz9Gut/wBlUkWZhnGIjsSBVlHxRMK6BMF0Y5EkADGN0cKwDKSjBgGB2KnGCDsRsamD0Ppl5z2q3AMcTx2MPJY7NOrIXu61uJwR3x9X4AVnEVFfJvNPGt7qF7BawzLxpNdTG4uJkyfSjgjZ533yMNwniz66DkX+s6Ta7W1rJfy/76+/RwZ71tU3YduJmz8aqqJ0tvLm6zdyRYjHDEHihEUC4yUjXhHDsCe0nlk8qCi3iUHCuiykMpKspDKwOCrA5DA9hBAIPYaD9VPMn8t6XcMLOwAuE6mZf2LqP0eXICRQQO0/oe81B9DK/wBB1IgnhtdUYAHkseoquEOOQF3EpXPNpI1G/Fmgust7sR2g/HtHtHvIPfWRyL7VsekDuOY7x/Ll7j25oK/qusqwIzsd/UfwzQUe/wCkXDlSdjyP4+scj7DyNBUNW14557j4j55e7uoKB0k1ntXfPz8/OApGoaqW37e09/roIEU2fy/I0HVsIeLl7j870Fu0SyxjBx4dh+fGgv8AodmQB6P90gj+6dvdQeg6Jty9x4lP34+FBare82/9Q/KgCeQkHA/xD8hQcC9hPcB7M/E7UHAu2HLJY9w3/wDSPaaBNtdEHA29R39p/LPrG1BbtB1AAjfJ8Ozx7h/Ed6C+aPrORgHbtb7I78HtPj20Het8Hf7A5k827MDwPd28t6BjtxHHYOZ7h3fme3kO2gizz9vYPqg/f+PdjbagjomBk/Wbl3gHt9beOPecEIzW4wSeQPrye/1d3hk/bWgR9GOCT39vafv27e3mN9shydevUgikmlPCiIXc9oQbnHezH0QPtMdvrA1YKp0Usmgt5by4HBPdt1zqd+qXhAihHhDGFGOZbPMmqPz48/TytmaWLTI27RcXIBztkiKMnl9Zckc/0Sn7YoPlSxjqjv2a0Hpmh9JZrIfRLqyhmiDFjDdQ8EqlgMtHMAsiEgYDekO6gtFlo2j3eOquJdMmPKK7Uz2pPctxGOOMH9qZSBv4UHQe31PRXjaO5MSShmhltLpZbedVIDHhRmVgCQCJYwcnltmgsvSXzgr2/sms7tLaUloytz1QSdAjBiBg8A48YLKiEDPMnIuCgw1Q/wDoqS4aG0iz117PBZRY3IkupVhBHZ6IcsSTgAEnAFSo/Umz0uO3jitogBFbRRW0QHIRwIsaADwC1zVNFAWaABQZQBQAaAGoFsaDFNAa0DBQGKA6DKAqBZFBzdX0OO6hntJhmG7gmtZR+5OjRk+teLiB7MUH5ePpksDS2s+09nNNZzZGMyWztEzY32fhDg5IKsCM5rpKI01Uc+4FTETujHREXTycVzb2scSh5Jbh8YUnAEaAFpWB+wu+43Gaipl9q2lWe1tA2pTD/tF6pS2B747QYZx2/pmyKDhXMeqatkszG3TmzFYLKEDfOPRj9H90O+/qoPKr6HBI22JGxBG3cRsR4jnQcC+joPV/NV8qp0/UPo0jlbe8IUHJHV3Ix1Tgjlx44Cf2hFuApyH6x2Oqx6pp5imOJOEK5TZo3XDJNGewq3DKmDtkD7LCiB6O9N3kRknwt3bkRXIGwY4zHOn7k6AOOwNxL9nNZVq76Q7nf1+HiPxqCqa5rmPSB9fiPn86Cl65rQYZz7e755fIoKNqmvnlnBHI5+cqfhQVG/1YknB37R+VByHPEcrz7R30Eu1HLIwfn5zQWTTLTPge/wCedBdtHtjtke0fiDQXzRUG3L2bH3dtBfNJYAb59o+fjQd2GIHfb59lAm5Ukc29h2+6g4WoRd49rZP/ADHhoK/eD5HL8B8aDlTT9gyfBfzxj3D20E7Tb3H1jgfsry/tHtoLvpOrFsDkB2ch8/HwHOgummagW2zk+4AY+G3t7KDtK64x2d/7R7MDuHZ/MZAOrz6Tcvsj9o/+UfH3ZBboSfE/WPcO714wO/GBzPogCx8RGNgPw5nu2+/HYpFBudQfBQPhnx7Sce3t2bNHm+pQ/wBI3othvaWTrJdkfVluV3htR2FYPRmkGMcfVrsVNWCh+cz5XYdPtpndwI7dON8faf8A2aAdrEkHHaerHaao/H7Xukkt7czXc5zJO5dt8hQfqoM/ZRQFHgM9tBJsY+VBceh/ReW6kMUPB1nCWVXkWMuQQOCMsQDIc5C5GwO4oPQ7Tp3e2x+i38C3Ua87e/Ri6jvilOJEPYGDMo7AeVB3rLo3pV7j6Lctp85/7NfHitmP7Md2i+gO7rhns7qCrTWJjd4yVJR2QlGDISpKkqw2ZSRsRzoJVutaE+IUHtnmfdEPpWuC5YZh0i2a6Pd9LuQ0FmvsQXEnflFPYazR9zxGsCQvOg21Bqg0aACaAWoFmgWxoMFAwUBrQGtAYoN0GxQA9BGnoPiPzy+hX0XV4r5BiHV4MvgbLf2arHMCRyM1uYXAO5Mch5DA1B4TMK2IE4oOfMmSATgcsns8eROw3wN8VKLfdyaTYfqwdWuR9uRWi09CO1Yzia4IP7ZVCMY4agrt3/SWsMebQxcwOGCytwN+W0a4B/ekx30FG6Y6LBCypDcC5YA9a6IViD55RM28gxzbABPLuAUq8joODfRfPLH5VB+h/mW+cGb63EMz/wBctgI5Qec0X2JQDzOMg/vdYuMFaD6G6VSs7Jc2/wCvQcJQcp4ju0B/eyOKJux9twwFKOI/StZEDoeY27DkbFSOxgQRjvBHbWRXr3pGO/8Al89hoKZrGt8JOOR+fn5wFU1HU89vqPd3+zwoOLJKc/O/q/Kgk2r5Pce+g79lDnAI+fD5zQWfTLHu9x+fvoLno1vy7O7O3uP88UF40uA9vxA+/agt+no2NsH3j4gr91B2Yes/e9jD8jQDMGxv8WP4EfCg42oRAc2UH1ZPs3J95NBXL6LPIFvFuXu/E0HKlgxnLexd/uwPx8KCNHNg93q3Y+3s+/woLXolwcDPojw+sfDw+J/hoLxp2ojAHLwH3sfw7+ZoLPY3PItuexfuJ7h4dv3B0+Mt3cR7exRv35/ltnfAIKcZ9Ecu0955/jnvG53JAoG9VjYfPh6h7fbjcKP096VuhS0tMNeXOeqJGVhjG0t5L3RxDKxg5MkuFHGFetCNqtxDo9gsUfpSEHHGcvLK3pSSynmxJzJI3rGRlcNH5L+eB5cDqV4bKFy1vbOWmfJ/TXOWDZ7CI8+rjJGP0Smg8Ps4eVB3LSOqPSejXQBbuJfos6PdAHrLST9E7EHb6O7Hq5dseiWDA55bCgs+m+UG5h/qmoQLeRIcNBeKwmi8YptpYjjkcuuDsO4JOv6RprQ/SLK5lRuIB7G6TMq8XNop416qSNcfaw4BGSTtQcK3Wg6UIrSRLDhQSdgBknuA3J91FfcvmidBDZaLFNKvDc6rIb+YdqwEcFjGc77W4WUjkGlbnzOOQ9viFZD0oNk0GqASaADQCxoFk0CmNBimgYpoGLQGKAxQFQYKDUgoI8o2oPL/ADh/Js2raRc20QBu4eG+seWfpNtljECf/eIusgPL6+dsZFg/Pa1vFlRZF5MobHIjwI7CORHeK6BMy0HPuEqUdbozcadGjy3cU1zMrAQ2ykRwMMZ45pR+kwDtwRjfbOQWxEpsjanrbCCFAtvHgCGFepsoBzGcZBI2+sZJO0UIT0m0DS9Mjkhc/T71kZG4TwxQEgjIIzwsD38UnggxgrxC7h23HiNuY7/nxoOJewc6zQzoT01n0y8hvbY4liO47JIyQXjbG/C3CDtycI2MqKQfqB5PPKVDq+npf2Zz6OLiH7cbDZxwjkVIORy2yMjhLaHK1S54i0kW7kFpYx/tQBvKg7JUUfpFH11HEBkHAVDUNbz6SnftH7Xz7KwOBdaxnPzj10HGmuCN+YPb8/fQMgl/y+eR+B8KDp2UQP5dv86CxaWpHiO4/gfzoLlpIB8PA7e4/wAzQXjSIsYzn7/u3x6xQXLR4xtj4H8OVBb7IjtB92fuzQdeKQfIoI08i93wFByL2VR9n4Y+fuoOFeOTyU/P+H/FQcS6i7zz7Bufhj48VBE6vHIcPid2Ps5D7vCgl2d3jkcd5zv7W5D1DNBaNJ1Lljn393iAfvPL1UFs0zUO45PMnu8fnfu/aoLHZ3nFsueE+9j/AJ55/wCI5oO1CgA+G3b4D1drfHJJIVTp301S0RUVeuuJ2MdtbocPcSDGVB+xDHkGaU4VFGOfCtaHI0DRlsIpr29kV7mXD3MwHo5GBHbwLzWCHISJObEgndhw5tHwT57vnUunHbW74vLhcAA5+iWxY+kcHaV+Fgpxu4J5RhSwfA1lb0Hfsoa1Bb+h15FDPFJPD18QJzGdgwxjO4w3CTnhOxIGcVR68/kigvUNzo8ofhwz2kjcMsZ/cLbgjbhDkgnlIdhQZp/lAcf1TV7Y3aRHhzJmK/t/+HOcMdt+CXiDbb4xQcHV7a3WZ1tXleAEdW0yqkpBUEh1X0cq3EuRscZwM0BQLQT4VrQtPk28n51bUrPTR+rmfrrw/safblWujz/2ilbdSduOZee4rFo/SziBPogKoAVFGwVFACqB2ALgYrIkKKBy0GUGGgCgCgBjQAaBTUGKaBimgYtAYNAdAYoMoNNQIegiuxUhhzBBHrFB8Cecz5NxpmryGNeGz1TrL61/ZSdnzfWw7urlYTKOQSbA+rgbg8omWtCBOtSj1jSfIjbWcMd7rdwsUTqHhs4XDTTgjIyy52IOcQkgbFpE3Agq/TLywXF3w2WmwG0tieCOCBf08vgxTOMjcrH2A8TuM4Jqq3fRS100ZveG5vAMrYRsDFCez6XKu2Ry6mPi8cgnBVO1W3vNRMtywXggjwzejFBCiglYUzsDv6KZJOck7g0Hn15BUHDvIKlF48gnl2udAvRcREvbuQLqDsdcjLqNv0iqMYyONfRODwlA/QHWUgv7NdZ0dxLbsBJNFGcvbsM5kQDcBWViy7FSDtgMqaFAmdbsZiwt1gloxhUucb8UQ5LNgEtEThtyv7KQU2a5JJzswJBU7HI5gjsIqUbt5v8AL5+fuqDo28Pd7vnlQdmyh+e0er/I+qgtOkrywRnuOxP4e/NBbtNiHIjHs2/L4j1UFw0mMjGM+zce47+2gt+mnODt7+E+0HANBarFT+/8MfDNB0Ys9x+fdQIuCd9tvnwNBClibsyvqGB7zvQcm6sP2iT6yT+X3UHKu8LyAHwH5/D20HInlydt+/YgfDc+04oIwn4T3kch3fwjkPWcmg7NhfHt28Bux/n49/Kgs2mX2RjYL3dntPafh91Bc9Jv8bfyyO9v2V8O3ljG1AvpT5RFtuCKNTcXc4xb20ZAeTmOJidobaPcvK3YGxxkGtCP0a6OLaCW/v5ke7kQddPuIoIhutrbBt1hQnHa8rHLZZsNkfIXnjed2lonCm8rcQsrbt7jcTgNkBeWMnGeAekzMtg/My/1KW5mknncyTSuXkdubMfgABhQoGFUADYDFE+zgoLR0c0Rp5UhThDuSF42CLnBOOI7b4wO8kUF80LX3tgbK/tzLbqx4oXASeBjuXt5NuFjzwSUcHO2STRY/wD/AAyWAf0hpc7zwR7mSP0bm17SLmMbgfvgGNhzAHMPRdD8qFhqiJb61EEkA4YtQgHCyd3WAZ4Ruc4V4s80XmA43lI8jU2mrHOJYrmznbht7iJl9I4LAMgJ3wG9JC6bfWUtwlBUIFrQmxkAZOwG5PcO/wBlZH2H5l/k5NvYy6rKpFxquFtw31otNhZhGfA3cmbg77x9TsuGBwPo+3FBJSgdQaoNGgBqAWoFsaBbGgWaJWgaKYDQNU0BigNTQGDQboNGgVIKCLMKDzTy7+Sv+mdMms0wt3EwutPkO3BdRAnqyTnCXMfFA/cH4tioNXR+esUpYbqUcFkkjYYaORCUkjcdjI4KkdhFa0R50q+U1DvpmbhLMzFVWNeIluFE+qgyThV7FGw7qVUrROm1xaRTR25SJp+EPOqDr1QZzHHLzRW2JxvkcxneIdZ+T5IY1u9TZ4YnHFDbLtd3fbkK36qI9srkE74x6LEscHVb261SRLeCJY4Y8mK2j9GCFBzkkbtIyS0r5OScc8MFO6ZaXbxOscEpnKLiaXAETSZ5Q/aKKNuJuZGRtQU26gqDi3dvUwej+bz5xl50cuxLDxS2shH0i1zs65GWQHAD4HIlVfAyVIV1aPt/VeiVprtqNZ6Our5BkudPQ4kR1PpPbqPSDq49KHAPFgKFYcBo8/j1mK99C6bqLpcot0RhXKnHV3qj6rA5Xrwucj0wMvIWCFqOlSwOI5k4H5qeauuMhkbkykEEEZ2IrNE+wPv7vyNQWOxgz6+75/CqLDYRHbIz99BbtIPZn2N7e3/Kgt2nRgYO6+I5ffy9poLfpT/v58CAfvx/zUFm09jnkh9Q3+Bag7EU57v+f/yUCJWbu/5/yWg51w58PgfvbP30HIvmPf8APuX76DiXcY7i3wHv/wA6DlzA8tgO5fxJ2+e2g58s4XYe5dz7T+W9AdrcknfAHcOQ/iP+fqoLJp2oYxv6jjf+wvb/ABNtVGL01lmJhsQrkHEty5JtoDyOWXe5nH2Yo/QBHpEAMtXBZtAittOjknldnllx11xJvcXDgeioA2VRySGLCquP2Qwo+UfO3881LVeqUh7ggm2swwxHnIE9yV5duAO4qmTxyLgfm5rmvT3k8lzcyGWeU5ZyAO/CqBsqJyVRsB6ySDrO3rUHatIao9C0LoQl1ADauz3UakzWr4DSKCT1ltj6/CMcUZPEME/s5CzaF0rhnRbXUw7KvoRXijNzbdnC4O80QP1lcF13xk4wHRk0G90iaO5hl9Bx+gvLc8UE6HmpzlTnHpQyDs5HGaDm6rqhnmkmZI4zK3EUiTgjBwAeFNwM4ydzkknnmgfHOxVULMUUsyoWJVWfHEVXOAW4RkgZOBmkEyBa0i5eSbyZtrOowaeMi3x9J1GQZHV2MbDrE4h9WS5bECbgjLuM9WaxVfo5EF2CKERFVI0UYVI0XhRFHIBVAAHZWROiFA9BQMoMoBJoAJoAJoFsaBbGgWxoNJQMU0DVNAYNAYNAYNAdBmKBbigiyighTjtoPjXzwvJV9FuRrMCYtb51j1BQPRgvz6Md0e5LzaNu6YKeclag+fZUrcTECaOpVc64i51B1NN0uTUbkm4ulTEfWTXNzJkrFHgHhBOXYAgLGvM+00IV0o6UoU+g6bG8dszBWYjNzevyBl4ckKTjhhXbvBzhQhXmlR6WMyhJdRYejCcPFZhhs0vY05GCIyCFG55jJVH1ToVcLbLduoWKR+FckK7cWSHCYHoEggY9fDjegpl1bVEce6tqmCx+Snyv6hoV0t3YSlDxAyREnqpgNsON8HBKhwCQDghlJQtH3r0O8omidMo+NHTS9dVR1iPhY7hh6I61QSGDEDE0Y4sEZ3xCGo5Wpafeaa30HUbbihyeCNyerbfJksrgAlDuWIGU4my8ZYei1R2/RoOC1mxuF3Jt2wt1GBzwgJWVR+3EzYHDkKSVATNHmB27tirbMPAg4I9RxTBcdNTl2+B5+/8AzqCy6fADQWnSoCMYJ9QP4H+R8KC12A23+K/lj4ig71rEO3H978COH40E+GAfLL+BFBkka/JT8STQRbiQAfWH97+WKDjXc6e3wBJ9W5/Cg4l5dHu9rnHw/kaDiXhJ5k4/ur+Z9goIjLjwHjlR/wCZvbwirg5k/SFFfqkDTzdkUS8TDluVBCoN/rSFRjcE71BJj0x5P9accLc7WB8oRyxcXA4TIOY6uHEZGxbOasFguemEVsgUBSUXCxrhIohzwxGyDtwAXbfO54hR8W+ch57vpvbafItxcjija5GDb22+GSEZIkcEHvUEemzkFDNHxfPcSTSPLM7yyyMXkkclmdjzJJ+A5AYAAAAqCfa21XB2bO15VYPRYtFuNLmUzwxyxyx8LKfTiljYDjQPgFXXbddwcHdedHY1Hon1arf2Du1sGBJBxPZS7YjmxyAJAWQEhgQDzBcLZYNb6sAsrR2up49GZsR215gfVlxtDORsHACv2/ZACq299KIjB1jdT1gkMQfMfWAFQ4AJUnBIyOfedqJqRDHRU+FKQSJpwi8WGY7BVUEu7EgKiAZLMzEKAASSR37W0fe/m6eSE6Pp4ScD+kb0rcagw34GweotFO/oW0ZCnGzSmRvtDGB65Am1QTIhQSFoCoNE0AE0Ak0ANQLagU1AtzQaQ0DRQMU0DAaA1NAYNAamg3QA4oESigiTLQcPXdEhuYZrW5jEttcxtDPGftIw7O0Mhw6sN1YAjcUH52eUfydTaRfSafOxkCjrbO4IwLuzYkRyZwB1qY4JlH1XGeTKTuUVSaOrRAnjqYIE8VEjvaJ0ogsrfjt0ZtRkLqZ5AvV2kfIGAEsHlcAemyjg3x28RUron5PY1iOp6mStuDxRRtkyXUhJIJBOWViDgE/pNycKDkrz7ygdLpb6Xjf0Y12ihH1Y1+GWPa3sGAAKFUi6gojk3VtQcm5tazggwyPFIssTtHJGwZJI2KOrDtVlwR3HvGRuCRUH115FfP8A3WJNO6R24v7PCoLjgHWRgbBnVQCpUYw8WcdiR7tRX0bpnk9sr+MXegX0d1E3pi3eVeujx2RyKTxFeRDEFSDlyaITPIxbqr+3YyrsHPFBcr34kA/SDODmQS57CoNa1NdOx0ZxvBNHMv8Au7jht5h6n9KBh3ekhJ7Btmdldm315YiFuEltif8AfoUU+pzxR/8A3B4Z5VBetCnR8MjKw71bI9X2h8aC6WLbCg7EKDuX59330EtIx+z8/wB6gi3MPrHqXI+BNTRBmtx+/wD4V/nVHMuYPYPFvyx949VBVtc1m3gz1s0cZ7iyoT6uI8Z8Mc/Gg4B1uSXe2tpXU/7aQfR4P/qzYcnuCIS2D6qCJLorN/rNwW74LXMaeAedwJmx2hFjRsnDYxjWg/paxL1USLEnPq4l3ON8vnLOc75kdgCSQwFQeYeVTzh9P0lD9JnHWkZS2gIkuJPYCCo5DjJVRyZwBQfDvlg85vUNX4olJs7I5H0eJvSkXOxnkABORzjQhMEhutwpoPLrW05VB1La1oOta21ag61tDVHr/k46YQyx/wBH6j6Vs+BFMThrdvsgtzCA/Vb7OSpyhPCEu90W80O7BXDxSKQrMvFBdQnOY5F5Zx9Zc5UniUkEFg5nSc2jyh7NJI4nQM8MuCIZSTxRxtkl4gMFS2DuRjYUEaCOiOhAlFToU+fnuoPoXzRPJB9JmXW7pM2ts7LpkbDa4ukJV73HbFakNHET9abjbH6NSc2j7FgXJyeZOTUE9BQS4xQNWg3QCTQATQATQATQLY0CyaBTGiNLRTVNAxDQMBoDFAYNAYoDzQaagU4oIkq0EC5joPNvLb5II9asjbFliu4SZdPuTn9DPgAxvzLQTr+jkTfAIYbouGj4Cu7OWOSWC4iaC5t5DDcQP9aKReY/eRhhkcei6EMCQa3KlQZo60RAmjrKvR/J95NIEt/6V1MhbJCeoh2L3cik4HDkZTIOEz6eCW4UUliPP/KV09m1GYySehGuRDAPqRJy8MucDiYjJ2HJVANVRLiCiOXcQUHNubag5dxa0HLuLWs0c2e0qLEvor0uvNOl6+xuZbWUEEtE2zEcuONg0b45DjRsDljei19Z+Tj/AEjsvCtvr1kt5EAF+kQgdYNsFjG3pA9uUeRtyAowK0zj6K6DeUro/quDp2pRxyYBNtO4V0z2EOQ6DcjikC8j3VMHo9pZ3EQxtJGf2CJI2/s7q2xzuDzz400FF0dtJG4ntVR8frIGe3fHd+heNPehJ76sHZtujBH6jUL2DwcQ3anwHXRggep80HVjsL8fV1G2fu62zAPt6uYfAU7CSiaqOVzpTfxR3Skf3ZCDUCpINTPO705fCOG5cj2NMM58eXKpsEafRLw/W1Pg/wCBYRE//eaQfCqIMnQuNv1s99cHt4rjqkP/AIcAhCjwzvTRGitLO2P6KK2hPPZRJLnv45OOYnO+z7e6mjk610tQZZ2PLJeVurX2lvTPtU+6g8C8o/niaPZBkF0LuUcQ6ixxJhh2PKGKpg/WDvHuDsaYPlnykeeZql6GitAunQEn9XiS4YfvSMuEJ3zwKWGdpO+jw1kZ2LuzO7HLu7F3c97MxLMfEkmpROgtag6Vva0HUtratDp29vVHTtoKDqW8NB7X5L+nsE0P9F6p6Vq+FgnY4a2YD0cvzVF+y+/BnhbMZIUOH5QvJpNplx1MhDo68cEq8pY844sb8LA7MuTg8iwIYhw4Y6CdDHViVffI15IZNcvDb5aOwt+FtSuV24UO62kT/wDvM4PYcxR5c7lAy+FfoLYWUcaRxRRrFDCixQxIMJHGgARVHcABXMdWCOgmxLQPQUDQKDRoAJoBagAmgWxoFtQLc0CXNBpTQNVqBoNAxTQMU0BqaAgaAwaAqBUgoEyLQQ5koOdcRUHhfnI+QU6rGL2zVV1a2j4Qp9FdQt1yTbSHkJowWaGU75HASFbKUfFUc3GCeFlYEq8bqUkjdThkkjYBo5FbZkYBlOxAreiPLHUEe5uXKLGXcxozMsZYlFZscTKpPCpbG5AydqDk3ENBzpoaDnT29Bzri3oOdcW1Bzbi1oOdPaVmjny2lQQprKghtZ4IYZBByGGxB7wRyPqNGl+6G+cNrunY+i6nchV5JMwuFI/ZJlDScPIcKuoxsMVdZr2ro5/pHNVj2u7G0u9t3Vmt357kehKTtyBfHiOdPKY9P0b/AEltgf19hfQHb9W6SqD283ckepRsB6Ipguunf6RTQyBm7uoyTyeyc8PLmUg4eZ55FF13ofP90LGRqkYPc9qwx/yn4Cqmol//AKQPRFBxqQfAz+jtHbbuGEfPqAyKGqtrn+kY0hcdXNezbbiO06r3GSKP7xQed9JP9I/GwIt9NuJjnb6VcCNMdv1Gn3/8MeyoPKOkvny63OCLdbWxByMxR9bIN8gh34UyPGI00x4/0m6eahfHN5e3NxnmryER/wD0k4Yh3ZCA1dVxoLHHZWROitKCfBaUHQgtKDo29rWx0oLeg6EFvQdKCCg6EMNB0YYKDrSXLycPG7uVVUUuxbhRdlQZzhVGwUbDsAoJEMdagsfQPoLdapdpYWQxKw457hlLQ2VvnDTzYwM78MURIMrkAEDiZZR+gXk/6B2umWkVjZqVgiyxdzmWeZt5LiZvtSSNk9yjCqFVVA5i3W8dBOjWglqKByigImgCgEmgAmgWTQAxoFk0CmNApjQaU0DVNA1TQGpoGg0BqaA6AloDU0GmFAlxQRpEoIU0dBz7iPu2I5YoPnjzjfN2N8X1LTUA1FQDdWowqaiij6yclS8RdlflMqhG3CsKPj+OYOMgEEEhlZSroynDI6NhkdSMMrAEHatQR5oqCFNDQQZ4KDnzQ0ECe2oOdLb0EGa2oIE1rUEGa0pghS2dMESS0pi6iyWdZNR3sqGktY0C/oNFa+g/OKujPoPz8imglsqimrY0SnpZUTUiO0oiVFZ0EyGzqwTobWrgnQWtMHQht6onQW1B0ILegnwwUHQghoJ0UdBNhioO90N6H3Wo3SWVjH1k7jid2z1NrFyM9y4BCIPsr9aRsKuSaaPvXyU+S210i0Fpa5dmIe6umGJbybG8j7nhQco4gSqLjG5YnOi+W8VQdCFKCZGtA+NaBwoBJoBJoAY0AE0AMaBbGgWxoEsaBbmgFDQOU0DFNAwGgYpoGKaAwaAwaAgaAs0AOtBHkWgjSpQQJoqDnXEJ5jn2Gg8D84Dzb11Fmv8AThHDqeMzQkhINSUAjDnYRXY24bgghwAj59Fko+O5EYM8ciPFNExSaCVSksLjmkiHcHuPIjcEg5rUEeaKghSw0EGe3oIM0FBCmtqCDNbUEKW2oIktrQQ5bSgiSWlBGksqmBD2VTAprOmADZ0xdAbTw+fdUNbFnQ0Qs6ppi2VMNOSyqIkJZ1cEqK0pglxWlUS4rWqJsVtQTYbagmw29BOhgoJ0MFBNihoJsUVBZvJ75O7zVrk2tioyu9zdyKTbWaH7Up2Dykfq7dWDvzPCoZwH3X5MfJjaaTbfRbNWPEQ9xcybz3cuMGSVu7sSMYRBsBuc5ovVtDUE+GOgnRrQSEWgeooMJoBJoBJoAJoAJomlsaKW1ApjQLY0C2NAINA1WoGK1AxTQMBoGKaBgoDBoCFAWaDeKBTrQR3SgizRUECaKg51xBQeUeWryC22sqJOIWmoxrww3ypxCRRnhhvIwV6+LfY5Dx81bGVaj4s6WdFrqwuDaX0Jt7gDK78UM6f7y2lwFlQ+GHTkyqdq0OLLDQRJYqCFNBRNQ5YKKhy21BEltqCJLbUEV7WgjPa0CHtKBL2dAk2dAJsvCoBNnUwYLOmA1s6sBrZ1Q1bOoHpa1RIjtqCTHa0EqK1oJkVtQS4regmRW9BNigoJccVBLRAASTjHMnYD21B6T5G/ITd6yRLlrPTAfTvSv6S4xzjsUbHHnkbkgxJzAkKkU0fbPQ/oha2FtHZ2UK29vHyQbtI+2ZZpD6Usr4y0jksdt9hjIs1vBQT4Y6CbGlBJjSgkotAZNAJNABNAJNABNAtmogCaKUzUCyaBTNQLY0GlNGYYtGjFNAxTQNBoGA0BqaBgNAQNAYNBug2RQIkWgjOtBFmhoIMsNBzri3oKv046DWmo25tb6BbiHPEudpYXwQJbeUenDKAThkIONuRIIfHXlZ83S+0rinh49Q04bmeNc3VsvddwrkuoGf6xCpXG7LHzq6PKEZXAZCGB3BBBB9RFaCZYqJiJJBRUWS3oIj21BGktqCPJa0EZ7WgS9rQJa1oANt4UAG18KDX0XwoM+i+FBsWtAYtqBq21A5LWgelpQSUtaCRHbUEqKCglRQUEuKGglRw0Em2iZpI4Yo5J55TwxQQoZJZD+6i5OBzLnCqMkkYqUfTHkl80cDgudcCyPsyaUjB4E7R9OlUlblhneBP0IxuZc7TR9PRR54RgKqgKqqAqIoGAqqMBVHYAB2VBPt4KCfDFQTYo8UEmNKCSiUDKDRNAJNABagAmgBmoAJoFsaBTGgWxoFmgW5oAQ0DQaBiNQNVqA1NA0GgNWoGKaAgaAwaAgaAhQaYUCHjoI7pQRZoqCDNDQQJ7eghYKnIOD87HvHhQeH+VTzW7G+Z7i0I0y9YlmaNM2dw53JuLZeEI7HnNCUfJJIk2FB8q9POgd9pcnV6jbNAGOIrlCJbSfkQY51yFJz+rmEUmx9HAzV0V94fdWhHkhoI0lvQR3tqJqM9vRSTb0Cnt/CgUbWgWbSgE2tBr6JQ1gtKAha0BraUBrbUDkt6BqW1A9LegkR21BJjgoJKRUZwc8qIOJ2Cjlv2nsAHMk8sDejT1byaebjqepcMsinTLI4PX3Cf1mZef9XtCQ4yNhJcBFGeILJgipo+sfJp5JrDSUK2MHDI4AmvJcSXk+P8AeTYBVc5IijCRqScKMmoLvBb1B0YIKCdFDQTYo6CSiUElEoGg0GqAaAWNABNADNQLZqAC1AstQKY0C2NADGgU7UYArUbNRqBlAxWoGg0BqaBgNAatQMBoDBoCBoCBoDoAZaBLrQRpY6CLLFQRJYaCDNb0EGa3oIF7ZB0aJ0SSJwRJFIqyROp5h0YFWB7iDQeAdPPNBs5uKTTJm02Y7/R3Bm09j3CPIlts8sxPwKDkRnGCHzz078l2paZk31m6wjld2/8AWLRh2MXjBeEdhE8cWD37Z0KnGyuAykMp5FSCPeKJQPBVQhrei9yXtqKU1rQLa2oFm2oB+jUGfR6JjPo9FbFvQEttQMW2oGLbUDktqB629EOSGhGNOoYJuZHOEjRWeVydgEjQM7EnbYc6K9b6DebJq17wvMiaXbnB6y7HHdOuxzFaIwKEjl9IaPB34TggzR9IeTXzf9M0wrLFC11dr/2294JZlJGD1CcIitx2Dq1VuHALNg1keniMscsSSe070EyG3oJ8NvQTIoaCXFHQSY46CQiUDQKDeaASaASaACaAC1AtmoBJoFMaBbNQLZqACaBTNQJdqJQK1FOVqBytQGDQMU0DFagYpoDBoDVqBgNAYNAQNAQNBug0woEulBHkjoI0kVBFkhoIcttQQ5beghzWtBG4GXPCSM7Edh8CORHrBoPLum/m56PfFnktPos7ZJutPYWspb9p1CtBKfGSJvuwHi/SjzPL2PJsL23u07IrtTa3HqE0YeCQnxjix452ujyTpP5PtSsQTe6bd26jnIIxcQYH2uvtjNGF8WK89wDtWhWbW+ik+o6N4BgT7ufwoHNBRmgMFABgouhNvQ1r6N4UTWfRvCi62LehoxBRNEtvQMENFwiK/jLCNCZZCcLHCrSyMe4JGHYnwANFei9GfIHrd3gx6e1vGRnr7+RLVN+6Il7ltt/1IHZnO1Z0et9FfM0iHC2o6hJNuCYNPT6NEf3XuJesmdewmMQsRyK00e5dCPJ1Y6cpWws4LUkYaRE4riTnvJcPxSudzzbG9QWmO3ycnc95oJcVtQTYbegmw29BKjioJUcdBJjjoHolA0UGZoNE0AE0Ak0AMaACaACaBbNQLZqBbNQLJoFu1AlmoFO1ACtQORqByNQNVqAlNAwNQMVqBitQGDQMVqAwaAgaAwaAgaDdAJFAp0oEvHQRpI6CNJFQR5YKCJLbUESW3oI0ltQRJbOgWisv1WK+o4/l99BVulHk30+93vNPs7k/tywJ1gzzKyqFkVvEHNB5zrPmk6LLnqkvrInttLssB4BLpZ48f2aCo6h5mK/9n1iZe76VZxS49ZgaDJ8cCrort35n2pr+r1DS5R/8RLu3Y+wLcD/FTRy5vNU1schpsnit4653/ftx2b1dEdvNf10f9ns28Vv0x8YwfhTRtPNc10/7GxX+K/XP+GI00TLfzTdab60mlxfx3M7/AAjtjTR2bHzOb0/rtVsY+8QWlxN7mkliH+A1NFl0/wAzG02M+p6jJ3rbx2tsp8MvFO/CfAqfGmi66N5sWhQ4J0/6Sw+1ezzXIJ/4bOIjntBTHhUHpeh6PHbJwW0MNqmMcFvFHCuO7CKNh66CeLUnc5Pr3oJMVpQSY7aglx21BLitqCVHBQSY46CQkdBISOgeFoGAUGFqASaDRNABNADGgAtQATQLZqBbNQAWoFk0C2agUzUCXagS7UTQI1FOVqBqNQOVqBqmgNTQMDUBqaBitQGDQMVqAlagPNAQNAQNAQNAJFADLQJeOgQ8VAh4aCPJDQR5LegjyW1BGktqBD21Ah7agU1pQKayoFmyoA+g+Hz7qATp/h8+6g2LD5+RQELHwoDFjQMWzoHLa0DUtqB6W1BIjtqCTHa0ElIaB6RUEiOGgekVA5Y6BoWgPFBhNBomgEmgBjQCTQAxoAJoFs1AtmoAZqBZNADNQKdqBLNQJdqBLvRktGo0er0DlagarUDlagYpoDVqBgNAatQGGoGA0Bg0Bg0BA0BA0BBqAqDRFALJQLZKBTxUCXhoEvBQIaGgS8FAl7agU1tQKa1oFG0oANrQa+i0Gvo3z8igz6N8/IoN/RaAhaUBi0oGpa0DltqBy29A1IaByQ0D1hoGpFQPWKgYFoGBaAgaDKASaASaASaACaACaAC1ADGgWWoALUCyaAGagUzUCnegSzUCXegS70ZLVqNHI9A9WoGq1A5WoGK1A1WoCDUDFagMGgYrUBhqAw1AQagMGgIGgJTQFmg3QCaAStAtkoFtHQLaKgU0NApoKBZgoFm3oAMFAJtqATbUGuooN/R6DBb0BiCgIW9AxYKA1goGrBQNWGgYsdA1Y6BgWgMLQbFBvNBhNAJNAOaAWNABagAmgEtQLY0AE0C2agDNADNQKZqBTNQKdqBLNQJZqBLNRmlo9DTlajRyNRKcrUNOVqKYr0DVagaGoCBoGK1AatQGGoDV6A80BBqAw1AQNBsNQHmgzNBvFBoigEpQCUoFlKADHQCYqADDQCYaATBQD1FBn0egz6PQbFvQbENAYhoCENAQioDEdAYjoGBaDfDQEKDdBhagEmg0WoAJoBLUAFqASaAC9ABagAmgBmoFk0As1AtmoEs1ApmoFM9EIZ6GlM9FJd6MlI9DD0ejRytRKaj0MOVqKar0DVagarUDFagIGgNWoGA0Bg0BK1AYagMNQEGoCDUBZoNhqDYNAYNBqgzFAJWg1w0AlaDXV0A9TQYY6AeroM6ugzq6DfBQb6ug2IqDYjoC4aAgKDYFBvFBmaDCaAeKg1xUA8VAJagEtQCWoBLUC2agEmgBjQAXoAoAZ6BbPQKZqBTNQJZqBLNRC2ahhEj0UiR6MEo9G0hHoHq9A1GoHK9A1GoGq9A1WoGq1AxWoDBoCDUDFagINQGDQEGoDBoCDUBBqAuKg2GoCBoMBoCzQbzQYDQZig1w0GcFBrhoNcNBnDQZw0GcNBvhoN8NBmKDdBlBhNBrNBrioBLUGs0AlqDRegAmgEtQCWoALUAFqAS1Asmg0TQLZ6BTNQLZqBTPQKZ6BLPQKZqBTvQIkegjSPRgmOSgkJJQSEejUPV6KYrUDVejBytRs5WoGK9AxXoGq9AYagIGgINQMDUBBqAg1AQagMNQb46DYagLioCDUG+Kg2DQbzQb4qDOKgzNBvNBmaDKDM0GZoNZoMzQYTQZxUGiaDXFQaLUA8VBotQCWoNZoBLUAlqAeKgEtQAWoALUAE0AlqBbPQLZ6BbPQKZ6BTPQJZ6BbPQJd6BDvQR3kowjyPQLQ0WJCGiw9WoVIQ0Q5DRaapopqmgctAamgapoGIaBgNA1TRK3RRKaAwaAg1AQahRUBq1AQNBsUBCgzNAQNBuiRotRWw1AVErKJrKLGUVlBlE1lCVomis4qDWaJWUQPFRprNBomg1mg0aIAmjQaIEmgA0IEmgAmg1QAxoAY0CmNAtjQLY0CWNAtjRkk0WlOaEJkahUdzRKQ5oiOxo1X//Z;" parent="1" vertex="1">
          <mxGeometry x="690" y="120" width="72" height="71.44" as="geometry" />
        </mxCell>
        <mxCell id="LD7MNeFPw9spvS_a8iKk-6" value="" style="shape=image;verticalLabelPosition=bottom;labelBackgroundColor=#ffffff;verticalAlign=top;aspect=fixed;imageAspect=0;image=data:image/jpeg,/9j/4AAQSkZJRgABAQAAAQABAAD/2wCEAAMCAggICAgICAgICAgICAgICAgICAgICAgICAgICAgICAgICAgICAgICAgICAoICAgICQkJCAgLDQoIDQgICQgBAwQEBgUGBwUGBwgHBwcICAgICAgICAgICAgICAgICAgICAgICAgICAgICAgICAgICAgICAgICAgICAgICAgICP/AABEIAfwCAAMBEQACEQEDEQH/xAAdAAACAgMBAQEAAAAAAAAAAAACAwQGAAEFBwgJ/8QAVhAAAgEDAgIFCAYGBgcFBwQDAQIDAAQRBSESMQYTQVFhBwgicYGRofAUMkKxwdEjM1JicuEVJIKSovEJNENTc7LCRHSD0uIlVGNkk6OzVYSU8hZ1lf/EABsBAQEBAQEBAQEAAAAAAAAAAAABAgMGBwUE/8QAKxEBAQEAAQMDAwMEAwEAAAAAAAERAgMhMQQSUQZBYQVxwVKBkaEiQqIT/9oADAMBAAIRAxEAPwD6wRKMJCR0D0SjUPRKKaq0DUSgcq0DVSgYqUDVSgYqUDAtAQFAQSgMLQGFoCC0BBaAgtAQWgLhoNgUBBaDYWg3w0G8UGcNBvFBmKDfDQbx4UGsUG8UGY8KDXDQaxQZw0GuGgzFBrhoNcNBorQBw0GuGgErQaK0AlaACtAJWgErQAVoANALLQKZKBbJQLZKBbJQKdKBDLQLZaBLpRKS6UZR5EoI7x0EqNKCQiUah6JRTQtA1EoHKlA1VoGqtAxVoGqlAYFAQWgMLQGooDC0BhaAuGg2BQEFoCC0BBaAgtBvhoN8NBsLQZig3w0GYoN4oMxQZig3w0GcNBrFBmKDKDWKDOGg1w0GFaAcUGcNAJWg0VoBK0AlaASKAStABWgErQARQAVoAIoBK0AMlApkoFstAploEslAp1olKK0CXSgjvHRlHkjoJSJRrEhEopqrQORKBqrQOVaBqrQNVKBipQEBQGq0DAtAQWgNVoDC0BcNAQWgMLQEFoN4oCC0G8UGwKDYFBvFBnDQbxQbFBmKDMUGwtBnBQZwUGitBmKDKDDQaxQa4aDWKDMUGiKDRWgHhoNcNAJWgErQCVoBIoAK0AMtAJWgAigWUoBIoFslAtkoFMtAploFMtEwlloeCmWhpLpQxHkSjKTGlGzlWgciUDVWgcq0DUWgaq0DVWgICgNVoGBaAwtAYWgICgNVoDC0G8UBgUGwKAgtBug2BQbxQbxQb4aDOGg3igygygygygygygygygygyg1igzhoMK0A4oMIoNEUA4oNEUGiKASKAStAJWgBloBIoAK0AFaBZFADLQARQAy0C2WgUyUCWWgUy0SkslEwplo0RIlGT0WjRyLQOVaBypQNVaBqrQNVaAgKBirQMAoDVaAwtAYWgILQGBQEBQEBQFw0GwKDfDQbxQFw0G8UGUGUGUGUGUGYoN8NBnDQZw0GcNBnDQZw0GsUGUGUGUGUGUGiKDXDQaoNcNAJFBrFAJFAJFALLQCVoAK0AstAsrQARQLZKADQAy0CmWgU60CWWgUyUCHSgUyUZORKNHKtA5VoHKlA1EoGqtAQFA1VoDVaA1SgYBQGFoDAoCAoCAoCC0BUGwKAsUG8UG6DKDKDKDfDQb4aDAKDdBlBmKDMUGYoMxQZigygygyg1igzhoNYoNUGUGUGUGiKASKDRFANAJFBoigEigBloAIoAIoAZaBbCgWy0AYoAZaBTLQJZaBTrQJdKBDrQPRaByrQORaByrQNUUBgUDFWgMCgYq0DAKAgtAYWgMCgICgLFAQWg2BQbC0BUGUGZoN4oN4oN0GCg2FoM4aDeKDBQZQZmgzioMzQZmgygwigzhoNcNBrFBlBqgwigHFBlBlBlAJFBoigEig1igHFAJFAsrQAVoBIoFMtADLQLZaADQAy0CWWgUy0CXWgS60SnqtFNVaByrQNVaAwKBgFAwCgYq0BgUDFFAYFAQFAYFAQFAQFBsCgKgygyg2BQbAoN0GwtBvFBlA6GzZuSkjvxt7ztVVUulflW0mwJF7qlhbOOcTXMbzf/RjLSfCojzHV/PZ0CPIg/pG/I5G3sZIYyc8hJedQD38QBUjkd6uClap5+jZxbaA7KRs95qaQsD4xW9vcgj/xRVwV2+8+DWWH6Kw0iD/ifSrn3jjhB+FPamuJP54fSVt+u0mI/wDw9Mc//lvXPjV9qagjzruk3/6jbf8A/Ltvzp7TRx+dl0mHO/s38H0uAj1+hIhyPXjwNPaa6Vr55vSJfrf0NKO3i0+eNj/aS+IH93n7qe0137Tz6dSXHW6Rp0/f1V3c2xPqLRXAHqIO9T2rq0aN5+FqcfS9Fv7cnmbW5tr1AO/0/o0pPh1WfVUw1etB877o5OQrX8lm5+xf2dzbgf8AjlGtz6hLmplV6p0e1u3vE6yzurW8T9u1uIpx6j1bEg+B3HhQTpIiNiCD4gj76AKDXDQZw0GqDWKDRFBqgyg1ig0RQCVoBIoBIoBIoAZaACtAsigBloFsKBbLQARQLZaBTrQJZaBLLRKci0U5VoHItAYFAxVoDVaBqrQGBQGq0DAKAwKAgKAsUBAUBAUG6DKDYFBsCg2BQbC0G6BsNuzZIGw3J5KB3ljsMeNB5N0886TQtPZomvDfXK5/qumobpgw+zJOuLaE52xJKp3OxwcWQeFdK/Pf1ObK6fYWmnIdhNdMb+6x+0I16q3ift4S06j96r7U1450r6e6nqBJv9Uv7kHnD9Ie3tfV9FtjFCcdhdHIHbzzfamq3Y6PFF+rijT+FFB9pAyT4netIl5orKqMoMqDKDKDKDKDKDDV1UJdGiD9Yi9XL2SwloZR6pYij/4qiPR+iPnA6/YALBqstxGvKDU1/pBCM5wZZGW6A7NrjIHLbAqWNa9o6IefYmy6rpbxcgbrTZPpEfiXtJQkyDtxG85PsGc2K996BeVHTNVXOm38F0QMtCGMV0g/+JazBJ1x+8lZFoeMjYgg+O1ANBrhoNUGiKAcUGUGUAkUGiKATQCRQARQARQLIoAIoFsKBbLQLYUAYoFutAlloEutGdPRaNGqtAygYooGKtAxVoGYoDUUDAKAwKAgKAgKAxQbAoN0GUGwKAqDYWg3QDdzJHG80skcMMYLSTTOscSKOZZ3IUAUHzp5QvPesoeKLR7dtUlBK/S5uK205DyJQsomuwG5dUqxuNxLjBNkHzT5QPKfqmrE/wBJX0skRz/Urcta2AB+ybeNszDGwNw8pAJ5cTZ1iarNtaqg4UVUUclVQo9wArSGURlBhNBlBlBlBlBfvIp5Jm1q9NmtwtsRA83WNGZRhGjXh4Q8e54+fF2U/KvPoZMgHvAPvGaqDqDKDKDM0GUGUGZoqNcacjMrkYkQ5SVCUljP7UcqcMiHxVhUw1695PfOq1vTgscki6vart1OoM30tR/8LUAC5P8A3lJyf2lySWGvqDyWecvpGrMsMcrWV8wH9QvgInYnst5/1FyMggCOQvjBZF4lzzaepzQlThhg9x+eVABFAJFBlAJFBqgyg0RQCRQCRQCwoAIoAZaBbCgAigWy0C2FAthQLIoFutAl1oyai0aNAoGKtAxRQMUUDQKA1WgYooDWgICgMCg3igPFBlBgFAQoN0BAUDIICxwoyfnc9woPB/K3531hp7PbWCrqt+hKvwNw2Fs2D+vuQCJnU84bfjbOQzRmrIPkXp/05v8AV5RLql01zwkNHbKDFYQEcjDaBinEP97KZJTtltsVuRNcgVWWUGUGUGUHuHmlaTaXV9c2V1BDKbqxnWBpY0dopVG7QlweCQxs54lwfQ57VKrx+26OztP9FSN5LgSND1UalnaRCwZVUbndTVRJ6JdEZ726is4FUzzMyIrsI14lRnYMzbDZG58zgczQSvJ50Hk1G+gsI2SKWcyKrSZ4VaOGSUhuEE5PVlBt9YjOBkgD8l/Qk6neQ2iyiEzJO4cp1mOpt5Z+HgDoSX6vh+sMZzg4wZo9V8yXUo49YZ5HWNTZSrxOwUcUk1sqLk4GWYhQO0nFc+p1OPHjOXK5Nyb8uvT4c+pc4cbyud5O+Tj315N5LOgp1CQwdaIers57kuYzJtbQmQpw8ce744c8Xo88Nyrpe35c610F6FvfvMiOkfUWlxeOz8XD1duoZl9EE5bIAJGM86qI3RjonNeGcQBT9GtZrybiYIFgtwplbJ5kcQwvM5oIWnaRLN1nVRvJ1UTzy8Clurhj4eOV8fVjTiXiY7DIoPXvNJ6HQ3erFrmOOW1tLS4uJllRZIjssSqyMCp/WM4BBH6M+FZqx5FrV6ss00iIsaSSySJGgCpGjuWVEUbKqKQqgcgK0IdEZQZQZQIvbFJFKyIrqexhkesdx8RvnfsFMHq3ks85vVtJCwux1WwXb6LeSE3MS91petlhwjlFcCRMYVTHzGbF19ieSvyyabrUbNYTEzRgGexnXqry3z+1Ef1iZOOuhMkROwckEDDS5Gg1w0GqDRFANBlBmKACKASKASKACKBbCgArQAy0CmWgWy0C2WgBhQJdaBqCgMCgaooGKKBqrQGFoGKKAwKAwKAgKAxQEBQZQYBQFQbAoCFBwunvT2y0q2N5qNwLeDPCgxxTTyYyIreJQXlkbsAUgD0iQoYgPifywectqGshoIw+maWdhaxuRd3K7jN9cRt9Vgd7aFuDsZ5dsbkSvK7a2VFCooRVGAqgAAdwA2rSGURJ07TZJpFihjeWRzwpHGrO7E9iqoJPupQmeEqzIwKsrMrKQQysp4WUg7gqQQQeRFAGaBy2h4wjegSVBLgqFD4wx2zw4IbIB233oLJ0h6G/0dqX0O+wyQTwicwsQJIG4HZ4nK5AeJ8qxXIJG22KC9aZaDQulMSgkQwX6iNiST9CuxwRsWO5xbTjiP2sN31n7Kn+VG3/AKJ6WNMNkGoW99/4dxIss3sy0ygdgGOw1Z4HLlh/o3pZw/VWHWVx4Qzzgqf/AKMwJx+VPsG9Cbf6J0tij5CLWZofUrzSRD2FXx6qfYjXkFtBB0ptYjyjvb6D2dRdw9nfnAPZnO2DhWnmPRW+aESEHDiIY/ijkjkHLsyma8t9RdX2em48Z2t6nGz+12ve/RfQnU9d1OVks49DnL+9447Hmu9Ic3OqH/daJqh590Srz7Ofxr0nC+6S/MjwvU4ezly43zLZ/tYPImOCDXp+xNBuYM9z3U1vEuD34DD29ldfhgzyTr1Wm9IrrkRYQ2Sn/vtygkX2rF2fhTUovJr+g0fX7rk0kVnpsZ5E/SZuOZQf+HGCw7qVF18jH9S6Na/qJ9F7kLp8Ddo416tiuO3NzkdxjBqfceYdHeh0B0jUNQnD8Uc9rZ2PCxVTO/FLPxDB4gluM4ONyMEVpHHsuhMr2FxqHEiQQTwWwDcXHNNMGYrFhSpMSLxvxMo4SCMnag4PUnHFwnhzw8WDw8WM8PFyzjfGc4oAoJum6LNMJDDFJKIU6yUxoz9XHkLxvwg8KgnBY7D2GmiFVGVAtYyskc8byQXELcUNzA5jnhblmORcMuQSCOTAkEEEimLH1F5HvPP3S16QcKHZYtYiThiY7BV1CFc9U57bmICHfLLCAS3OxX1SU2VgVZHUMjqwZHUjIZGXIZSNwR2VnFCRVAmg0RQDQZQYRQAaAcUAEUAEUAFaBZFADCgURQLYUCyKBbigMUDFWgaBQMRaBgFAxRQMAoCAoDAoCxQGBQZQbAoN0GwKAxQeVeXbzirXQ1EAQXmqyJxQ2KthYlOeG4vXH6mHPJB+ll5KuOJkuD4c6U9JLvULpr7UZzdXbAqGI4YoEOD1NrFkiCEYGwJdyOJ2diTW5Gag1UZQZQd/oF01l068t72A+nbyB+HOBInKSJv3ZYyyHu4s8wKYPVvOt6Fxi4g1e0GbLV4xOpA2S44FMin9kygiTB34xN+zgZnw1ii9OuhEMdjpl/aGRoLuForjjYM0N/btwzplVXhSRSJIlxngDHJ51pK73lkP06y0zWB6Uk0R06/P/wA5ZKFjkb964t8P3YTGBQD5WP65p2j6p9Z2hbS7xu36RY/qHc9rzW7hid8hBnGAKLgPK+30mw0TUlJLvZnT7hu36RprhEdj+3JE6tk/WC5AGKmfYxcfOxP0u30LV153unLFKR2SxBZeEnvV5pRnt4D3b5nwYp3nDXhe8sb9f+3aXp17kdkwQxSLn9pHgGfEitT4Suj5X9RSHpOLtWURvdadfZBHCFdLaSTJztuHJ7s1YE6f0ntrfpYbszx/RF1aaXr1YNH1MkknphlyGXhfcjPKi68zlZesuShBTim4GHIrxNwkDuK4x4V4T6n5/wDHocPnnd/bOz6v9A9L/n6vqfHGcZ/fy4HkB6UQ20+siVwhm0m+tYQc+nNO0IVFAzuyByM4Axnsr1no+Xu6PTvzxmvnf6pw/wDn6v1HD+nnc/bXp/QLWoYdH1xWlRZrlNOhijLKJJFFy0khRSeJggA4iNgMb8q/tr8y3ukadcdV0auiGHFeazbwlcjiMNrayT8WOeOtdRvtkUiafrmIOjNgnJtQ1S7vOXNLOIWYwf2Q7tt358a0Ln5XR9B6L6Dp/KS7eTUJR2kHikUNjsX6VGo7xGO6p91xT/KmfomlaJp3J2hm1W5He94+LYHu6u2THjxZ25UlMF5W/wCp6dpGlZw6wNqd4O03F7vCjjsMNuAuOeG9VJ3QXlSb6Bpml6SDiR0Oq347evuQBaxN3GC3B4lbJy6nbtDgeUHoTDY2umBi/wBPuoHvLlCw6uK3lI+hpw8PEJGjDu5LDGcEbrgPW1z0e6M5zwanr+MHcPDZBc+BUiGTvBWW5HPqzUnerj5qArSMojKDTLkYIyD2UV6H5FPL9e6CeqVWvdKY5l08t+kgySWl052IETdpt2PUyHOOrZi5mGvuzoZ0ztNStY72wnW4tZMgMAVeOQfWimjYBopUOzIyg8jyZSebTr0A4oNEUA0GUGiKASKADQCRQARQLIoAIoFEUC2FAp1oFsKA0FA1RQMUUDQKBgFAaigYBQGBQEBQEBQboMAoCoNgUDFUnYbk7AUHgPnF+dCNNZ9O0sxy6rgC4uGAkg0wMM4I+rNeFTlITlE2ZwRhHsmj4yjhPE8ju8s0rmSaaVi8s0jfWkkc7sx8eQ2HKukZMqoyoMoOxo/RG4uIbqeGPjis41luCGXKRu3CG4CeNlByWKghFBJI2yFw6BdErfUNPvoI48apa/16BgzE3dpGuLi2CE8PWRfrYwi8UhON8Gpar0fyCXi6xpN90dmZetRGvdLZvsyqS7JnsAlYEgbmOab9mpe11Ypvkhga6h1LQJgVluA1xZI+AYtTseLMXcpuI1eF/wCDAwTu/JSfIsfplvqeivnju4fpVmrbFdQsQ0gQZ+q08QeJiexAMjO91I4/QbpRAdL1bT7qQRdYsF5ZFgxxeW0nC8Q4VYhriFurOcAcJOVxmquuLbdPgNKm0x4uLivYr2CXix1LiIxTDhweLrU4RkEYweeQAUnVfKddzWFvpsjIbW1kaWFeAdYHbrOcnMqBI4CjAAxzwKkncV671eRxGryO6xLwRKzFhGmS3CgJIReIk4XbJqpUQSUTGuuosjoWEvoP/C3/AC184+peW+o6XT+OM5f+rP4fbfoPhno/UdX+rqcuP+OPGvJ9Om4b1v3uE+9APvFes/SOXu9Nx/Hb/D5t9RdP2ev6t/qkv9+T0hJuXqr9ueI81jYl7aGJdzqsjokbyO0cQcRIzMVjEjcTiNScIHb0mCgZbc70XFk6c+U651JrZrxlcW0KW8axqIh1KtnGF2DEbcQHYNtsUV3tY6ZW+q63Hc3XDaWUtxao6sS6wWkCxRmPKJneOMqCExxvkgDOJia7mjyLrvSOW4lPDadfLeTk/VTTrEAhWzsB1EccJ5AF/VSdkJ6NL/T2vS3NyeG16yW/uyR6MVhajj4D3ARLHb+ts7Uo7Pk80V+k3SGSedcW3Wm6uAdljtIWCwW57uJVjhPLK9Ywxw7S9gnyha1L0m6QCG3bEBk+jWx5JFZw8RluCOQDKHn7yCq9gxfEaUjphp9vdam1vpEDdS0qWtqoZnacriLryWO30hwZfsqqsMhMNTWVZ1nSZLeaWCUBZYZHikAZXAeNijgMhZWwwIypIqoh0GUGUHc8n3lCvdHuvpmnuodsC5tZCfot7GPsTKM8MgBPVzqOOMn7SllMsa19+eSryrWWtWv0uyLKUIS6tJcfSLOU7mOVVJBU7tHKpKSLuDsQMWYq24qASKDRFANBlAJFAJFAJFADCgBhQLYUC2FAphQLYUCiKBiigYtA1RQMUUDVFAaigJRQGtASigKgzFAQoCAoCVSdhuT2UHzr5zfnLtYtJpOlSD+kSgF5erhl02Nwf0UR3DX7rvgjEKMGOSVFWQfHllZLGvCueZYkkszuxyzux3Z2O7MSSTXRnT6Is3RXybXt9FdT2sDSx2cfWTspGVU/ZVc8Tvwhn4VB9FG7cAlVy2gZ2VUBZmIVVUFmZmOFVQNySTgAczQWfoXZ2sV+sOrRTJAGeC4ALRS2zsDGJWGM/wBXfDshG4B2bHCQsNu9z0b1ciQLMiApKowYr/T7gDPDn0WSaLcdiSrg54DQH0y05tD1O2vtPcvayFL/AE2Uk4kt2I44HxvlOJreVfrcJBOC4ADo9OrkaXqNjrmmDFpeH6bbL2RyBsX1g+NhwOzxlRySQAfVzWfLUN84HpLZrq1tq2lXEbPcLBfPGhy1tdoVYiXGytJhS8eS3GJc4DrmyJXmHSfpq099PfQr9DeaZ5wsDuvVPJkuY3yHBZizEjh3YgYG1XEVx7jOSTkk5JJySTz3oFGejRZnpoBp6aA+kUGvpNDXStJ/0beKv9x/Kvlv67y93rL+Mk/bz/L739JcJw/TONn/AH5c+X8fw8ovJMXcbftRj3gsPuxXr/0TlvRvH45V83+qeGeqnP7XhO/5j0OC52HqH3V6OeHi5exgnoo1uKA1noGLPRlMs9WePj4HdOsRo34GZeONvrI/CRxI3arZB7QaCx9HvKBJbWV9aRooN/1CSz5PWLDCzO0KjdeCViOM7HC43yCso9W0fpxaaX0ZkitbiOTUtYlaO6EZ/SW1tHlTG42Zf0blVOMM1xIylgmaZ3acizb+h9GL/V1DXY+CP9q20kMON+9Wv29EZyDEvFkFTkG9Bv8A2Npras2Bf3yyW2kKecMWOC61DHMYUmGFtssxOCr5pWXF6AdCLf6HdarqIdrSLit7WFXKSX1/Kp4VV/rdXb5M0rjuH1sSIaKFa6TK8ckqxu8cHB10ioSkXWNwRmRgCE429FeIjJ2pomdE+is99cxWlrGZJ5m4UQbcslmYnZURQWZjsADQI1/QZrWeW3nQxzQuY5EJBKsOzIJBHIgg4III50RAoOj0R6W3em3ceoWEgjuowUYOCYbmEkF7a5UYLxPgEEENGyqykEVLB+gfkj8rVrrdn9LtQ0bxsI7yzkIM1nPjJR8fWjcenHKPRdCD6JDKvO9mlxNFCaDRFANBlAJFABoBagAigWwoFkUAOKBLCgWy0BqKBqLQNAoGKtAwCgNRQGBQFQFQZQEtBsCgOg8O85/zgzpMY0+xcf0vcx8ZfAYabbPkfSHBOPpEmGEEZHMF2HCoElk1HxJZ2gQYBJJZmdmJZ3djxPI7H0md2JZmbck10hp1GWUFy8k/lTuNHvEu7c5GOCeEnCTwkgtG3cdso+MowB3BZWZrUemeXbyYQSQp0g0Uk2FwwaeOP0XsbjPpEqv6tes2YA/opCpUlHUrmX7FcjpCg1+ya+jAOsWEQOoxKAGv7OMBUv41G7TQAIkygDI32/RK2kiP0QnGt6eNLcg6lYRyS6TIcZuYBl5tOZjzcAdZb55cPDlFU5NK5oPTiBtLu9Lv+NepL3WmSBCWgvM4ltmHNYbrJLZGEcMxBPCKMKW/TG4+iCxMmbUTm5WIqp4ZinVllYqXXK81DBSdyCd6z92o4bT1pSWnoEtcUCjcZ27TyHf4DxoLJ0f8m2oXR/QWsrDvKkAbZ8Ty35Gp2Hpeg+aPqMuOtkhgzzBYuRt3KCf8NTYj0PRvMaXYy3Mrd4ROFf7JfqyR7qWmLVZeZTpqj9Kbhz4SqnwBc1NInDzRtKAxwzYxj9cM4PPfq6/L6n6d0OtzvU5cOGvQen/XPWdDpcfT9PqXjx47/twr7zKdAZlZ4rjK5xwz4xnxCA+zev6+j0OHRmcJJvw/M9V6zq+qsvVu59/lCu/M+0s7Rz3EYAwM+n8eIf8AKa/p1/Fiqar5mv8A7vqEZO/ozZU+oYU5/tEVdMUTpD5rmr2+SsSzqO2Jsnv+qAdsdpIHvq7FeaatoVxbkrPDJERz4lOB6yMge/3VRBS6oHLcUDknoGrNQXO36Ui/v7eXVrh+pJginlSNeJLeFQoSOOJVVcqOEcK4BYvgnOTC3yNN0k1bCYtrSJOFM7Q6dpVqDgtzUFI8duGmfGQCcG2umGsvrV9aadpkTC0gH0TTbc7foxvJdTHsebhM00h5KozkqSZ47iZ5Rtejjji6P6VmaGOVfpU0Yy2p6jkKSuMloImASFBsSOLDcKtU/I9LuJouh+nmNCknSHUIgXYYdbGBuQHeAVPDsetmBY8SRKKnlK+XZ52dmd2LOxLOzElmZjlmYnckk5JO5NdIyCoMoOv0I6c3elXkeo2JHXoOCaBziG9tyctbTbHGSAY5QC0UmCMgsGlmj9DvJ75QLXVrKLULJiYZSVeN8CW2nTaS2mUE8MkZ7MkMpVlLKysebawUA4oBIoNUGEUAEUAkUAEUAEUCmWgBhQKIoFMKA1FA5RQMUUDQKAgKAwKAwKA8UGUG1FBugPFB595dfLPHoVj9I4RNe3DGHTrUnHWzYy00naLe3U9ZI38Kjd1oPz6knlkklnuJWnuriRprmd/rSytzO2yqBhERQFRFVQABgdJGG6oygnaLoU9zIIreKSeUqzCOJC7lUUsxCqCcKoJNNFz8lt5p0yzafqCJCLpla21MD9JZ3CjhQS5YBrNwSJF+yx4j9VXiNRZ/J306uujGoTWWoRdZZzfo722wJIpYnGFurfOBKDHkDkssZKMAwXq82Kb5UehEvR+8ttX0mXrNPncS2U6kyInGMtaTMfrxuvEq8Ry8YIOHjJpB5/5ROkVmL2G/0pntzIEumgClTY3YbLxxMdnj41EqY9EK4Xl6I0KNq2syTSSTSuXlldpJHOMu7kszHAAyScnAA8KDnSXFBHkuKlD9I0ma5cRwRvKxOMIM49Z5D2moPcegHmk3Nwym5crnB6mFS8m+/pHA4dufEUI9hq6y+negvmrWVoA3VRoVGS0n6WQDt4h9Re/0y2B27VjWllk6ZaNbHqVlN5Ku3U2qtdOCOzgtgYU37GdfUtUTIel2oyj+p6M8Knk1/NFaH1mGETyezjyfCgXLp2tP+tvdNtv3YLeWcj1tcyAE/wBjHhQQ5Oht2T+k1u8b92C0soO7ky27N72NQQpugR7dS1dj39eoHsAtwAPCg5V50JI+rqGqA97TRSDw9F7Yj177inYcubQLlfq6nO3hLZ2jD2mNYmPt3p2HIukvl5TWU47mWe2kPtHXwj2YoOeekN5Fv9HuF/ftXS5iH8XVniB8DFnvpgUvlSSf0Jkt7sDIKSqI5h37YDKf7A/GgqGveSnQ77JjL6dOeXGf0RJ/eyV7t3J9VXR5N0883PUbIGRFFzBjIki9LbsPL47eANWUeYGQqSrAqwOCGBBB8Qdx7aobHcVRJjnoOzpXSm4hiuIYpXjiulRLhFwBKkbcaKxxxYDZOFIDZIOQSKC/9Huntvp+mSLZsx1S/wCOK6n4Cv0KzUgdRbsfrSXWMvKoyE2HAwDAPWPJ7oEHRiwXWNQjD6rcqy6ZZPsYVZd5ZBsVbhbMhxmNCIxh5WrNHnvRLo0dRe51rWZ3WwjlJuJc8M15cYytlaLsOIjAPDhYY+1cZWJVS1RJNTvZ3srHq+PjlW0tUZ1hhiQZIAGThVy7YAZ2OFBZVrU7MqwDVGUGUFy8jPlfl0G++lKHksbjhj1O0XfjiGy3cK8/pNsMkAY62Muh3EbLLFj9D7O9iljjngkWaCeNZYJkOUkicAq6nxBBPdXOxoZFBqgA0GUGiKAGoBIoAagWwoFsKBTigUwoGIKBoFAxRQMAoDUUBqKAloCoMxQFQGBQQ9c16C0t57u7kENrbRtLPIx2VF7B3u5wiKN2YgDJIFB+cflD8o1xrN9LqVypTjHV2lsTtZ2SkmKHA261s9ZM4+tISM8KIB0kZ1wqqMoNMaC/650MvNKFpqVrcLLBJwPb6haElI58enBIGXMcqNxIYpVxIoIIOXRY1izavo8PSGKS7sYo4NYiUyX2nx7JeoPrXliu+ZRt11uOZPECTjrSub0S6WW+p2yaRqkqwyQ5XS9RlwPozb/1O7Y4JtHPJmJMLYHILw0UuPyq30NhPpAmRrOSXiZcLIFKsSwgkOeGORwshK8yMqV4n4pgosk9URZJ6BMXE7BUUszHCqoySfADnTR7l5K/Ndnuij3QZVbBWBN5GH7xGAo/e4gu4OW5Vmj7C6J+R2w0q3625aC2hQDI4gg/heY4Zmbb9HFgsduFyRmDs2fTS6uR1ej2ISE/9tvVa3gIPNoYFAuLgfvP1K5xkEb1MEkeRtZ/S1S7uNSIOepz9Gsk3yALeAxoQp5NIzM2ATnfLRdtJ0SKBeC3higT9mGNV7Mc8KDttyaoHTWw+0c/xEn4eiPctXRFeFe7b+HA+ABqCJOo7j8fxoOZcy45KfdQcO+nP7J9x/I0Fev2znIP938/yoKvqW/cfn2Y9tBWNRgI3GQfA/5fjQV/WL8vtOiTr3TJxt4YlHDOMdhVwPWNquivXemwsD1czwH9iUtPb5/4gHXxDGwBDqDzOCcQKsuld9pxDBisTHYgiezlHbhh6IJ5HHVsDkZ2qwS9TttI1gBbiNbC7OyzIf0DseXpbdXk/ZccOTuZKs7DxbykeRW801ssplhP1ZkBIx3nHhvnu3IXNXRRIrirolxz1R09H1h4ZI5oyFkidJEJVWAdGDKSrAqwDAHDAg8iCNqD0+z6QnXdRkvNYvUgghi6ybBCv1EbYW2sYt+KR3fAUZPpvISTkGUSNW1m76Q3lvZWMAhtoE6uytFbEFpbp9aed9xxEelNcPxFmwoz6AZPkTumHTq1sLd9K0eQusmBqOpj0XvXXYwW5GTHZKdxwkGXfJYFmlYmK10r8mE1ja28908cM9yeJLBuL6WlvwkrcSpjESsw4Aj4cns2YLWVOoMoMFFe/wDmeeWb6HONDu3xZ3cjNpkjH0bW8clnsyTyiu2LPFnlOzLg9anDiq+yGUgkHYjbFZUBFAJFANBlAJFAFALCgWaBbCgW1AphQGooGAUDFFAwCgOgMUB0GUBKKDYoDVSSANyeyg+M/PH8rYvLsaLbPmzsHWTUGUgrc6gN0tjjnHZei7jO85ClcwVqRHgtdGWfPz8moPX/ACg+bfcWtpHqFlNHqli0atJPagsYX4R1nFGOJjErZ/SbMm4kSPB4s6qseTjQtNvEktbmdrK8kZWs7uRs2Wy4+j3K4zEJG3FxxEL6IwMYk1VxO0jpDf6Bcz2V7b9ZbzDhvNPn3t7qI7CWJwCA3bFcxb5AGduEFa6W9Cvo6prGiTyyWSyBgwOLzTJxuIrtVyQo24J90kQgEkEGSaKh5S+nyajLHc/Ro7e5aPF48TYjuZwcdeIsBYWZMcarkM+TtUgpEs1XRDluKaOl0R6I3F/KIoEJ39NyDwIO0k8s43x78Demj698j3kGt7QBtpJTjjuGGd+6Icu/BIwDggE5as0ex6Z0x4SbXSYFnmB4Zbhi30WFuWZp1y00gOf0EJJyGUsuCtQW/oz5JUMi3WoStqF2u6tMAIIM81t7Zf0UQGw4uEueEEnOctHpHCAO4e6gjzSDnj2n8B+O3rqCI9wT3n4D8s+tjQJku8D7K/H8VHtyRQc641Id7H1DA94GfiPXQQbi7XxP9on/AKmoObcXfgw+fUaDi3t54sPd+IoODe3h7yfYrfcQfhQVvUrzvAPrBX7wRQVm8uBvzHq3HwyB8KDgX8gPaCPXj+X3UFW1GHc4/I/z9m1BzrfV5IieBscQwwIVkcdzxsCkg/iUkdnfV0JuNMt5/wBWVtJT9ksTaSHu4nLNbseWGLR5OSy5wHkdjo103uLMm0uozJD9q3m3AU59KFznCnORgmM7HCneg4flF8g8NzG17pR/ektjsynmRjcqeeCMg8993qweAyBkYo6lXU4ZWGCD4g/eNjWtEmK4polxTU8j0bTvKXKtgumWFuYXuWP06WLikub9i2IoVwvHHCq8I6iP9YxbsZw9F3s7K26OqstysV3rhUNBaEiS30vIyst1wnhlux9ZIPqx+ixIPCSHG6K9B7jVGm1TUrpreyD5udRuBxPNJ/ubVMfp5zjhWOMcMYGMeiEM1MVfVrOK5vWi0u3uTFK4W1t3PX3LDAHpdWvNiGcgcQQH6zBcimLr5T/IM+kWdvNd3cAvp5N9PQhpEhKkiTiBPEVccLeiIxxei7lTmS6jyutIRe2gdSpJGcEMpKsjAgq6MN1dGAZWGCCAalXX3x5tXlkOtadm4K/0lYFbfUFGxkyD9HvVXb0LqNcnA4RKsqjZM1zV6pUUNALUGqDRFABFAJoFkUAOKBTUC3FAa0DAKBiigYooDAoCAoCoNigKgIUHn3l98rH9C6XLdpwteTMLTTozj0rqUH9KVPOO2TinfY5CY5kUH56WVrwLgszsSXkkY5eSRyWkkcncvI5ZiT2k10jJ9aqMzQX7yYeVrUdEdZ7fj+jzk8UMyv8ARbrg9F+EkcPGuOEyxHiQjB4hxKZix6prPk30vpJG93opjstSUGS50qVlVJCPrPDyCgkgdZGvVFiONYGYk58NPOdP6fdWh0fpBbzvbwkrFIVK3+mOeTQlgTLb43MDFkZSChICqdbBQOkMz2E91bWt8J4JUETzWzusV1A4V+B1PaNg6EtwuHXiO9Simyz1BBmuKCz+TjybT6lLhcpAm8sp5ADmFO+T2Z3wcbEkKYPrLozoVrYwCOILHCgy7nYyd5cnsz9nJJJAyxO0FjsI5LwDrC9vaHlGCUnuVPLjOzQQOOSD9JMuM4DHho9f6KRRxIkcaqiKMKqqFAHgB39p5k7nJzUou9lqg9fz8+Hj2VB1kmzuN/3jyHq7/Z76CFd3Qz+03jsB6l3+INBEkDtzO34eodnt/KgWtiOe59X4EYHsJoFyW2OQA8f8gR8aCHcsnawz68/DJoOZNcR94+IoOLeTR9499BwNQRTnBB/tfhk/dQVbUoMdh9n/AKcH4NQVXUEG/b9/ww3vBoKzfju+faN/7woOBdSkc98+r4dh9nCaDmzoGz9x/Ps9tBC+jkHt/H+fzzqwd/T3DoI5R1sQ+qM4khJzvC+7LzJ6vPA2TyOHFHV0XrLSVGD5RzwxzAYV++KVfqpJvgxnKnmp3UmUZ5UfJDDqcZnhUQ3ajOw9F+3BxjIO5xzBzyyS10fKmo2MkEjQzKUkQ4II9mRnGQcbHtoDhnrUHY0TW5IJEmhkaKWJg8ciHhdGHIqRyNUX/wAn1vpxWa/1W4aYRyYXT43b6XfSsofjllP6q2yfTmyzMwZfROOMLhpWk6t0quVWNEhs7f0EVVMWn2EQ+xGqgBpeHmAGlfIJ4UxwzwL3qnlQ0vo3E9poYS91FhwXOrSBXRNt1gHpK+CB+jjPUg4LNOysKz3o+fekN7cyyG4uzM8twBL1s4fimUkqHRnA44/RKKU9AcJUYwQNs1zaIygsvks8praLqUGpDJgA+jajGMnrbCVl61uEZ4pLYgXEe2TwugKiRsyxY/SHiQhWjdZI3VZIpFIZZI3AZHVhsyspBBBIOa5tBYUA0A0GUAmgAigAigWwoFsKBbCgNKBiigYtAa0BgUBigygIUGxQNhiLEKOZOKD4A85TynDVtYlMbZstL6ywtNzwyTK+L26HYeslUQqwyDHCCDh63xiV5tW2WVB0+i/Rie9njtbZOsnl4urTiROIojSEBnZVB4VOASMnAGSQCFx6OeU6605ZNN1G0+lWQY9bpt4rRyQsc5e2lI621l5kFPRYknGW46ipN55OQw/pHo7dTXCw4ke2B6vVbH1xoczxjkJoMg5xhsMaePLRXlA8v0eqad1OoWSSanEyLBqEZEX6PP6TrVAHpYBHV7xMW4gsRXfMHiE81bHPnuKlFj8mvk8m1O4EaejEmDNLyVB3A8uIj3DffKhsj670zS7eythHGBHBENzjeRu/A5knZVGSSe1iSZ5DbDTmkZZp15EGC3YAhNvRllU7PKRuqH0Igc7/AGtC36dKc5J37+eO/HaW7yf5Vmi2afqn1VGd/bn58dvWKguGlXoXn6R7s5UHx/aPh/I0FmtLpn7cD2e4fs/f2HBoJ8dkBz2HaT+P/q5dxoNO6jkOLxbZfYMb+tVOe+gU5LYySB3gAD2cWSfhQRJ7ZO4t6yT78mg509uo/ZHtGfuNBz5ox8g/gBQcS/Xnn48QHxBoKxqNsvcPYR+AX76CrahAVzgn3/gTj40FY1K4O4YA+sY+fnlQVu+kz4/PvHr3FBw7qLPz2/cfgfGg50lvv8/IPgce2gfBbcXMbDtHMfPu9XaHWsdMIOfcew+vu+fVQXLSdOVwUZQVYYdGzwuOzPce1XG6nke8J2lwtbSJHIS0Mh4YZ25q2+IJz2Pj9XLylHYDkUFZ8u3kSW9iMsYCzqPQcD6xyCUfHPPt4tiMkDNiPji5t3ido5FKujFWU9hH3g8weRG9bNPhuKkV19Ku0WSNpE62NXUyRhzGXQMCyB19JCy5XiGSM5xtWh730n8tF5qvBpGh2b2tjjgS1tlAlmX7TXDphY4v2xx8Lc5JHyAuf3EWLT9L0Te46nV9UXlao3Fptk//AMxIP9blQg5hXEYOzYIDVpmuHcpq+vSTXbrLdC3iZpJSFitreKMF+qQnghi7eGFTxsSThtzRFDVqAqDTLnY7g9lB9f8AmUeUc3FhNpEzFrjSsPbFjlpdNmZjGB2n6JJxQHnwx9Rvvtzrb6HqAaAWFBqg0aAGoAagBqBbCgWaJRKKKYooGAUBigMCgKgwUB0BAUHnHnF+UttJ0e5uIji7uCtjY74IuLnKtKP+7Q9ZP49XjtFWD8+rCyEaIi8lUDJ5kjmxPazHck5JOTk10YPoNE0F10TyQ3l1aC8smiumjLGa1t5eK+tuBiFka32kZWwGVoeMjuGCQajp2floW4QWmu2zX8cfoJdZ6rVLTHYszDMyqRkw3G5OctsForma50HlslGq6Rfi6tYmXFzA3UXdqzkBUurctxoWyFJHFHJ2gAgVkebdKulEt3PLczsrTTNxSMqLGC3CFzwIqqDgDOBuck5JzQV24uKBvRno9Le3EdtCCXkOMgZCrkZY+Azy7Tj1glfavQ3oRBp9sII8BUHFPKftsBlst2gZ338dsgLlUuxtjOyzup4B/qsLDG2NriRSPrH/AGQIwqemfrKp0LBFbe09p/Afifx5YDzkHhA+fn2evYEOpYXHDsDueZH4HfAPfuW7M9gW7Q5PH5+ezcnx3wF60q+zgLy7+z1DH3Lv3kUHejgLc+ztO/8AdX6o9e58aApI1Xmd/ex9nP4e2ghyTju/vHJ9w2959lBEuT6z68KPxPuNByrh17/vb37N99BzbiZe45/gP4H8BQcG+uvAe0EfnQV7Ur0dqkf2vwYLtQVi/uhjnj1jHxG1BWNTl7PuPz+NBV7yPuPz9x9mKDkTN37HvHI+sfnQHFD3+/8AI/g1B17HTeXz7B/5T7KC06bpHhz7O/1fl+XCQsdjpGMfBu7wbw/zyedBabfQEmRopVDK44WU/aAOcHtGDurc1bByD9YB6N25jkOnXZ4iyk2kzbfSIk5xt/8AMwgZIySygOOXHWoPnfzovIO2WuIU/TIM7D9dHk55fbHvye5wRR8oQT/JoOjBPQXTon03voopLO0leNbySNZFiCrLK31Ej60YkCMWAMYcK22eZokeh23QPTtKHFrEv0q6Ayuj2cg9E9gvrxOJYR2GKIM/bkjIE1S77pnquuOljawEW6fqtOsIzHawjOzyKMKx3yZrhuZO68WK1IlV3p10JbT5VgkntpperDSrbSiZYHLMDBI4HD1qgBmClgOIDO29ZcAGgyg7nk98oDaRqVnqi/Ut5BFeLv6enzlUuxgfWMaYuEXkZIl/iqWLH6WS8OcowZGAZGByrIwDKwI5gqQc1yaLIqgTQDQZQBQCRQLYUANQKIoDUUDBQGtAa0BrQboNqKAhQFUHxN55XTf6XrMdihzBo8HC2D6LX94qyTkjkTDAIUUnJUySjbJJ6SJXidaZEIiQxAJCjLEAkKCcAsRsoJOMnG9GsSNDt4XmiS4maCBnAlmWMzNGna4iUguRt6IIPuolXnVPJFqFoBf6ZcC/t4zxLe6ZI4liPPE0CkXMDAYLKVZVB3bY0WAl8r9pqA6vW7XrJccI1SzVIb5cbA3EYAiuwu49JVYDOMnlnVeadM9Pgt52jtrsXkDKrLMkckPEG9IJJFJ6Sum3Eu4B5HbYKncTUHNuZ/nt9Q8aD7A83byUGythcyqBdXIzuN4ou4fIzuRkMtB6HeQCeQxf7CAgznskl5pBkc1XIeUg8+FMqag7kVsc57SP7o+7J+A7tgJokdXjkPUPn4moFMee/rb57O4dvvJCRbrjc/h8/gBt4EO9pdweZ2HYPz7cHx3PhQX3RLwDBJ7vZ3ADx7AB7KC029+WwBt4D63/AKfifVQPaMD8f/UT/wBRPqoI0k/YOzu7PaR/yqPX3BEkBPdn1Fj7/SINBzbyBu3i5fPNh8MUHJmtz2bf2h+BoOPexN+3/iP4GgrOqW5/az6x+ec0FN1eEjlg+rY/PtoKxeMp2Ox+/wDA/O9BwrtSPEfH8fxHqoIqpxc/f2/5e8eNBPstNI5DIPz7PVQWvSdM5bZHbn7j3gd/ZQW/TdL5A8jyPj3Hx7j7D30Fp0/Rt8Efz/Ij8zvvxBYrLR8Y/wAJ/wCk93h+O3EE3pH0MW9gKZMc0ZDwyrs8UqbpIvivaPtKWXt9HUHIs7carZyQTqsd9bN1Uy42WYDaRdt4Lhd1O4wxGWKZpR+ePnDeTBrC6aZUKRyOVkTH6qYE5Bx2N/zb5PGAA8vt56o6NvPy+H5j86D0noLp+lCJrrUbqZyJGVdPtkIuJiArccly/wCjhhbixxAM7EHBBUigstz5WL+9A07S7b6DbOcCy05XMs2dibmdQJ7gn7TOVQjGVGM0gLWfI4tjbyPqN9b2t31ZMGnRD6VcvJjKrcGJurtVOCSzsx5bZODdR59EMkAAkkgADcknkABuSe4CqyNkIJBBBBIIIwQQcEEHcEHYg1IAkjDAqRkMCCO8EYOfZWqr7e8z7p4b3RI7eVuK50mQ2Euc8TW4HHYyEHfe2KxFskM8Tnb6q8qse0mooaATQaoBagA0ANQLIoFvQGtAxaAwKAgKBlBlAQoCUUEbWNeitILi8nOIbO3mupT+5Ahcgd5bGAOZJx20H5fw6hJOZbqb9feTTXk+TnEt1I0zLnuTj4ByAVQAAABXWdmTaIvfkl8tFzo0krQRW80dwEW4iuI+ISIhYhQ4IZPrn9pScZVsDExrXo8updE9Z/WRyaBet9qIA2TMfBV6lRntZLY9nEdsvB5V7W/N/wBb0pheaZObqIDKXWmzESFf3oVYtIpHNUM69/ZUtMUvXvKpbXiyrqunL9MCsFvbMLZ3JkVTwC7hK9TMC2zMVRwvIbCivH55qDmXM9B6X5t3k1/pG/Ekgzb2uJH7mcY4V7tsg+BKHcA0H2XreoNGgEQHXSsIoFx6IJz6RHZHEoMjZ2wqjbIrOh+kaOsSLGuSqfaOcySHJZ25kszEs2Scctwow0T2XA8T85/Ae6oI793b2+A548M8z4UBwW+d+wfE/PLuG/ZuDokyRgZ7h2es/ujs/aO/dQdK3bh25sfnJ+cCgsGlXODz9bd2e7tH3n4UFz03UgAABuewcz6yOfqFB2oYsj0zy+yCAB6zy9g376AmUcgNvH0V9xOT7Tmgjy55A+xRgDwwN/ft66DmyjB+zn2E/Akn4UEC7n8QPf8AyoK7f3A7/gaCq6rMDnkfCgpmqOBncj15x8fzoKpqCc+zxG49o+fXQceTI57j55Hs9vvFBJtLHi3Hf3bg/vD8R8aC2aLpZHMfzHh/LbuxyoLlpOjcscj29/h4MO/2HPYFr07SAOzY+HL8t87dh27aC3aZo4ICnnzU94A5H1AeOcAjluHWt7AYIIx394PYfuB+H2aCZCpU57Rz8e4+75Aq6Kd5QrM2c0erQKSEAivo1H621J3bC/WktmPXKcZKdYvIgUFC85nyZQ39sbhQHjmRUlK4xkj9DOD3tspbsIjPjVH5karpj200kEn14mKnsz3MPBhhvbQPtpqos3RK7tVnQ3iTSW4yZEgdY5G9E8IV3BCgtgMRgheLByACHrWl+UzUbrNloVl9AhbZo9ORjcyL33V9tK3Z6TNEuMA5GKC36P5r6WyC51/UoNOjPpGFHE11IeZAYcQLnt6pLgk+OKJXWXy/6PpI4NA0tJJwCBqN+peX1qv67BO/CJLdcgehsMMqPBtd12S5nmuJeHrZ5Hlk4FCKXdizEIowMkk/5mtIhVR7D5oHTL6Jrq27HEOr2z2rZzj6VbBri0buJ4PpEW+/pruN887Fj7lIrLQDQaIoBoNNQA1ADUCzQLYUBrQGtAwUBigKgwUB0BCg8H89fpV1GiLZq3DJqt5Dbbc/o1ufpVyRjHossawt2YkxsSKsSvjKujIWNAlzQejRaboF2iKtzd6Tc8Kq30pfptlI4ADMJIVWeLjO5LqUQnuFS1qJFj0T1/SAbjTpTPa5z12mzLd2r/8AEt1LMDyyZIRjOzbbZqqh5WPLZNqscK3Ntax3ELMZLmKPgllHDwqjZyyqCSxXjKs3CeFeFRVHk9xNQcu4ck4UEkkAAcyTsAPEk7VB+gfkQ6ADTdNgiI/TTASzHtJO4HuO3bggHPDtB3tHXrpnuOarxW9v3EBv00oHL05BwA/sR47aUWPquzsHPx7/AHnb2HwqBMvMn2+HgPV2+r15oExw527+Z8D+eCfh2UDpTk8I3A2P7x7vV3+6gnwxgbc2Pz7h89lA9I+fxPz8igl2kvYNvHw7x3fxHn2cxQWTTLvHLn29m3j3Dw5n4UFqsJsjPb2Z/Adn4+NB0HQbcXPsHM+wDl7cUEd4Cezb94/lhR7c4oIlzaL359QJ/P7hQcW+t1HJD7gPwoKxqSc/Rx6xn/poKVrA57D2Hf3el8aCnahc4zucdzcvxFBw7jvG33e78qAba3ycEYz7jQWLStC3BGx+B9X5cu6gv+i6ICMY+fD8uw91BbdN0XhwCMg8xjn4jx8OZ9e5C32WjgAciCOfeMD8O3uwew5Dp2tlghfap9X4gjFB0lhDAnk3I+sfgeX8xsHOmbHrHZ3jtGPD3dnJTkMj4XVo2wVYY33BB237weR7/VVHn3Qu3EX0rR58lIV44Ady1hMSqKCeZtpA0WR9ULFsM7h8I+d/5Mmtpxcgbo3UzEfaB3jk9TcQ37esHdVg+frWeqOrby0Hv2jecPqskEGn6Vax23DGiN9Bti88jgYaTZSsXGfSJCcQJz1lTAu48j84Y3GuajBYM27fSJWvtQkHhbQtJLv2cbqRvkCrqOJ00n0gIkWnJeySK5Ml5dvGqypgjgjtoxiMZIbidi2xGCGGNRMVVGohgNAqfUnt2iuos9dZTwXsWDgmS1lWcAH97g4SO0EjfOKlWP1ItdVjuI4bmI5huoYrmI98c8ayKfc3h7K5tCagGgGgw0AGgA0ANQLagJaA1oGLQGooN0G1oCFAVQfFnns9IhNrVpaDddM0/ibuW41KTjdcftCG2hJP7Mi95rpxSvDCa0yW5oJnR3VIYZ45Li3F3CpbrLdpGiEgKMo/SJ6SlWIkBHaoHImiRcp9N6PXeepurzSZT/s7yP6ba57lmtws6r+9KpI7aldENPJXq1pm602dLlFGTc6VdhiAN/0kaskwHbgxsMZzUHlPSjpPNdzPcXEhlml4S8hCgtwqFBIUKvJRyA7+05Cs3c1B6F5tXQL+kdWhVhmKD9NJ3ej9Udu/MjxUcqlH290r1g8LmMgPKwggx2EkgEY7FAaQfweohBO0mBY0RVwFjUInZy2yfEAZPjmpR0HfA+J9XYPntqBb8sd+5/Lu3PwU+NASLgeLZPs/ny9W/ZQbgAXJ7eQH4+388ZoJMCe88z+P4DxzzFA8v2DkNvWe71Dt7/fQOtz25HeSezx/8o9tB0bKYnAGwz29veTnme/Oy+vkFv0W6J5E+vtPqzyH7x3PZQWqKMAZyBnmdz9/M/xbeFBHnkU9uw5FhxE+odnsAoIlyhxnfHYSce7fb3UHD1QDHLf1j7+IGgp2qq2+Dj2/iCfvoKbq8mc5Ab1bn8TQVG9weRPqPzn3H2Gg472mTt7B2H58MHwoO9pGjcX45/HvH7w/Ogvei6HnbG47/wA+0dx+QF50fRSMHGOz58ce/l2KQFytNLGB3H4HsI8G+/HsDoWacOVI7fcdzt69yPHPeBQSmjB2HaOJT8+z2eqgj9fghv7Lj8fnx76CPqg7R28/X4+vt9veaDnNNsPk+Pu5+HKgqHlLn6o22pLztX4bgAZ4rWYiObIG56s8E4xnBQ7c8h575ynQRL21fbIkjMTEYO4BeJx3sBxKD3qnhnUH5iPC0TvG4w8bsjjuZSQfiDVHStpqD0PyedIdUIax02S5H0g8bxWx4ZJOFcEl1w4UL9YcYXbJziguUfkX6kl9V1Ky09iSWiLm+vST3wWxf0j3tLtkZ54pBIvNY0C3jkjtrW91CZo2Rbq8mW1ijZlIEkNtApdihIYdc53HLFaHn6NRg9TQGy9h5HnQfcXmfdJDcdHbNGOZNPludOf+CCUtbeP+rPFk9rA1ybexmgGgCgygEigA0C2oFtQGtAa0BrQGtBug2tAS0DreLiZV72A95qUfm15Vekf0zWdZus5V9SuIYznIMVkRZxlf3WEBcdwaus8MqyTVQlmoO/0N6W2tt1q3WnQX8cvBu8ssM0PBxbwyxnC8XF6QKNxcK8sbljr3Nr0dufqT6jpbn7M6R39spP7LwhLjA/fBNStKz0m8n7WsbXdtqNldRLhC9rcNHOBIeHDQOEmGc+koyAOed6g8yuJaDj3c1B9heZz0a+jaXd6gwxJcv1MR8PRHwxxjwapWXphuuK4X9iCPb/iSbfCNW7c/pP4sxpYorrJVe7c/Pw9tZEy4vM4XPifZyqhscmcePpHwGNvcAfUaB7TZ+eQ7PhuPE0BRDJz2D7+33ch40EnrOwc2+A/9I+NAxWzgDkNvX/n91A5HB8FH+I+H3L3DfuoOjaLnfOBtt2Adg8fxPOgsNheYOBz8eQB7W7Sx7AKC06fd8Xj4nw92MdwwB2nsoJsrKvbufaT7t8ergHj3BCnDnJC48Tt92D/ib10Ff1F8Dcx+w7/eaCnarc88Y9hJ/ECgpOsXGezf57D2+rJoKvcuCccz7iPfn78eAoG2GmFm7fUe3+fx+6g9E0DQs8OxB7D+Hzz8DvQXzSdGBA2AI+HiO9T3cxj10FrsLQDmNvtD8fZ8QPaQ6iLw4zup2PhnlnwPwProF3K9naPeV7MeI2378d1AMMp5dvMHxHP2HOR4NjsoIss42bsPot6+w+vkfDB7qBclxlSp9Xu5e40HAa9xz7/j25+8+z1UEe5VZEkhfdJEZSD2hhwn4H2e6rBSOjkjTaf1Eh4pbcvaOe+S2YdWx3O7JwMd9+MnkRWh+dfnI9FvomqSFRhLhVmXuz9Vh7uEnxb10FBtJqDv6NcOHXq3KMx4AyuU+v6JBYEYUg+lk4xnNB6pbeSqzt/9f1iygI5w2YkvpvEHqlESnxLkUHWtukPR62/U2N7qTj7d/cLbQZ/dhtV6wqe6STNBSdV1NZppJVhit1kYssMIYRRA8ljDszcI8WJ+FWMFK1UNWg+l/MN1sibXLIn0WWx1CIfvES21ySfFUtvjWK2+r6yAAoNNQaoBNABoAagWaJgloo1oGCgIUG6AhQEtAu91ZbeKe5c4S2t57hz+ysMTuT7MZoPyv0CRmgjd/ryL1r/xynrG+LfCusZS3aiHahos8SLLJDNHE6hkkeJ1jdTuGV2UKwPPIJFFd7o35SrWKBbe50mwvEUsRPma3vDxsW9K4ikw4XOFVo8KoxUU26uejs5+pq2nsR9hoL23HsYJcezJ/OKonTjQbSHq2tL9L1ZOLI+jy28sWMfrFkHCQ2SAUY/VOccqCjXcvOg4tyxJwNydgO9jsB7SaD9GLbSxY6VpVkuxEXXN7iEz78f2TWRyNDus5f8A3jlzy5clHZ9lV58hk/apR3LPUN2NQOjv8k78zj2Dn8/yoOnbajzPecD1Dn92KBv9JdufH59Z7PCg6lvOAAPAE+vOw9/3Cgdb3GcntOw/h7/7R/Cge823r2HqzuR6ztty2oJFt6WB9lfieX8vCg6iXOCAPYOzbmx8B2e2g6NnJvgesnl7T3d3hso+0QFi0m97jsNvaO7ly7+QHLPOgtmnRKwzsc+7+Z8SaAb63GTn2Z39w5e4Ggr2pRKNzt6wB8MCgo2uYOeWD89n4EUHn2sR8JPLHj+B/wA/hQc+LS+Mg4zvzH1h+BoLzoHRwEAEZ7m7/nu5jxoPQdJ0DAGdxzB7x2+0du243xnIIWGLT8AdhPI+I/PkR34O/aDluPyPgR84x6gaCRDOCOE8mBx4d49h/DvoFC82Od2Q4PiOfxX40EKa7w3r7u/BI9/pD+73UEKW63YftDI+/Hvzn1+FBBe9ORv9dSPavbQcy5uhse/n6zt9+/soII1LGDncHH37/f8AIqwVeC86q+uk5LcRR3K88ccZ6mXtxnh6o7Dcfw1ofLXnw9Fx1NtdqPqSlG5fUfl/iKDuwKzB8n2ctaHatpKD1Lo/0Z0hYo5LvVZOJ0VmtrOzd5IyRkxtLKVi4hyOMgHt50FhtelmgQfqdLvL1hyfULxYlPris1Axns4zt2imCu9LOmKXkqMlpZ2QVRGsFnGyK3pMQz8ckjSSnOC+QSANtqSphN5os0So0sMsSycXVtJG8YfhxxcBdRxcPEucZxkd9aQpWqo9b80TVjF0ktUz6N7ZX9m3dxKkd1GfWDbuo/iNY5NR92VhQmgFqDVBpqAGoFmgBqDa0DFFAYoDFBlAQoCWgoHnE6kYej2uONidNngB8boC3x7ePFB+esMeFUdwA9wxXWMBdqK9X6KedlrNlDDbxzQSQQRpDFHNboQsUahETij6piFVQMsSx5kk5JmKnXXnVQ3A/r+h6Zc55tGgQ+6RZjn+3t7sZVxb3pt0UuD+l0q8tGP2reXiQH1dePhDQeP+U2LT1uB/Rkk8tsYlLG4ADrMWk4kH6OM8ATqyCQx4i3pHbFRQLySip/kz0c3Op2MA3MlxHseXoenv4ejQfePlm1MC9liT6tvFFAu+SMIHHrxxj25rAqsF3w5HLhHDjPqH3DA8MUEmHVcL7c+7+YoHDVd8dwA/H7z84oOjDquB6l+LbmglQallgPHJ9n8+L2UHVGr88Hmcfh/Og6Fvqnb4YH3D8/dQS1v9wAe4e2g7lpegDwoJFtejduROw8F+fj66CdBe7Y7Tz78Ds8d9vYx7aCw6O2w7uwcs43JP7ooLfZanwjnufnb8tz6qDqXTeiCfR7T+0fWCdh4sc+qgruo3Y39I+0be4AfGgpOv3RweRHirD47igpU8PGccviD+GPUR7KDudGujxB5etfduv5d3sBD0/RdEVRxY9E/WxzU9jAff6/XQWa0twMjbsI7s88j4H1eIagiXUowQOR3Hgw5gfPaAKDky3u5/e39vb+Y9Z9oIi1M7+HpD1j63vG9Aq81PDBhybAPxKn7x7qCHPfAbesD2bj4cIoIN3qwGD3Nn2N/Pag519qeB/CwI9Xh7KDlXOpcxn7Rx6m/Leg50+o888sj59mc0HA6Q3+J7SX994W23xLGcer01Uf2jWoKJ5xejfStBvQAS0Hpj1p6S+oE4+FSD8+rOWtDuWcvKg9j8nI6PLbLJqLX0l1xOGgg2j4Q3oFWCx/WXGQ0x3zyqC+Wflc6OW/8Aq3R8zMOTXkisfXws90AfUaDsQ+eTdxDhsdP02yXGBwQsz4/iV4lI9ce9IKJ5RPLPqOr9X9OmWQQljEqxRxqhfhD4KrxnPCv1nI2rbKoIaqLX5ItXEGuaFMezVbaD/wDmcVoP8Uy1m+Fj9I50wzDuYj3E1zaKNAJoBoNNQA1ADUCzQbWgYKIMUUYoMoDoCFB4v55l3w9Gr1QcGa60qEeptRgZx6jGrD21YPiBzXSMI7mgjNNgg7bEHcZGxzuO0fhRqL3d+XbrCTPpWiz5PM2XVt7GhkQqfV31lXHuvKFpL/rdCiQ9rW1/dR+5HMij3/jQea9KbuBpXa2jeGAkcEcknWuvojiBfA4vS4iNs4I570SqpeSc6K9U8zrSuv6Q2YxkJxSY8FK5PsUmg+gunGs9ZqF23P8ArMxx3hHKgdvZGBWBwhqGx9g+/wDKgcNS5b9w95oGpqXb3n8T+GffQSjrG+O8/DlQPstX3J7h/M/HNBOi1g7b959vIffQdC11zx7z7th+NB0LLXeRz3n8BQduLXvRAzz+TQdO11vJA7B9+34kf3aDraVqXEfWcewc/gKC26ZqvaOWAB+A93pGgsthqo2J3I5d3ifHuAxzoLLYScfM7d2c7/iRz7h6sEgd/p6gDO3d2Z922fAE0FC1+wAO3v8A5ggj1nIHdQQ9E6LFmO2T3Edns2PgV7eYXnQXvT9ECKM7EcvyPgeXt7OI4DqQ3IU77A8x8CPV8jbmATXWNgd13Ge0cx+I9RPPlQcfUdSyTg4zuP4gM/n7VoOPf6mowy8iAw9fb8Dn2UHKbWwGG+xPwIx9340ETUdX9EjPL8PSHwz76CLLrORnPZn3CggXOpei3t+BJFBBudWyvP7IPt3Wg5lzqnjzUe8Hf4bUHOutW57959+cUHH13Vcx5BxwSRP7nU/iT7KsHSWNbmy1SA8jbF9vDJ+8AUg/MjT2I2PMbH1jY1od6zkoL/0J1rT4kf6ZZS3chYcHDdNboExurBVJY8W+c8qC62nlTsI/1Og6eMdt1Nd3fvDSxr7MYqAOkflYe6g+j/Q9Ntoiyt/VLRYpMoSQBJxM/DzyM7ikFZhats1JSiGQ3hjmtJRzhv7CceBivIJAez9nvHrHOpVj9UtTXEj/AMR+O9c2kRqATQDQaNADUANQLaiNrRTKM/cYo0MUGCgOhBCg8F8+GTGhQjsbWLAH+ysz7eOVFWD4wc10YR5TRS7PUmhkjmXh4onWReNVdeJGDLxKwKsuQMqwII2OaNLjd+cFO2ess9Ik/i0+FT/gK9/dWRxbzywwt9fRtGbxWCSI++OYGg8w6QX6ySSSJGkKu5ZYo+IpGCchV4izcI5DJJoK1ePzoPoH/R9WhbpBxD7FtLn1MPzA8aC4NfF5J5M7kzPn+J2Ps+tWEqA91sfXn7qKNbvf2j7qDa3nL2UG/p+/z3fyoDj1EgNv+1+FBL/pM9/YB8aBsWsHHrH3/wCdB049X5DwA+IH86Drxa1uPd9386Dqw63gE5+fkj3UFj0jVsDf9kfHnQW7Stbwo78f5H30Fq0rU+S5+r9/L/CAT/lQXjSr/AA5d57h3Y7SOfdlu3AwFnnswy5I7ueCR6yx3z7vAUFZ/oAvJjHojl3g+Hh7cE7YoLFb2KxAHYMvPHIjtx4Hnjs37hgE6tqqnkeWN/AjPz66CuXetgZyezw5gb+wAEUHOvekeCpzyPCfn3++grt/0i358ifgRj3hsUHFuOkGQBnkWX1fWH4j3UHGl6RDY/Ox2/Cgy66Q4B37viOGg50fST0Rv2ff/nQR36QbEZ+cCggrrew37D94/nQcubXM8IzzUj59tBzn1vx/YP3UEG41fiThz9ZB798fHFWC8+Ru/Ekt6p3DabctjbfhMZ5HtwTQfm5qkfDcXC/szzKPUJWA+FaE2zflQXroV0rituMyWNreFuHh+k9aRHw5zwiORAeLiGeLPIYoL1a+WtV/V6Voqf8A7Ti8ObSk5xtv66B+s+Wu4uYXtzDp0UcgAb6PZQRSYBDbSAF1yQOTDOPXQVSJq0yloaCLrk3DCz/scD/3HVvbjGcdtSkfq/evluL9pUb+8in8a5VpHaqBNANBo0ANQA1ABojFopgoyOjQ6DKA6JBChHgPnyH/ANi2n/8AubT/APBc1Yr4ykNdGEaU0UOm6y9vLHPGVEkTB0LIkihhyykgZGHgykHurLS1XfnHX5+sbBj2ltPssn14hAoObceXK+bnBp8nr0y2JHq4YxQeUa7fNJJJIwVWd2dlRQiqWYkhUGAoB2CjZRttQVq9eg+l/wDRxt/7bn/7t+L1KOjpAbhlz9bqjn15GfjWeIRcg4NBrB+77moMAOFoN8B+fU1AIU4Pt/5hQPlQ/dQEsZx/ZFB0IkOR7PxoOlahtvX+X86Dr2sbHPz3GgtVlatwnY8vwoLRotnIeHY8hnn2EfhQXjRtMl223ycH153zQX7QtGkbfs2JHrI7fUDn1CgtenAqCrNvgHGT6O3ge/v7jyoG3cjBCEHMELjn245evmO7txQVrUruXDD9wZOe0cXz7+6gq19cSni/gAProKvq1xLh9/tOO39gmg4+pXMuCe8jG3bgGg4uqyS5FByJZpBn+Jj7qDlymTA+e0UBztIf8P3mghI0nAP4R9woFAv8B9woIgkfA9R/Cg5zcfof2qDnyFwPYv4UCLVmyvd6P304+R6R5uz4vLrO6/0Ze458sJjnvy76o/PbpEf63df95n//ACvWhIs35UF86CdMZrQuYYoJS4UN19slwF4SccPGDwnfGRjOPAUF6h8v18v+z09Byx/R1oFHh6UX4mgfqPl3vriF7dmtFilUq6xWVnGzA9zrCHU7bFGU0FViNaEtDRmoXSk/1af+A/hRH6xTfZ/4cX/41rk0U1FCaAaDTUANQA1ADUSsWimCjIxRoYoMFAdCCFB4J58KZ0KE/saxYE/2hMg+LD5NWD4tkNdGKizGixmkX8scsc1vkyxOHQiMSgOpyCUZXRsEcmVge0Go09CPld6TyfUN0fCLS7cA+yOyANZ0RZte6WSfZ1EfxWiQ+PN4I9vhQeH9Mop1uJxdBhc9YxnD44usb0mLcPo5PFnbbeqKffNQfQn+j11Dh6QcO/p2smfUv82B9lBfTYcElwmORlT+65G/93wrATPppwfZ99BiacdvZ+X40BHSDgA9mfx/Kgkf0Pt7/wAaDSaISp9v5/hQT10LI5dxoJ9p0WJA27x8/Cg61j0RJCnHzz/Ggslt0GOdhtnPLsOR8+ygsmm9As5OOWM+7H3ge+g9A0LoBkAY+z78bH3jlQW/RugIGMjbB9/h7iPaPCgty6fDGudjjHd2Hx8fhQVLW+mnVsUQgrkgeGTyPPHr9lA7oveuwOdzjIP2h7OZHqoLHDek4UnLdnLb1Ab+3s7+4F3unDGO0g8R7N+e/hvnHPJoONLoo3OMZ7D2KMc/cPVvQcC96PZ2x9Ylj3jiJAHuyPXQcS/0PJAxsX+A7aDj6jouTy7x7C2PeMGg4c+g8/af7x/zoOXe6LsAB2b+HEcj4fdQZcaNheXIZ9wzQc2bScLy+QfyFAibSsDlyWggR6Vy25BvvA/CghNpnLwBP3Cg5dxpm7f2B8RQQf6PwB/Zx7WIH31eI9A8iNmEkvXOwGm3AJ/iMYHwz7qD82dWueO5uG7GuJ2HqMrEfCtCbZtyoPUvJUurATPpYn24BMYQhPJmQENknkxHCD20HpMfTTpZFnK6jgdv9Hq69vb9FZeznnNBG1zypa9NDJb3TTGKRSsgfTreNiueXWi0SVeXNXU7cxQUKOTBwdj3HY+7+VWUTojWkqPrcPFC6c+PgTHfxuq49uazUj9Yb1MNj9lUX3Iork0jtVAmgGg0aAGoAagA0Ri0UwUQYooxQZQHQbWg8W88204ujV8wGTDdaVOPUuowK59iMx3B5e0WD4bkrowXb3hjdJBgmN1cA7glGDDI7sjejUexal55WrHPBHYxD923YkerMuPeD2VnFV6484fpJcfqpJWz2W9hE+fURBI3Z2Gpg5tzf9LJxk/0io73jW1H/wBxIse6g8U6dWFzHcSLdktcHhMjGRZWOQMEupYE4wOeRyPKqKXfHnQereZrrfU9IrMk8IkDx5/i4SR/dU0H1B0v0YpeXowMdbOfYxMm3ic7eus4FR6MSM+GfxqBkeg7cu8fiKCaOju4ONtvy/GgnwdG9sY5fhz+740D7LomTnbYH+R+OaDs6X0S9EZHh7tvhjPuoLBpnRLn6PccY+HvAFB3NM6Hkqy8PLcbd38se6gt2ldDchSR2AH2+ifiF9RProLPp3RcLsRjOx8CeR9QYD1ZoO1ZWwQZ2BXP3YI+4jbt8KCBqnStEGx332yB6vURj34oPNOmHTnOeA7+B3/z7MY++grGl6qztxEnfmRv8P8AL1mg9U6N3HCv1lPdkAHl4lfhkUD7u+I9LiGB44z3Db7gfZQdrSNWV1GdgPYSezf47Z5Z3wOEOiLfiOTsMfDsHrPd3d+TgIV1aczjwX18h7hj/D20HHOnDdsbKOEeJ7ces7e2g4d3pW/Llz+OfbuxFByrnStmPjwj8fZmg5dzpeSdubY9i+iD7yfjQKu9N9H2ffQc+50nbHqHz8aCBe6XzHgB7zQQ5tKxxHuGB7z+NBy203cjH2fvOf8AqFByrzTvreLn/Cp/HHvoOXqljwhF5Eug/wAJP/TmtQWXRpRbWGrXDclteD+9ke7JU+ypB+XOnSEgEnJO58SedaFhsmoPV/JhpWrmOSXTWlCmQI4imjQs6AMMozKWAD7HGOYzsaD0WLpt0stvrDUQB9o2QmT2t9HkT/FQdSy86nX4cCWRGx2T2cae8IsPwxzPhQD0385K+1Kzks7mK0CSNGxkiiZJAY3VxwkyNjJXB7wSNs0kHmkRrTNSba1Mk1pEOc1/YQAd5mvII8f4ql8EfqpqL5kk/jI9xx+Fc2kZqATQDQaNADUANQLag2tAwUBiijFEZQHQbWg8984fTeu6Pa4gGSNNnmHrtgJ8+sdXkeqg/PCOTKg94B94zXVhHmNGohTNTVXlvKB0ivBwxTalKDsBaxyKuOze3jUAY7SeVZHL1HyV63KOK66yMcy99eomB49dMX/w5oPMemPRz6K6p9ItrgsvEWtZeujU8RHCX4VBbbO22CKCl3tB0/JZrxttVsJwcFLlBk8v0mY9x3enQfpF0w0pZLl5B9WVUcEjbdQucczgBTipoidG9M4oYzjcKVIx9pCVYb9uRj11KOpbaCPkdoB/I1B1Yej2V2G+Pj/nQdDT+j+Ty5/9Qz8WoOlY9G/S4cc9vb//AG+6g7ei9Fd2BHbxDI7DzHvx76C02XRsDDY7cE47G7fYwz7qDsWmjhH5bNtjHaM7Z8QSPXQTYIFQlTy7PEHY+3cMPE+BoFXusKoOTz9FvXjZh/EMNmgo2udNsAkNuOfj+8O7PbQeW9JOmmcjiO/Ig8j4+Pf37UFSg1N3bJJz2kdvj4/f66C76BCSQQSPEezn/Og9P0gjhGcZ9RH/AC5+6gzUbtB2jPqLH2Zx91BD07VjxjmB2ZzxH1Ds7849o50HoumaorrvgY59w9X7THt7By9YMmU7k7dijuz2fxHmT9kePII93b7KqjIGAAPtP+S7k+Pq2Dm3drj2ff8A57+pR+1Qcq9sdlHbzx4n6v50EAaWDy5cge8D6x9pz7cUCbzT+z52+ce2g5tzYb+r7zsPvPuoObc2ODy7cn3bCggXdj6OO1jj8/eR8aDnJZDc9hPwGT92KDltp+yjHM5PtOf+kig4t5Z8VxEv7KySnly2jXI9rj2nurUFZ84TW/ofRm/YbNcMY1wf2hwL6wG+8VIPzjsuz2Vod6zoPSuiHk5luY1lgurISNxDqHu0guRwsVHoycKnixxDD8iNt6C82vQ/pHaANEupBR22s0syf3beRwR61oIfSbygapPELa+nuHjDrIEuI+FuJAQDlkWTYMdixG+4O1EcCGtKmwmiVcPI9pAuNc0OE/8A6rbTn/8AZ8V2P8UAqXwkfpM75Zj3sT7zmubQWoBY0A0GmoAagBqBZoNigNaBgoCFBugIUBLQRb7SluI5rZxlLm3nt2HYVmieMg+vioPyr0NGWCNH+vGvVP8Axwkxv/iU+6urBs1GogzVlVq03pBrl1FHb2suoywxKIkjtjOsSKowEZoeFcAY/WN3eFBC1PyL3w9O+ltrQc+K9vI+sPqRWlkJ8CB66Ch9MtAtYFUQ3yXchYh1jt5Y40XH1hNIf0hJ2wqjA3yaChXvbQcG+kI3U4ZcMpHMEbgjxBwRQfqj5LdfW/sbK4X/AGtuvjzAwMntHo+3NZosHRSw4ZbmE/YkWZR/8OYDO2ScCQOOzsON6C1RaCc8uRz7uX3H31BY9L6P9mPV6jyoOhb9HwGAx24Ht3U+88uz3UHWGidoGD+O2PfsPW3hQTzYhSsmNj9b1HZvcd/d7A6bcI29h9w5f4SPAD2BzbvUBggncdvq3B+fiTQcPVOkWwOcMPn3E7e3G3aHn/SbphscHw9Rz2+Gc7UHmHSLpad/S39fz7Rt394oKNNqpdj39q9/iP5UHc0OXJGc7cscx7O0ePKg9V6LqGxy+4+48/fmg9QsxsMY5eGeXqNBzr6Hu278uPwB/A0Fcln4T2n1bA+sklj7/ZzoLFoOucJHEd+xR2eAH2f4jk9woPQLG7DAMdgBtjs8F72PeOXieQSyvb24wB+wvM7952JP8uIIN1B2nl2ePs8e7uwPGg50tkT/ABNkDw7z/ZG3r+AbNgFHgBgez8zvQQJLXO/f8FHP3nb1YoIL2Hb7fht8MnHjQci4su3v/P7idvURQc6+s98dw+Lcs+oYPsNBCuNP2Cjt2/vHJ9y/dQc+WzxxN3DA9mB9+/tNWCsaVbcUtzL2IVt0P/DGXxsNutkcdxIPcKo+c/8ASBdKhFZ2GnqRl361wP2VyeXPPGIz6jUg+MrL8q0O9aUHqWj+T+0nRTDqtr1hA4oruOW04WIGVEr8cbgHbiBAI325UFqsfJZrdsOstlnZBuJNOuetBHeotpC/+HPgKg5nSjpXqE/VxX81zI0HFwJc8XWJx8PFnjAk9LhH1s/GrE+7mQ1pU2KjNey+aDpJl6R2z/ZsrG/uycZHEyR2sQPcT9Icjv4D3Vmkfd8dYabNALUGqDTUCzQCxoFmgwUDFoDWgNaDdAS0GxQahl4WVu5gfcaD81/Kz0b+hazrNrjCpqVxPGOQEV6ReRhR+yon4F7wtdIxVPlqVYgzUadjo9d6pMhs7F754+JpGt7Z5uDifALyLGQoB4VGZCFzjG5oybe+ReeP07+5s7DO5E9wslwfHqYTI57sMVOeyhVT6TWWlRROsM93d3BACS9UttbqcjJKOWlYEZA3G+DRp5reioODeiqPtvzEPKCHsjau29pcFdz/ALKUhlb1AtjGf9meQqUfYGsaYIL21n5R3GbKXuHX/pLdiOW0ymPixt1mCdxiQei22ljCnHP0T4EbZx7j6hUHWsdNx935fiPYKCfLpgPZzGM+PNT7D7s0GoZFYePaPHtx6yTjxPhQJuZQM925x3g/W9vJh4UHCu9Z4fRJ5bZ71P1T/Zzj1HwFBVtZ1/AJzuuzDtx3+ODv8e6goevdKeYzse3PL+R/n2UHmXSLpQcnffkd+Y7/AF/f94UW/wBQL9vq/L+R9VA3TF4tjzHv9Y/KgvWgwkYyAfWBn58QaD07o2VyM5HLsz/i5/E0HollOmBu3+P8RQRL6RezJ9e3wOKCuag+O5fbv8Dn/FQQtPvirA9gPNth7ufwHiO0BfdB1ssRkk9+dgPUOQ+PfvnYL9ZSArk7L48z6x2DPZzJ50G5zzZtu5eZHcMftH4eoDIZbW32iNz8AOQH3+J3oIt8mdvf8+H/ADY8cBFls+zv5+AHIe3f/FQQru3yQo9Z9Xz/ANPfQce6jySez6o8e8+7717qCA1pk7/xN7TyHsP+LwoI81ruT3Dbu4m/AD4Ggr3SS4W3geVhsilsd5GyL63chB27r4ZsHN0jRTBbRI+7kcUh7TIx43PZzY+wUo/Nfzvenn07XJgrZjtVWBO7P1nI57kFFONsr2b1oeW2QoLLopQOhlDGPiXrAhCuUz6QQkEBiORIwDQeo2PRXSrj/V9Re1c/7K/gIX/+TATGP7SdtB3bTyRatb/prRWnQbifTLkTZx4QOJs+BTOe+oODrOtXE8he6lllmUCJmnZmlAjJARi/pAqcjDbg5zzqzwyCGkaTYa0zX0/5h2hkya5ekeiBY6fEf3gJbm5Hue3+PdXOtPrWM1BugEig1QCaADQA1As0TW1oo1oDFAxaDdBtaDZNAuSp9x8U+e10e6nWbS7HLUtPCN+9cabJwOSe1jDcw+xRjtrpxSvApq0sQZ6yOt0R6PalOXGnx3Z6wcEjW5kjRlyG4JJFKRlcgNwu2MgHszV0Ws+bVJCvW6pe2tgpOSrOssx7SPrKnF/C0nqNRmuFqGs9HrLaC3m1OUfbn9GEkfuuigjb/cPnvPOjTwjVGDMxUcKlmIUHIUEkhc9vCDjPbigr14tB6D5sXTr6Dq0aucQ3am3fu4zvEx8c8SDxkqD9bNKtF1TS2QtiThMZcfWSZCDHID2EOEkyOxsb0Fx8n2v/AEu1jlYcMhzHOnLguYm6udcDllhxL+4wwTkVKLQmO3n2/n9xx66gMXWR+8vx7veNvXnuFBX9UvuBuIfVbf1HtHt/PxoOVqWtDGx8Qe4/PP1t3CgpmuauCu31lzt+HsPKgoGqdJSe30l5fvDuP3fIoPOukHSDc4O3aP2T+Xh3eNBSdR1Itz3HYe32UEaGTv7e38x8mgsel22cZ28ea+w/Z9VB6N0dtm27fn57/VQej6DDg54T6xjPuyCfdQXC2Ax2j2EffQKuohjmSfHiwfft8KCvalZeKj3/AIn7iKDjOAu+7EdvYPHu+80Ha0DVcHsz3dg/D2/5UHoOm60BjJyewcwvj6+zf3AbALTYelgt2dnd4nvJ+cciEq5lxy5/Px/z2A3CHDF2n2DvPZ7B2HtOW32oBKbFvd49nu7uwAZ7TQcq6U5wPrNz9udvZz8OX2aDm3VqBt2Lt6//AOze4YI5UEd7bHPnzb1nkPZn2ZoEPbch28z9/wAAeXcWFBSekUH0m7gtR9SPF3ceCIWW2jJ73lDScOc4iB2zmqKj5wHlAj0+yurhjgQxMRggZYggKO4ncDtzw99WD8jWvnmkeWQ5kldpHPe7ksx9WSceHxo69mtBf/Jzr9tbSlrq0W8jeMx9WzAcBLKesTKkcYC4BypwxwwzuHrdh0V6P3/+r3kumzN/s7leKEH+JiF3PYLj1AUHRn83zWLM9fZnr15rPYTlZMcwQoZJD4dWZKg89vbWVJGE6SJKWJcTK6yFiSWLBwGyScknck57aRk6IVtpMjONzyAJPuolfdnmh9GjbdHrJ2GJL+W51GT+CeUrbeP+rJFseRzXNXs6VAVAJoNUAmgCgBzQLagxTQGpoGUBg0BUGCgI0C2oPA/PU6Ldfogu1Xik0q7iutvrfRpz9Gut/wBlUkWZhnGIjsSBVlHxRMK6BMF0Y5EkADGN0cKwDKSjBgGB2KnGCDsRsamD0Ppl5z2q3AMcTx2MPJY7NOrIXu61uJwR3x9X4AVnEVFfJvNPGt7qF7BawzLxpNdTG4uJkyfSjgjZ533yMNwniz66DkX+s6Ta7W1rJfy/76+/RwZ71tU3YduJmz8aqqJ0tvLm6zdyRYjHDEHihEUC4yUjXhHDsCe0nlk8qCi3iUHCuiykMpKspDKwOCrA5DA9hBAIPYaD9VPMn8t6XcMLOwAuE6mZf2LqP0eXICRQQO0/oe81B9DK/wBB1IgnhtdUYAHkseoquEOOQF3EpXPNpI1G/Fmgust7sR2g/HtHtHvIPfWRyL7VsekDuOY7x/Ll7j25oK/qusqwIzsd/UfwzQUe/wCkXDlSdjyP4+scj7DyNBUNW14557j4j55e7uoKB0k1ntXfPz8/OApGoaqW37e09/roIEU2fy/I0HVsIeLl7j870Fu0SyxjBx4dh+fGgv8AodmQB6P90gj+6dvdQeg6Jty9x4lP34+FBare82/9Q/KgCeQkHA/xD8hQcC9hPcB7M/E7UHAu2HLJY9w3/wDSPaaBNtdEHA29R39p/LPrG1BbtB1AAjfJ8Ozx7h/Ed6C+aPrORgHbtb7I78HtPj20Het8Hf7A5k827MDwPd28t6BjtxHHYOZ7h3fme3kO2gizz9vYPqg/f+PdjbagjomBk/Wbl3gHt9beOPecEIzW4wSeQPrye/1d3hk/bWgR9GOCT39vafv27e3mN9shydevUgikmlPCiIXc9oQbnHezH0QPtMdvrA1YKp0Usmgt5by4HBPdt1zqd+qXhAihHhDGFGOZbPMmqPz48/TytmaWLTI27RcXIBztkiKMnl9Zckc/0Sn7YoPlSxjqjv2a0Hpmh9JZrIfRLqyhmiDFjDdQ8EqlgMtHMAsiEgYDekO6gtFlo2j3eOquJdMmPKK7Uz2pPctxGOOMH9qZSBv4UHQe31PRXjaO5MSShmhltLpZbedVIDHhRmVgCQCJYwcnltmgsvSXzgr2/sms7tLaUloytz1QSdAjBiBg8A48YLKiEDPMnIuCgw1Q/wDoqS4aG0iz117PBZRY3IkupVhBHZ6IcsSTgAEnAFSo/Umz0uO3jitogBFbRRW0QHIRwIsaADwC1zVNFAWaABQZQBQAaAGoFsaDFNAa0DBQGKA6DKAqBZFBzdX0OO6hntJhmG7gmtZR+5OjRk+teLiB7MUH5ePpksDS2s+09nNNZzZGMyWztEzY32fhDg5IKsCM5rpKI01Uc+4FTETujHREXTycVzb2scSh5Jbh8YUnAEaAFpWB+wu+43Gaipl9q2lWe1tA2pTD/tF6pS2B747QYZx2/pmyKDhXMeqatkszG3TmzFYLKEDfOPRj9H90O+/qoPKr6HBI22JGxBG3cRsR4jnQcC+joPV/NV8qp0/UPo0jlbe8IUHJHV3Ix1Tgjlx44Cf2hFuApyH6x2Oqx6pp5imOJOEK5TZo3XDJNGewq3DKmDtkD7LCiB6O9N3kRknwt3bkRXIGwY4zHOn7k6AOOwNxL9nNZVq76Q7nf1+HiPxqCqa5rmPSB9fiPn86Cl65rQYZz7e755fIoKNqmvnlnBHI5+cqfhQVG/1YknB37R+VByHPEcrz7R30Eu1HLIwfn5zQWTTLTPge/wCedBdtHtjtke0fiDQXzRUG3L2bH3dtBfNJYAb59o+fjQd2GIHfb59lAm5Ukc29h2+6g4WoRd49rZP/ADHhoK/eD5HL8B8aDlTT9gyfBfzxj3D20E7Tb3H1jgfsry/tHtoLvpOrFsDkB2ch8/HwHOgummagW2zk+4AY+G3t7KDtK64x2d/7R7MDuHZ/MZAOrz6Tcvsj9o/+UfH3ZBboSfE/WPcO714wO/GBzPogCx8RGNgPw5nu2+/HYpFBudQfBQPhnx7Sce3t2bNHm+pQ/wBI3othvaWTrJdkfVluV3htR2FYPRmkGMcfVrsVNWCh+cz5XYdPtpndwI7dON8faf8A2aAdrEkHHaerHaao/H7Xukkt7czXc5zJO5dt8hQfqoM/ZRQFHgM9tBJsY+VBceh/ReW6kMUPB1nCWVXkWMuQQOCMsQDIc5C5GwO4oPQ7Tp3e2x+i38C3Ua87e/Ri6jvilOJEPYGDMo7AeVB3rLo3pV7j6Lctp85/7NfHitmP7Md2i+gO7rhns7qCrTWJjd4yVJR2QlGDISpKkqw2ZSRsRzoJVutaE+IUHtnmfdEPpWuC5YZh0i2a6Pd9LuQ0FmvsQXEnflFPYazR9zxGsCQvOg21Bqg0aACaAWoFmgWxoMFAwUBrQGtAYoN0GxQA9BGnoPiPzy+hX0XV4r5BiHV4MvgbLf2arHMCRyM1uYXAO5Mch5DA1B4TMK2IE4oOfMmSATgcsns8eROw3wN8VKLfdyaTYfqwdWuR9uRWi09CO1Yzia4IP7ZVCMY4agrt3/SWsMebQxcwOGCytwN+W0a4B/ekx30FG6Y6LBCypDcC5YA9a6IViD55RM28gxzbABPLuAUq8joODfRfPLH5VB+h/mW+cGb63EMz/wBctgI5Qec0X2JQDzOMg/vdYuMFaD6G6VSs7Jc2/wCvQcJQcp4ju0B/eyOKJux9twwFKOI/StZEDoeY27DkbFSOxgQRjvBHbWRXr3pGO/8Al89hoKZrGt8JOOR+fn5wFU1HU89vqPd3+zwoOLJKc/O/q/Kgk2r5Pce+g79lDnAI+fD5zQWfTLHu9x+fvoLno1vy7O7O3uP88UF40uA9vxA+/agt+no2NsH3j4gr91B2Yes/e9jD8jQDMGxv8WP4EfCg42oRAc2UH1ZPs3J95NBXL6LPIFvFuXu/E0HKlgxnLexd/uwPx8KCNHNg93q3Y+3s+/woLXolwcDPojw+sfDw+J/hoLxp2ojAHLwH3sfw7+ZoLPY3PItuexfuJ7h4dv3B0+Mt3cR7exRv35/ltnfAIKcZ9Ecu0955/jnvG53JAoG9VjYfPh6h7fbjcKP096VuhS0tMNeXOeqJGVhjG0t5L3RxDKxg5MkuFHGFetCNqtxDo9gsUfpSEHHGcvLK3pSSynmxJzJI3rGRlcNH5L+eB5cDqV4bKFy1vbOWmfJ/TXOWDZ7CI8+rjJGP0Smg8Ps4eVB3LSOqPSejXQBbuJfos6PdAHrLST9E7EHb6O7Hq5dseiWDA55bCgs+m+UG5h/qmoQLeRIcNBeKwmi8YptpYjjkcuuDsO4JOv6RprQ/SLK5lRuIB7G6TMq8XNop416qSNcfaw4BGSTtQcK3Wg6UIrSRLDhQSdgBknuA3J91FfcvmidBDZaLFNKvDc6rIb+YdqwEcFjGc77W4WUjkGlbnzOOQ9viFZD0oNk0GqASaADQCxoFk0CmNBimgYpoGLQGKAxQFQYKDUgoI8o2oPL/ADh/Js2raRc20QBu4eG+seWfpNtljECf/eIusgPL6+dsZFg/Pa1vFlRZF5MobHIjwI7CORHeK6BMy0HPuEqUdbozcadGjy3cU1zMrAQ2ykRwMMZ45pR+kwDtwRjfbOQWxEpsjanrbCCFAtvHgCGFepsoBzGcZBI2+sZJO0UIT0m0DS9Mjkhc/T71kZG4TwxQEgjIIzwsD38UnggxgrxC7h23HiNuY7/nxoOJewc6zQzoT01n0y8hvbY4liO47JIyQXjbG/C3CDtycI2MqKQfqB5PPKVDq+npf2Zz6OLiH7cbDZxwjkVIORy2yMjhLaHK1S54i0kW7kFpYx/tQBvKg7JUUfpFH11HEBkHAVDUNbz6SnftH7Xz7KwOBdaxnPzj10HGmuCN+YPb8/fQMgl/y+eR+B8KDp2UQP5dv86CxaWpHiO4/gfzoLlpIB8PA7e4/wAzQXjSIsYzn7/u3x6xQXLR4xtj4H8OVBb7IjtB92fuzQdeKQfIoI08i93wFByL2VR9n4Y+fuoOFeOTyU/P+H/FQcS6i7zz7Bufhj48VBE6vHIcPid2Ps5D7vCgl2d3jkcd5zv7W5D1DNBaNJ1Lljn393iAfvPL1UFs0zUO45PMnu8fnfu/aoLHZ3nFsueE+9j/AJ55/wCI5oO1CgA+G3b4D1drfHJJIVTp301S0RUVeuuJ2MdtbocPcSDGVB+xDHkGaU4VFGOfCtaHI0DRlsIpr29kV7mXD3MwHo5GBHbwLzWCHISJObEgndhw5tHwT57vnUunHbW74vLhcAA5+iWxY+kcHaV+Fgpxu4J5RhSwfA1lb0Hfsoa1Bb+h15FDPFJPD18QJzGdgwxjO4w3CTnhOxIGcVR68/kigvUNzo8ofhwz2kjcMsZ/cLbgjbhDkgnlIdhQZp/lAcf1TV7Y3aRHhzJmK/t/+HOcMdt+CXiDbb4xQcHV7a3WZ1tXleAEdW0yqkpBUEh1X0cq3EuRscZwM0BQLQT4VrQtPk28n51bUrPTR+rmfrrw/safblWujz/2ilbdSduOZee4rFo/SziBPogKoAVFGwVFACqB2ALgYrIkKKBy0GUGGgCgCgBjQAaBTUGKaBimgYtAYNAdAYoMoNNQIegiuxUhhzBBHrFB8Cecz5NxpmryGNeGz1TrL61/ZSdnzfWw7urlYTKOQSbA+rgbg8omWtCBOtSj1jSfIjbWcMd7rdwsUTqHhs4XDTTgjIyy52IOcQkgbFpE3Agq/TLywXF3w2WmwG0tieCOCBf08vgxTOMjcrH2A8TuM4Jqq3fRS100ZveG5vAMrYRsDFCez6XKu2Ry6mPi8cgnBVO1W3vNRMtywXggjwzejFBCiglYUzsDv6KZJOck7g0Hn15BUHDvIKlF48gnl2udAvRcREvbuQLqDsdcjLqNv0iqMYyONfRODwlA/QHWUgv7NdZ0dxLbsBJNFGcvbsM5kQDcBWViy7FSDtgMqaFAmdbsZiwt1gloxhUucb8UQ5LNgEtEThtyv7KQU2a5JJzswJBU7HI5gjsIqUbt5v8AL5+fuqDo28Pd7vnlQdmyh+e0er/I+qgtOkrywRnuOxP4e/NBbtNiHIjHs2/L4j1UFw0mMjGM+zce47+2gt+mnODt7+E+0HANBarFT+/8MfDNB0Ys9x+fdQIuCd9tvnwNBClibsyvqGB7zvQcm6sP2iT6yT+X3UHKu8LyAHwH5/D20HInlydt+/YgfDc+04oIwn4T3kch3fwjkPWcmg7NhfHt28Bux/n49/Kgs2mX2RjYL3dntPafh91Bc9Jv8bfyyO9v2V8O3ljG1AvpT5RFtuCKNTcXc4xb20ZAeTmOJidobaPcvK3YGxxkGtCP0a6OLaCW/v5ke7kQddPuIoIhutrbBt1hQnHa8rHLZZsNkfIXnjed2lonCm8rcQsrbt7jcTgNkBeWMnGeAekzMtg/My/1KW5mknncyTSuXkdubMfgABhQoGFUADYDFE+zgoLR0c0Rp5UhThDuSF42CLnBOOI7b4wO8kUF80LX3tgbK/tzLbqx4oXASeBjuXt5NuFjzwSUcHO2STRY/wD/AAyWAf0hpc7zwR7mSP0bm17SLmMbgfvgGNhzAHMPRdD8qFhqiJb61EEkA4YtQgHCyd3WAZ4Ruc4V4s80XmA43lI8jU2mrHOJYrmznbht7iJl9I4LAMgJ3wG9JC6bfWUtwlBUIFrQmxkAZOwG5PcO/wBlZH2H5l/k5NvYy6rKpFxquFtw31otNhZhGfA3cmbg77x9TsuGBwPo+3FBJSgdQaoNGgBqAWoFsaBbGgWaJWgaKYDQNU0BigNTQGDQboNGgVIKCLMKDzTy7+Sv+mdMms0wt3EwutPkO3BdRAnqyTnCXMfFA/cH4tioNXR+esUpYbqUcFkkjYYaORCUkjcdjI4KkdhFa0R50q+U1DvpmbhLMzFVWNeIluFE+qgyThV7FGw7qVUrROm1xaRTR25SJp+EPOqDr1QZzHHLzRW2JxvkcxneIdZ+T5IY1u9TZ4YnHFDbLtd3fbkK36qI9srkE74x6LEscHVb261SRLeCJY4Y8mK2j9GCFBzkkbtIyS0r5OScc8MFO6ZaXbxOscEpnKLiaXAETSZ5Q/aKKNuJuZGRtQU26gqDi3dvUwej+bz5xl50cuxLDxS2shH0i1zs65GWQHAD4HIlVfAyVIV1aPt/VeiVprtqNZ6Our5BkudPQ4kR1PpPbqPSDq49KHAPFgKFYcBo8/j1mK99C6bqLpcot0RhXKnHV3qj6rA5Xrwucj0wMvIWCFqOlSwOI5k4H5qeauuMhkbkykEEEZ2IrNE+wPv7vyNQWOxgz6+75/CqLDYRHbIz99BbtIPZn2N7e3/Kgt2nRgYO6+I5ffy9poLfpT/v58CAfvx/zUFm09jnkh9Q3+Bag7EU57v+f/yUCJWbu/5/yWg51w58PgfvbP30HIvmPf8APuX76DiXcY7i3wHv/wA6DlzA8tgO5fxJ2+e2g58s4XYe5dz7T+W9AdrcknfAHcOQ/iP+fqoLJp2oYxv6jjf+wvb/ABNtVGL01lmJhsQrkHEty5JtoDyOWXe5nH2Yo/QBHpEAMtXBZtAittOjknldnllx11xJvcXDgeioA2VRySGLCquP2Qwo+UfO3881LVeqUh7ggm2swwxHnIE9yV5duAO4qmTxyLgfm5rmvT3k8lzcyGWeU5ZyAO/CqBsqJyVRsB6ySDrO3rUHatIao9C0LoQl1ADauz3UakzWr4DSKCT1ltj6/CMcUZPEME/s5CzaF0rhnRbXUw7KvoRXijNzbdnC4O80QP1lcF13xk4wHRk0G90iaO5hl9Bx+gvLc8UE6HmpzlTnHpQyDs5HGaDm6rqhnmkmZI4zK3EUiTgjBwAeFNwM4ydzkknnmgfHOxVULMUUsyoWJVWfHEVXOAW4RkgZOBmkEyBa0i5eSbyZtrOowaeMi3x9J1GQZHV2MbDrE4h9WS5bECbgjLuM9WaxVfo5EF2CKERFVI0UYVI0XhRFHIBVAAHZWROiFA9BQMoMoBJoAJoAJoFsaBbGgWxoNJQMU0DVNAYNAYNAYNAdBmKBbigiyighTjtoPjXzwvJV9FuRrMCYtb51j1BQPRgvz6Md0e5LzaNu6YKeclag+fZUrcTECaOpVc64i51B1NN0uTUbkm4ulTEfWTXNzJkrFHgHhBOXYAgLGvM+00IV0o6UoU+g6bG8dszBWYjNzevyBl4ckKTjhhXbvBzhQhXmlR6WMyhJdRYejCcPFZhhs0vY05GCIyCFG55jJVH1ToVcLbLduoWKR+FckK7cWSHCYHoEggY9fDjegpl1bVEce6tqmCx+Snyv6hoV0t3YSlDxAyREnqpgNsON8HBKhwCQDghlJQtH3r0O8omidMo+NHTS9dVR1iPhY7hh6I61QSGDEDE0Y4sEZ3xCGo5Wpafeaa30HUbbihyeCNyerbfJksrgAlDuWIGU4my8ZYei1R2/RoOC1mxuF3Jt2wt1GBzwgJWVR+3EzYHDkKSVATNHmB27tirbMPAg4I9RxTBcdNTl2+B5+/8AzqCy6fADQWnSoCMYJ9QP4H+R8KC12A23+K/lj4ig71rEO3H978COH40E+GAfLL+BFBkka/JT8STQRbiQAfWH97+WKDjXc6e3wBJ9W5/Cg4l5dHu9rnHw/kaDiXhJ5k4/ur+Z9goIjLjwHjlR/wCZvbwirg5k/SFFfqkDTzdkUS8TDluVBCoN/rSFRjcE71BJj0x5P9accLc7WB8oRyxcXA4TIOY6uHEZGxbOasFguemEVsgUBSUXCxrhIohzwxGyDtwAXbfO54hR8W+ch57vpvbafItxcjija5GDb22+GSEZIkcEHvUEemzkFDNHxfPcSTSPLM7yyyMXkkclmdjzJJ+A5AYAAAAqCfa21XB2bO15VYPRYtFuNLmUzwxyxyx8LKfTiljYDjQPgFXXbddwcHdedHY1Hon1arf2Du1sGBJBxPZS7YjmxyAJAWQEhgQDzBcLZYNb6sAsrR2up49GZsR215gfVlxtDORsHACv2/ZACq299KIjB1jdT1gkMQfMfWAFQ4AJUnBIyOfedqJqRDHRU+FKQSJpwi8WGY7BVUEu7EgKiAZLMzEKAASSR37W0fe/m6eSE6Pp4ScD+kb0rcagw34GweotFO/oW0ZCnGzSmRvtDGB65Am1QTIhQSFoCoNE0AE0Ak0ANQLagU1AtzQaQ0DRQMU0DAaA1NAYNAamg3QA4oESigiTLQcPXdEhuYZrW5jEttcxtDPGftIw7O0Mhw6sN1YAjcUH52eUfydTaRfSafOxkCjrbO4IwLuzYkRyZwB1qY4JlH1XGeTKTuUVSaOrRAnjqYIE8VEjvaJ0ogsrfjt0ZtRkLqZ5AvV2kfIGAEsHlcAemyjg3x28RUron5PY1iOp6mStuDxRRtkyXUhJIJBOWViDgE/pNycKDkrz7ygdLpb6Xjf0Y12ihH1Y1+GWPa3sGAAKFUi6gojk3VtQcm5tazggwyPFIssTtHJGwZJI2KOrDtVlwR3HvGRuCRUH115FfP8A3WJNO6R24v7PCoLjgHWRgbBnVQCpUYw8WcdiR7tRX0bpnk9sr+MXegX0d1E3pi3eVeujx2RyKTxFeRDEFSDlyaITPIxbqr+3YyrsHPFBcr34kA/SDODmQS57CoNa1NdOx0ZxvBNHMv8Au7jht5h6n9KBh3ekhJ7Btmdldm315YiFuEltif8AfoUU+pzxR/8A3B4Z5VBetCnR8MjKw71bI9X2h8aC6WLbCg7EKDuX59330EtIx+z8/wB6gi3MPrHqXI+BNTRBmtx+/wD4V/nVHMuYPYPFvyx949VBVtc1m3gz1s0cZ7iyoT6uI8Z8Mc/Gg4B1uSXe2tpXU/7aQfR4P/qzYcnuCIS2D6qCJLorN/rNwW74LXMaeAedwJmx2hFjRsnDYxjWg/paxL1USLEnPq4l3ON8vnLOc75kdgCSQwFQeYeVTzh9P0lD9JnHWkZS2gIkuJPYCCo5DjJVRyZwBQfDvlg85vUNX4olJs7I5H0eJvSkXOxnkABORzjQhMEhutwpoPLrW05VB1La1oOta21ag61tDVHr/k46YQyx/wBH6j6Vs+BFMThrdvsgtzCA/Vb7OSpyhPCEu90W80O7BXDxSKQrMvFBdQnOY5F5Zx9Zc5UniUkEFg5nSc2jyh7NJI4nQM8MuCIZSTxRxtkl4gMFS2DuRjYUEaCOiOhAlFToU+fnuoPoXzRPJB9JmXW7pM2ts7LpkbDa4ukJV73HbFakNHET9abjbH6NSc2j7FgXJyeZOTUE9BQS4xQNWg3QCTQATQATQATQLY0CyaBTGiNLRTVNAxDQMBoDFAYNAYoDzQaagU4oIkq0EC5joPNvLb5II9asjbFliu4SZdPuTn9DPgAxvzLQTr+jkTfAIYbouGj4Cu7OWOSWC4iaC5t5DDcQP9aKReY/eRhhkcei6EMCQa3KlQZo60RAmjrKvR/J95NIEt/6V1MhbJCeoh2L3cik4HDkZTIOEz6eCW4UUliPP/KV09m1GYySehGuRDAPqRJy8MucDiYjJ2HJVANVRLiCiOXcQUHNubag5dxa0HLuLWs0c2e0qLEvor0uvNOl6+xuZbWUEEtE2zEcuONg0b45DjRsDljei19Z+Tj/AEjsvCtvr1kt5EAF+kQgdYNsFjG3pA9uUeRtyAowK0zj6K6DeUro/quDp2pRxyYBNtO4V0z2EOQ6DcjikC8j3VMHo9pZ3EQxtJGf2CJI2/s7q2xzuDzz400FF0dtJG4ntVR8frIGe3fHd+heNPehJ76sHZtujBH6jUL2DwcQ3anwHXRggep80HVjsL8fV1G2fu62zAPt6uYfAU7CSiaqOVzpTfxR3Skf3ZCDUCpINTPO705fCOG5cj2NMM58eXKpsEafRLw/W1Pg/wCBYRE//eaQfCqIMnQuNv1s99cHt4rjqkP/AIcAhCjwzvTRGitLO2P6KK2hPPZRJLnv45OOYnO+z7e6mjk610tQZZ2PLJeVurX2lvTPtU+6g8C8o/niaPZBkF0LuUcQ6ixxJhh2PKGKpg/WDvHuDsaYPlnykeeZql6GitAunQEn9XiS4YfvSMuEJ3zwKWGdpO+jw1kZ2LuzO7HLu7F3c97MxLMfEkmpROgtag6Vva0HUtratDp29vVHTtoKDqW8NB7X5L+nsE0P9F6p6Vq+FgnY4a2YD0cvzVF+y+/BnhbMZIUOH5QvJpNplx1MhDo68cEq8pY844sb8LA7MuTg8iwIYhw4Y6CdDHViVffI15IZNcvDb5aOwt+FtSuV24UO62kT/wDvM4PYcxR5c7lAy+FfoLYWUcaRxRRrFDCixQxIMJHGgARVHcABXMdWCOgmxLQPQUDQKDRoAJoBagAmgWxoFtQLc0CXNBpTQNVqBoNAxTQMU0BqaAgaAwaAqBUgoEyLQQ5koOdcRUHhfnI+QU6rGL2zVV1a2j4Qp9FdQt1yTbSHkJowWaGU75HASFbKUfFUc3GCeFlYEq8bqUkjdThkkjYBo5FbZkYBlOxAreiPLHUEe5uXKLGXcxozMsZYlFZscTKpPCpbG5AydqDk3ENBzpoaDnT29Bzri3oOdcW1Bzbi1oOdPaVmjny2lQQprKghtZ4IYZBByGGxB7wRyPqNGl+6G+cNrunY+i6nchV5JMwuFI/ZJlDScPIcKuoxsMVdZr2ro5/pHNVj2u7G0u9t3Vmt357kehKTtyBfHiOdPKY9P0b/AEltgf19hfQHb9W6SqD283ckepRsB6Ipguunf6RTQyBm7uoyTyeyc8PLmUg4eZ55FF13ofP90LGRqkYPc9qwx/yn4Cqmol//AKQPRFBxqQfAz+jtHbbuGEfPqAyKGqtrn+kY0hcdXNezbbiO06r3GSKP7xQed9JP9I/GwIt9NuJjnb6VcCNMdv1Gn3/8MeyoPKOkvny63OCLdbWxByMxR9bIN8gh34UyPGI00x4/0m6eahfHN5e3NxnmryER/wD0k4Yh3ZCA1dVxoLHHZWROitKCfBaUHQgtKDo29rWx0oLeg6EFvQdKCCg6EMNB0YYKDrSXLycPG7uVVUUuxbhRdlQZzhVGwUbDsAoJEMdagsfQPoLdapdpYWQxKw457hlLQ2VvnDTzYwM78MURIMrkAEDiZZR+gXk/6B2umWkVjZqVgiyxdzmWeZt5LiZvtSSNk9yjCqFVVA5i3W8dBOjWglqKByigImgCgEmgAmgWTQAxoFk0CmNApjQaU0DVNA1TQGpoGg0BqaA6AloDU0GmFAlxQRpEoIU0dBz7iPu2I5YoPnjzjfN2N8X1LTUA1FQDdWowqaiij6yclS8RdlflMqhG3CsKPj+OYOMgEEEhlZSroynDI6NhkdSMMrAEHatQR5oqCFNDQQZ4KDnzQ0ECe2oOdLb0EGa2oIE1rUEGa0pghS2dMESS0pi6iyWdZNR3sqGktY0C/oNFa+g/OKujPoPz8imglsqimrY0SnpZUTUiO0oiVFZ0EyGzqwTobWrgnQWtMHQht6onQW1B0ILegnwwUHQghoJ0UdBNhioO90N6H3Wo3SWVjH1k7jid2z1NrFyM9y4BCIPsr9aRsKuSaaPvXyU+S210i0Fpa5dmIe6umGJbybG8j7nhQco4gSqLjG5YnOi+W8VQdCFKCZGtA+NaBwoBJoBJoAY0AE0AMaBbGgWxoEsaBbmgFDQOU0DFNAwGgYpoGKaAwaAwaAgaAs0AOtBHkWgjSpQQJoqDnXEJ5jn2Gg8D84Dzb11Fmv8AThHDqeMzQkhINSUAjDnYRXY24bgghwAj59Fko+O5EYM8ciPFNExSaCVSksLjmkiHcHuPIjcEg5rUEeaKghSw0EGe3oIM0FBCmtqCDNbUEKW2oIktrQQ5bSgiSWlBGksqmBD2VTAprOmADZ0xdAbTw+fdUNbFnQ0Qs6ppi2VMNOSyqIkJZ1cEqK0pglxWlUS4rWqJsVtQTYbagmw29BOhgoJ0MFBNihoJsUVBZvJ75O7zVrk2tioyu9zdyKTbWaH7Up2Dykfq7dWDvzPCoZwH3X5MfJjaaTbfRbNWPEQ9xcybz3cuMGSVu7sSMYRBsBuc5ovVtDUE+GOgnRrQSEWgeooMJoBJoBJoAJoAJomlsaKW1ApjQLY0C2NAINA1WoGK1AxTQMBoGKaBgoDBoCFAWaDeKBTrQR3SgizRUECaKg51xBQeUeWryC22sqJOIWmoxrww3ypxCRRnhhvIwV6+LfY5Dx81bGVaj4s6WdFrqwuDaX0Jt7gDK78UM6f7y2lwFlQ+GHTkyqdq0OLLDQRJYqCFNBRNQ5YKKhy21BEltqCJLbUEV7WgjPa0CHtKBL2dAk2dAJsvCoBNnUwYLOmA1s6sBrZ1Q1bOoHpa1RIjtqCTHa0EqK1oJkVtQS4regmRW9BNigoJccVBLRAASTjHMnYD21B6T5G/ITd6yRLlrPTAfTvSv6S4xzjsUbHHnkbkgxJzAkKkU0fbPQ/oha2FtHZ2UK29vHyQbtI+2ZZpD6Usr4y0jksdt9hjIs1vBQT4Y6CbGlBJjSgkotAZNAJNABNAJNABNAtmogCaKUzUCyaBTNQLY0GlNGYYtGjFNAxTQNBoGA0BqaBgNAQNAYNBug2RQIkWgjOtBFmhoIMsNBzri3oKv046DWmo25tb6BbiHPEudpYXwQJbeUenDKAThkIONuRIIfHXlZ83S+0rinh49Q04bmeNc3VsvddwrkuoGf6xCpXG7LHzq6PKEZXAZCGB3BBBB9RFaCZYqJiJJBRUWS3oIj21BGktqCPJa0EZ7WgS9rQJa1oANt4UAG18KDX0XwoM+i+FBsWtAYtqBq21A5LWgelpQSUtaCRHbUEqKCglRQUEuKGglRw0Em2iZpI4Yo5J55TwxQQoZJZD+6i5OBzLnCqMkkYqUfTHkl80cDgudcCyPsyaUjB4E7R9OlUlblhneBP0IxuZc7TR9PRR54RgKqgKqqAqIoGAqqMBVHYAB2VBPt4KCfDFQTYo8UEmNKCSiUDKDRNAJNABagAmgBmoAJoFsaBTGgWxoFmgW5oAQ0DQaBiNQNVqA1NA0GgNWoGKaAgaAwaAgaAhQaYUCHjoI7pQRZoqCDNDQQJ7eghYKnIOD87HvHhQeH+VTzW7G+Z7i0I0y9YlmaNM2dw53JuLZeEI7HnNCUfJJIk2FB8q9POgd9pcnV6jbNAGOIrlCJbSfkQY51yFJz+rmEUmx9HAzV0V94fdWhHkhoI0lvQR3tqJqM9vRSTb0Cnt/CgUbWgWbSgE2tBr6JQ1gtKAha0BraUBrbUDkt6BqW1A9LegkR21BJjgoJKRUZwc8qIOJ2Cjlv2nsAHMk8sDejT1byaebjqepcMsinTLI4PX3Cf1mZef9XtCQ4yNhJcBFGeILJgipo+sfJp5JrDSUK2MHDI4AmvJcSXk+P8AeTYBVc5IijCRqScKMmoLvBb1B0YIKCdFDQTYo6CSiUElEoGg0GqAaAWNABNADNQLZqAC1AstQKY0C2NADGgU7UYArUbNRqBlAxWoGg0BqaBgNAatQMBoDBoCBoCBoDoAZaBLrQRpY6CLLFQRJYaCDNb0EGa3oIF7ZB0aJ0SSJwRJFIqyROp5h0YFWB7iDQeAdPPNBs5uKTTJm02Y7/R3Bm09j3CPIlts8sxPwKDkRnGCHzz078l2paZk31m6wjld2/8AWLRh2MXjBeEdhE8cWD37Z0KnGyuAykMp5FSCPeKJQPBVQhrei9yXtqKU1rQLa2oFm2oB+jUGfR6JjPo9FbFvQEttQMW2oGLbUDktqB629EOSGhGNOoYJuZHOEjRWeVydgEjQM7EnbYc6K9b6DebJq17wvMiaXbnB6y7HHdOuxzFaIwKEjl9IaPB34TggzR9IeTXzf9M0wrLFC11dr/2294JZlJGD1CcIitx2Dq1VuHALNg1keniMscsSSe070EyG3oJ8NvQTIoaCXFHQSY46CQiUDQKDeaASaASaACaAC1AtmoBJoFMaBbNQLZqACaBTNQJdqJQK1FOVqBytQGDQMU0DFagYpoDBoDVqBgNAYNAQNAQNBug0woEulBHkjoI0kVBFkhoIcttQQ5beghzWtBG4GXPCSM7Edh8CORHrBoPLum/m56PfFnktPos7ZJutPYWspb9p1CtBKfGSJvuwHi/SjzPL2PJsL23u07IrtTa3HqE0YeCQnxjix452ujyTpP5PtSsQTe6bd26jnIIxcQYH2uvtjNGF8WK89wDtWhWbW+ik+o6N4BgT7ufwoHNBRmgMFABgouhNvQ1r6N4UTWfRvCi62LehoxBRNEtvQMENFwiK/jLCNCZZCcLHCrSyMe4JGHYnwANFei9GfIHrd3gx6e1vGRnr7+RLVN+6Il7ltt/1IHZnO1Z0et9FfM0iHC2o6hJNuCYNPT6NEf3XuJesmdewmMQsRyK00e5dCPJ1Y6cpWws4LUkYaRE4riTnvJcPxSudzzbG9QWmO3ycnc95oJcVtQTYbegmw29BKjioJUcdBJjjoHolA0UGZoNE0AE0Ak0AMaACaACaBbNQLZqBbNQLJoFu1AlmoFO1ACtQORqByNQNVqAlNAwNQMVqBitQGDQMVqAwaAgaAwaAgaDdAJFAp0oEvHQRpI6CNJFQR5YKCJLbUESW3oI0ltQRJbOgWisv1WK+o4/l99BVulHk30+93vNPs7k/tywJ1gzzKyqFkVvEHNB5zrPmk6LLnqkvrInttLssB4BLpZ48f2aCo6h5mK/9n1iZe76VZxS49ZgaDJ8cCrort35n2pr+r1DS5R/8RLu3Y+wLcD/FTRy5vNU1schpsnit4653/ftx2b1dEdvNf10f9ns28Vv0x8YwfhTRtPNc10/7GxX+K/XP+GI00TLfzTdab60mlxfx3M7/AAjtjTR2bHzOb0/rtVsY+8QWlxN7mkliH+A1NFl0/wAzG02M+p6jJ3rbx2tsp8MvFO/CfAqfGmi66N5sWhQ4J0/6Sw+1ezzXIJ/4bOIjntBTHhUHpeh6PHbJwW0MNqmMcFvFHCuO7CKNh66CeLUnc5Pr3oJMVpQSY7aglx21BLitqCVHBQSY46CQkdBISOgeFoGAUGFqASaDRNABNADGgAtQATQLZqBbNQAWoFk0C2agUzUCXagS7UTQI1FOVqBqNQOVqBqmgNTQMDUBqaBitQGDQMVqAlagPNAQNAQNAQNAJFADLQJeOgQ8VAh4aCPJDQR5LegjyW1BGktqBD21Ah7agU1pQKayoFmyoA+g+Hz7qATp/h8+6g2LD5+RQELHwoDFjQMWzoHLa0DUtqB6W1BIjtqCTHa0ElIaB6RUEiOGgekVA5Y6BoWgPFBhNBomgEmgBjQCTQAxoAJoFs1AtmoAZqBZNADNQKdqBLNQJdqBLvRktGo0er0DlagarUDlagYpoDVqBgNAatQGGoGA0Bg0Bg0BA0BA0BBqAqDRFALJQLZKBTxUCXhoEvBQIaGgS8FAl7agU1tQKa1oFG0oANrQa+i0Gvo3z8igz6N8/IoN/RaAhaUBi0oGpa0DltqBy29A1IaByQ0D1hoGpFQPWKgYFoGBaAgaDKASaASaASaACaACaAC1ADGgWWoALUCyaAGagUzUCnegSzUCXegS70ZLVqNHI9A9WoGq1A5WoGK1A1WoCDUDFagMGgYrUBhqAw1AQagMGgIGgJTQFmg3QCaAStAtkoFtHQLaKgU0NApoKBZgoFm3oAMFAJtqATbUGuooN/R6DBb0BiCgIW9AxYKA1goGrBQNWGgYsdA1Y6BgWgMLQbFBvNBhNAJNAOaAWNABagAmgEtQLY0AE0C2agDNADNQKZqBTNQKdqBLNQJZqBLNRmlo9DTlajRyNRKcrUNOVqKYr0DVagaGoCBoGK1AatQGGoDV6A80BBqAw1AQNBsNQHmgzNBvFBoigEpQCUoFlKADHQCYqADDQCYaATBQD1FBn0egz6PQbFvQbENAYhoCENAQioDEdAYjoGBaDfDQEKDdBhagEmg0WoAJoBLUAFqASaAC9ABagAmgBmoFk0As1AtmoEs1ApmoFM9EIZ6GlM9FJd6MlI9DD0ejRytRKaj0MOVqKar0DVagarUDFagIGgNWoGA0Bg0BK1AYagMNQEGoCDUBZoNhqDYNAYNBqgzFAJWg1w0AlaDXV0A9TQYY6AeroM6ugzq6DfBQb6ug2IqDYjoC4aAgKDYFBvFBmaDCaAeKg1xUA8VAJagEtQCWoBLUC2agEmgBjQAXoAoAZ6BbPQKZqBTNQJZqBLNRC2ahhEj0UiR6MEo9G0hHoHq9A1GoHK9A1GoGq9A1WoGq1AxWoDBoCDUDFagINQGDQEGoDBoCDUBBqAuKg2GoCBoMBoCzQbzQYDQZig1w0GcFBrhoNcNBnDQZw0GcNBvhoN8NBmKDdBlBhNBrNBrioBLUGs0AlqDRegAmgEtQCWoALUAFqAS1Asmg0TQLZ6BTNQLZqBTPQKZ6BLPQKZqBTvQIkegjSPRgmOSgkJJQSEejUPV6KYrUDVejBytRs5WoGK9AxXoGq9AYagIGgINQMDUBBqAg1AQagMNQb46DYagLioCDUG+Kg2DQbzQb4qDOKgzNBvNBmaDKDM0GZoNZoMzQYTQZxUGiaDXFQaLUA8VBotQCWoNZoBLUAlqAeKgEtQAWoALUAE0AlqBbPQLZ6BbPQKZ6BTPQJZ6BbPQJd6BDvQR3kowjyPQLQ0WJCGiw9WoVIQ0Q5DRaapopqmgctAamgapoGIaBgNA1TRK3RRKaAwaAg1AQahRUBq1AQNBsUBCgzNAQNBuiRotRWw1AVErKJrKLGUVlBlE1lCVomis4qDWaJWUQPFRprNBomg1mg0aIAmjQaIEmgA0IEmgAmg1QAxoAY0CmNAtjQLY0CWNAtjRkk0WlOaEJkahUdzRKQ5oiOxo1X//Z;" parent="1" vertex="1">
          <mxGeometry x="690" y="204.28" width="72" height="71.44" as="geometry" />
        </mxCell>
        <mxCell id="LD7MNeFPw9spvS_a8iKk-7" value="" style="shape=image;verticalLabelPosition=bottom;labelBackgroundColor=#ffffff;verticalAlign=top;aspect=fixed;imageAspect=0;image=data:image/jpeg,/9j/4AAQSkZJRgABAQAAAQABAAD/2wCEAAMCAggICAgICAgICAgICAgICAgICAgICAgICAgICAgICAgICAgICAgICAgICAoICAgICQkJCAgLDQoIDQgICQgBAwQEBgUGBwUGBwgHBwcICAgICAgICAgICAgICAgICAgICAgICAgICAgICAgICAgICAgICAgICAgICAgICAgICP/AABEIAfwCAAMBEQACEQEDEQH/xAAdAAACAgMBAQEAAAAAAAAAAAACAwQGAAEFBwgJ/8QAVhAAAgEDAgIFCAYGBgcFBwQDAQIDAAQRBSESMQYTQVFhBwgicYGRofAUMkKxwdEjM1JicuEVJIKSovEJNENTc7LCRHSD0uIlVGNkk6OzVYSU8hZ1lf/EABsBAQEBAQEBAQEAAAAAAAAAAAABAgMGBwUE/8QAKxEBAQEAAQMDAwMEAwEAAAAAAAERAgMhMQQSUQZBYQVxwVKBkaEiQqIT/9oADAMBAAIRAxEAPwD6wRKMJCR0D0SjUPRKKaq0DUSgcq0DVSgYqUDVSgYqUDAtAQFAQSgMLQGFoCC0BBaAgtAQWgLhoNgUBBaDYWg3w0G8UGcNBvFBmKDfDQbx4UGsUG8UGY8KDXDQaxQZw0GuGgzFBrhoNcNBorQBw0GuGgErQaK0AlaACtAJWgErQAVoANALLQKZKBbJQLZKBbJQKdKBDLQLZaBLpRKS6UZR5EoI7x0EqNKCQiUah6JRTQtA1EoHKlA1VoGqtAxVoGqlAYFAQWgMLQGooDC0BhaAuGg2BQEFoCC0BBaAgtBvhoN8NBsLQZig3w0GYoN4oMxQZig3w0GcNBrFBmKDKDWKDOGg1w0GFaAcUGcNAJWg0VoBK0AlaASKAStABWgErQARQAVoAIoBK0AMlApkoFstAploEslAp1olKK0CXSgjvHRlHkjoJSJRrEhEopqrQORKBqrQOVaBqrQNVKBipQEBQGq0DAtAQWgNVoDC0BcNAQWgMLQEFoN4oCC0G8UGwKDYFBvFBnDQbxQbFBmKDMUGwtBnBQZwUGitBmKDKDDQaxQa4aDWKDMUGiKDRWgHhoNcNAJWgErQCVoBIoAK0AMtAJWgAigWUoBIoFslAtkoFMtAploFMtEwlloeCmWhpLpQxHkSjKTGlGzlWgciUDVWgcq0DUWgaq0DVWgICgNVoGBaAwtAYWgICgNVoDC0G8UBgUGwKAgtBug2BQbxQbxQb4aDOGg3igygygygygygygygygygyg1igzhoMK0A4oMIoNEUA4oNEUGiKASKAStAJWgBloBIoAK0AFaBZFADLQARQAy0C2WgUyUCWWgUy0SkslEwplo0RIlGT0WjRyLQOVaBypQNVaBqrQNVaAgKBirQMAoDVaAwtAYWgILQGBQEBQEBQFw0GwKDfDQbxQFw0G8UGUGUGUGUGUGYoN8NBnDQZw0GcNBnDQZw0GsUGUGUGUGUGUGiKDXDQaoNcNAJFBrFAJFAJFALLQCVoAK0AstAsrQARQLZKADQAy0CmWgU60CWWgUyUCHSgUyUZORKNHKtA5VoHKlA1EoGqtAQFA1VoDVaA1SgYBQGFoDAoCAoCAoCC0BUGwKAsUG8UG6DKDKDKDfDQb4aDAKDdBlBmKDMUGYoMxQZigygygyg1igzhoNYoNUGUGUGUGiKASKDRFANAJFBoigEigBloAIoAIoAZaBbCgWy0AYoAZaBTLQJZaBTrQJdKBDrQPRaByrQORaByrQNUUBgUDFWgMCgYq0DAKAgtAYWgMCgICgLFAQWg2BQbC0BUGUGZoN4oN4oN0GCg2FoM4aDeKDBQZQZmgzioMzQZmgygwigzhoNcNBrFBlBqgwigHFBlBlBlAJFBoigEig1igHFAJFAsrQAVoBIoFMtADLQLZaADQAy0CWWgUy0CXWgS60SnqtFNVaByrQNVaAwKBgFAwCgYq0BgUDFFAYFAQFAYFAQFAQFBsCgKgygyg2BQbAoN0GwtBvFBlA6GzZuSkjvxt7ztVVUulflW0mwJF7qlhbOOcTXMbzf/RjLSfCojzHV/PZ0CPIg/pG/I5G3sZIYyc8hJedQD38QBUjkd6uClap5+jZxbaA7KRs95qaQsD4xW9vcgj/xRVwV2+8+DWWH6Kw0iD/ifSrn3jjhB+FPamuJP54fSVt+u0mI/wDw9Mc//lvXPjV9qagjzruk3/6jbf8A/Ltvzp7TRx+dl0mHO/s38H0uAj1+hIhyPXjwNPaa6Vr55vSJfrf0NKO3i0+eNj/aS+IH93n7qe0137Tz6dSXHW6Rp0/f1V3c2xPqLRXAHqIO9T2rq0aN5+FqcfS9Fv7cnmbW5tr1AO/0/o0pPh1WfVUw1etB877o5OQrX8lm5+xf2dzbgf8AjlGtz6hLmplV6p0e1u3vE6yzurW8T9u1uIpx6j1bEg+B3HhQTpIiNiCD4gj76AKDXDQZw0GqDWKDRFBqgyg1ig0RQCVoBIoBIoBIoAZaACtAsigBloFsKBbLQARQLZaBTrQJZaBLLRKci0U5VoHItAYFAxVoDVaBqrQGBQGq0DAKAwKAgKAsUBAUBAUG6DKDYFBsCg2BQbC0G6BsNuzZIGw3J5KB3ljsMeNB5N0886TQtPZomvDfXK5/qumobpgw+zJOuLaE52xJKp3OxwcWQeFdK/Pf1ObK6fYWmnIdhNdMb+6x+0I16q3ift4S06j96r7U1450r6e6nqBJv9Uv7kHnD9Ie3tfV9FtjFCcdhdHIHbzzfamq3Y6PFF+rijT+FFB9pAyT4netIl5orKqMoMqDKDKDKDKDKDDV1UJdGiD9Yi9XL2SwloZR6pYij/4qiPR+iPnA6/YALBqstxGvKDU1/pBCM5wZZGW6A7NrjIHLbAqWNa9o6IefYmy6rpbxcgbrTZPpEfiXtJQkyDtxG85PsGc2K996BeVHTNVXOm38F0QMtCGMV0g/+JazBJ1x+8lZFoeMjYgg+O1ANBrhoNUGiKAcUGUGUAkUGiKATQCRQARQARQLIoAIoFsKBbLQLYUAYoFutAlloEutGdPRaNGqtAygYooGKtAxVoGYoDUUDAKAwKAgKAgKAxQbAoN0GUGwKAqDYWg3QDdzJHG80skcMMYLSTTOscSKOZZ3IUAUHzp5QvPesoeKLR7dtUlBK/S5uK205DyJQsomuwG5dUqxuNxLjBNkHzT5QPKfqmrE/wBJX0skRz/Urcta2AB+ybeNszDGwNw8pAJ5cTZ1iarNtaqg4UVUUclVQo9wArSGURlBhNBlBlBlBlBfvIp5Jm1q9NmtwtsRA83WNGZRhGjXh4Q8e54+fF2U/KvPoZMgHvAPvGaqDqDKDKDM0GUGUGZoqNcacjMrkYkQ5SVCUljP7UcqcMiHxVhUw1695PfOq1vTgscki6vart1OoM30tR/8LUAC5P8A3lJyf2lySWGvqDyWecvpGrMsMcrWV8wH9QvgInYnst5/1FyMggCOQvjBZF4lzzaepzQlThhg9x+eVABFAJFBlAJFBqgyg0RQCRQCRQCwoAIoAZaBbCgAigWy0C2FAthQLIoFutAl1oyai0aNAoGKtAxRQMUUDQKA1WgYooDWgICgMCg3igPFBlBgFAQoN0BAUDIICxwoyfnc9woPB/K3531hp7PbWCrqt+hKvwNw2Fs2D+vuQCJnU84bfjbOQzRmrIPkXp/05v8AV5RLql01zwkNHbKDFYQEcjDaBinEP97KZJTtltsVuRNcgVWWUGUGUGUHuHmlaTaXV9c2V1BDKbqxnWBpY0dopVG7QlweCQxs54lwfQ57VKrx+26OztP9FSN5LgSND1UalnaRCwZVUbndTVRJ6JdEZ726is4FUzzMyIrsI14lRnYMzbDZG58zgczQSvJ50Hk1G+gsI2SKWcyKrSZ4VaOGSUhuEE5PVlBt9YjOBkgD8l/Qk6neQ2iyiEzJO4cp1mOpt5Z+HgDoSX6vh+sMZzg4wZo9V8yXUo49YZ5HWNTZSrxOwUcUk1sqLk4GWYhQO0nFc+p1OPHjOXK5Nyb8uvT4c+pc4cbyud5O+Tj315N5LOgp1CQwdaIers57kuYzJtbQmQpw8ce744c8Xo88Nyrpe35c610F6FvfvMiOkfUWlxeOz8XD1duoZl9EE5bIAJGM86qI3RjonNeGcQBT9GtZrybiYIFgtwplbJ5kcQwvM5oIWnaRLN1nVRvJ1UTzy8Clurhj4eOV8fVjTiXiY7DIoPXvNJ6HQ3erFrmOOW1tLS4uJllRZIjssSqyMCp/WM4BBH6M+FZqx5FrV6ss00iIsaSSySJGgCpGjuWVEUbKqKQqgcgK0IdEZQZQZQIvbFJFKyIrqexhkesdx8RvnfsFMHq3ks85vVtJCwux1WwXb6LeSE3MS91petlhwjlFcCRMYVTHzGbF19ieSvyyabrUbNYTEzRgGexnXqry3z+1Ef1iZOOuhMkROwckEDDS5Gg1w0GqDRFANBlBmKACKASKASKACKBbCgArQAy0CmWgWy0C2WgBhQJdaBqCgMCgaooGKKBqrQGFoGKKAwKAwKAgKAxQEBQZQYBQFQbAoCFBwunvT2y0q2N5qNwLeDPCgxxTTyYyIreJQXlkbsAUgD0iQoYgPifywectqGshoIw+maWdhaxuRd3K7jN9cRt9Vgd7aFuDsZ5dsbkSvK7a2VFCooRVGAqgAAdwA2rSGURJ07TZJpFihjeWRzwpHGrO7E9iqoJPupQmeEqzIwKsrMrKQQysp4WUg7gqQQQeRFAGaBy2h4wjegSVBLgqFD4wx2zw4IbIB233oLJ0h6G/0dqX0O+wyQTwicwsQJIG4HZ4nK5AeJ8qxXIJG22KC9aZaDQulMSgkQwX6iNiST9CuxwRsWO5xbTjiP2sN31n7Kn+VG3/AKJ6WNMNkGoW99/4dxIss3sy0ygdgGOw1Z4HLlh/o3pZw/VWHWVx4Qzzgqf/AKMwJx+VPsG9Cbf6J0tij5CLWZofUrzSRD2FXx6qfYjXkFtBB0ptYjyjvb6D2dRdw9nfnAPZnO2DhWnmPRW+aESEHDiIY/ijkjkHLsyma8t9RdX2em48Z2t6nGz+12ve/RfQnU9d1OVks49DnL+9447Hmu9Ic3OqH/daJqh590Srz7Ofxr0nC+6S/MjwvU4ezly43zLZ/tYPImOCDXp+xNBuYM9z3U1vEuD34DD29ldfhgzyTr1Wm9IrrkRYQ2Sn/vtygkX2rF2fhTUovJr+g0fX7rk0kVnpsZ5E/SZuOZQf+HGCw7qVF18jH9S6Na/qJ9F7kLp8Ddo416tiuO3NzkdxjBqfceYdHeh0B0jUNQnD8Uc9rZ2PCxVTO/FLPxDB4gluM4ONyMEVpHHsuhMr2FxqHEiQQTwWwDcXHNNMGYrFhSpMSLxvxMo4SCMnag4PUnHFwnhzw8WDw8WM8PFyzjfGc4oAoJum6LNMJDDFJKIU6yUxoz9XHkLxvwg8KgnBY7D2GmiFVGVAtYyskc8byQXELcUNzA5jnhblmORcMuQSCOTAkEEEimLH1F5HvPP3S16QcKHZYtYiThiY7BV1CFc9U57bmICHfLLCAS3OxX1SU2VgVZHUMjqwZHUjIZGXIZSNwR2VnFCRVAmg0RQDQZQYRQAaAcUAEUAEUAFaBZFADCgURQLYUCyKBbigMUDFWgaBQMRaBgFAxRQMAoCAoDAoCxQGBQZQbAoN0GwKAxQeVeXbzirXQ1EAQXmqyJxQ2KthYlOeG4vXH6mHPJB+ll5KuOJkuD4c6U9JLvULpr7UZzdXbAqGI4YoEOD1NrFkiCEYGwJdyOJ2diTW5Gag1UZQZQd/oF01l068t72A+nbyB+HOBInKSJv3ZYyyHu4s8wKYPVvOt6Fxi4g1e0GbLV4xOpA2S44FMin9kygiTB34xN+zgZnw1ii9OuhEMdjpl/aGRoLuForjjYM0N/btwzplVXhSRSJIlxngDHJ51pK73lkP06y0zWB6Uk0R06/P/wA5ZKFjkb964t8P3YTGBQD5WP65p2j6p9Z2hbS7xu36RY/qHc9rzW7hid8hBnGAKLgPK+30mw0TUlJLvZnT7hu36RprhEdj+3JE6tk/WC5AGKmfYxcfOxP0u30LV153unLFKR2SxBZeEnvV5pRnt4D3b5nwYp3nDXhe8sb9f+3aXp17kdkwQxSLn9pHgGfEitT4Suj5X9RSHpOLtWURvdadfZBHCFdLaSTJztuHJ7s1YE6f0ntrfpYbszx/RF1aaXr1YNH1MkknphlyGXhfcjPKi68zlZesuShBTim4GHIrxNwkDuK4x4V4T6n5/wDHocPnnd/bOz6v9A9L/n6vqfHGcZ/fy4HkB6UQ20+siVwhm0m+tYQc+nNO0IVFAzuyByM4Axnsr1no+Xu6PTvzxmvnf6pw/wDn6v1HD+nnc/bXp/QLWoYdH1xWlRZrlNOhijLKJJFFy0khRSeJggA4iNgMb8q/tr8y3ukadcdV0auiGHFeazbwlcjiMNrayT8WOeOtdRvtkUiafrmIOjNgnJtQ1S7vOXNLOIWYwf2Q7tt358a0Ln5XR9B6L6Dp/KS7eTUJR2kHikUNjsX6VGo7xGO6p91xT/KmfomlaJp3J2hm1W5He94+LYHu6u2THjxZ25UlMF5W/wCp6dpGlZw6wNqd4O03F7vCjjsMNuAuOeG9VJ3QXlSb6Bpml6SDiR0Oq347evuQBaxN3GC3B4lbJy6nbtDgeUHoTDY2umBi/wBPuoHvLlCw6uK3lI+hpw8PEJGjDu5LDGcEbrgPW1z0e6M5zwanr+MHcPDZBc+BUiGTvBWW5HPqzUnerj5qArSMojKDTLkYIyD2UV6H5FPL9e6CeqVWvdKY5l08t+kgySWl052IETdpt2PUyHOOrZi5mGvuzoZ0ztNStY72wnW4tZMgMAVeOQfWimjYBopUOzIyg8jyZSebTr0A4oNEUA0GUGiKASKADQCRQARQLIoAIoFEUC2FAp1oFsKA0FA1RQMUUDQKBgFAaigYBQGBQEBQEBQboMAoCoNgUDFUnYbk7AUHgPnF+dCNNZ9O0sxy6rgC4uGAkg0wMM4I+rNeFTlITlE2ZwRhHsmj4yjhPE8ju8s0rmSaaVi8s0jfWkkc7sx8eQ2HKukZMqoyoMoOxo/RG4uIbqeGPjis41luCGXKRu3CG4CeNlByWKghFBJI2yFw6BdErfUNPvoI48apa/16BgzE3dpGuLi2CE8PWRfrYwi8UhON8Gpar0fyCXi6xpN90dmZetRGvdLZvsyqS7JnsAlYEgbmOab9mpe11Ypvkhga6h1LQJgVluA1xZI+AYtTseLMXcpuI1eF/wCDAwTu/JSfIsfplvqeivnju4fpVmrbFdQsQ0gQZ+q08QeJiexAMjO91I4/QbpRAdL1bT7qQRdYsF5ZFgxxeW0nC8Q4VYhriFurOcAcJOVxmquuLbdPgNKm0x4uLivYr2CXix1LiIxTDhweLrU4RkEYweeQAUnVfKddzWFvpsjIbW1kaWFeAdYHbrOcnMqBI4CjAAxzwKkncV671eRxGryO6xLwRKzFhGmS3CgJIReIk4XbJqpUQSUTGuuosjoWEvoP/C3/AC184+peW+o6XT+OM5f+rP4fbfoPhno/UdX+rqcuP+OPGvJ9Om4b1v3uE+9APvFes/SOXu9Nx/Hb/D5t9RdP2ev6t/qkv9+T0hJuXqr9ueI81jYl7aGJdzqsjokbyO0cQcRIzMVjEjcTiNScIHb0mCgZbc70XFk6c+U651JrZrxlcW0KW8axqIh1KtnGF2DEbcQHYNtsUV3tY6ZW+q63Hc3XDaWUtxao6sS6wWkCxRmPKJneOMqCExxvkgDOJia7mjyLrvSOW4lPDadfLeTk/VTTrEAhWzsB1EccJ5AF/VSdkJ6NL/T2vS3NyeG16yW/uyR6MVhajj4D3ARLHb+ts7Uo7Pk80V+k3SGSedcW3Wm6uAdljtIWCwW57uJVjhPLK9Ywxw7S9gnyha1L0m6QCG3bEBk+jWx5JFZw8RluCOQDKHn7yCq9gxfEaUjphp9vdam1vpEDdS0qWtqoZnacriLryWO30hwZfsqqsMhMNTWVZ1nSZLeaWCUBZYZHikAZXAeNijgMhZWwwIypIqoh0GUGUHc8n3lCvdHuvpmnuodsC5tZCfot7GPsTKM8MgBPVzqOOMn7SllMsa19+eSryrWWtWv0uyLKUIS6tJcfSLOU7mOVVJBU7tHKpKSLuDsQMWYq24qASKDRFANBlAJFAJFAJFADCgBhQLYUC2FAphQLYUCiKBiigYtA1RQMUUDVFAaigJRQGtASigKgzFAQoCAoCVSdhuT2UHzr5zfnLtYtJpOlSD+kSgF5erhl02Nwf0UR3DX7rvgjEKMGOSVFWQfHllZLGvCueZYkkszuxyzux3Z2O7MSSTXRnT6Is3RXybXt9FdT2sDSx2cfWTspGVU/ZVc8Tvwhn4VB9FG7cAlVy2gZ2VUBZmIVVUFmZmOFVQNySTgAczQWfoXZ2sV+sOrRTJAGeC4ALRS2zsDGJWGM/wBXfDshG4B2bHCQsNu9z0b1ciQLMiApKowYr/T7gDPDn0WSaLcdiSrg54DQH0y05tD1O2vtPcvayFL/AE2Uk4kt2I44HxvlOJreVfrcJBOC4ADo9OrkaXqNjrmmDFpeH6bbL2RyBsX1g+NhwOzxlRySQAfVzWfLUN84HpLZrq1tq2lXEbPcLBfPGhy1tdoVYiXGytJhS8eS3GJc4DrmyJXmHSfpq099PfQr9DeaZ5wsDuvVPJkuY3yHBZizEjh3YgYG1XEVx7jOSTkk5JJySTz3oFGejRZnpoBp6aA+kUGvpNDXStJ/0beKv9x/Kvlv67y93rL+Mk/bz/L739JcJw/TONn/AH5c+X8fw8ovJMXcbftRj3gsPuxXr/0TlvRvH45V83+qeGeqnP7XhO/5j0OC52HqH3V6OeHi5exgnoo1uKA1noGLPRlMs9WePj4HdOsRo34GZeONvrI/CRxI3arZB7QaCx9HvKBJbWV9aRooN/1CSz5PWLDCzO0KjdeCViOM7HC43yCso9W0fpxaaX0ZkitbiOTUtYlaO6EZ/SW1tHlTG42Zf0blVOMM1xIylgmaZ3acizb+h9GL/V1DXY+CP9q20kMON+9Wv29EZyDEvFkFTkG9Bv8A2Npras2Bf3yyW2kKecMWOC61DHMYUmGFtssxOCr5pWXF6AdCLf6HdarqIdrSLit7WFXKSX1/Kp4VV/rdXb5M0rjuH1sSIaKFa6TK8ckqxu8cHB10ioSkXWNwRmRgCE429FeIjJ2pomdE+is99cxWlrGZJ5m4UQbcslmYnZURQWZjsADQI1/QZrWeW3nQxzQuY5EJBKsOzIJBHIgg4III50RAoOj0R6W3em3ceoWEgjuowUYOCYbmEkF7a5UYLxPgEEENGyqykEVLB+gfkj8rVrrdn9LtQ0bxsI7yzkIM1nPjJR8fWjcenHKPRdCD6JDKvO9mlxNFCaDRFANBlAJFABoBagAigWwoFkUAOKBLCgWy0BqKBqLQNAoGKtAwCgNRQGBQFQFQZQEtBsCgOg8O85/zgzpMY0+xcf0vcx8ZfAYabbPkfSHBOPpEmGEEZHMF2HCoElk1HxJZ2gQYBJJZmdmJZ3djxPI7H0md2JZmbck10hp1GWUFy8k/lTuNHvEu7c5GOCeEnCTwkgtG3cdso+MowB3BZWZrUemeXbyYQSQp0g0Uk2FwwaeOP0XsbjPpEqv6tes2YA/opCpUlHUrmX7FcjpCg1+ya+jAOsWEQOoxKAGv7OMBUv41G7TQAIkygDI32/RK2kiP0QnGt6eNLcg6lYRyS6TIcZuYBl5tOZjzcAdZb55cPDlFU5NK5oPTiBtLu9Lv+NepL3WmSBCWgvM4ltmHNYbrJLZGEcMxBPCKMKW/TG4+iCxMmbUTm5WIqp4ZinVllYqXXK81DBSdyCd6z92o4bT1pSWnoEtcUCjcZ27TyHf4DxoLJ0f8m2oXR/QWsrDvKkAbZ8Ty35Gp2Hpeg+aPqMuOtkhgzzBYuRt3KCf8NTYj0PRvMaXYy3Mrd4ROFf7JfqyR7qWmLVZeZTpqj9Kbhz4SqnwBc1NInDzRtKAxwzYxj9cM4PPfq6/L6n6d0OtzvU5cOGvQen/XPWdDpcfT9PqXjx47/twr7zKdAZlZ4rjK5xwz4xnxCA+zev6+j0OHRmcJJvw/M9V6zq+qsvVu59/lCu/M+0s7Rz3EYAwM+n8eIf8AKa/p1/Fiqar5mv8A7vqEZO/ozZU+oYU5/tEVdMUTpD5rmr2+SsSzqO2Jsnv+qAdsdpIHvq7FeaatoVxbkrPDJERz4lOB6yMge/3VRBS6oHLcUDknoGrNQXO36Ui/v7eXVrh+pJginlSNeJLeFQoSOOJVVcqOEcK4BYvgnOTC3yNN0k1bCYtrSJOFM7Q6dpVqDgtzUFI8duGmfGQCcG2umGsvrV9aadpkTC0gH0TTbc7foxvJdTHsebhM00h5KozkqSZ47iZ5Rtejjji6P6VmaGOVfpU0Yy2p6jkKSuMloImASFBsSOLDcKtU/I9LuJouh+nmNCknSHUIgXYYdbGBuQHeAVPDsetmBY8SRKKnlK+XZ52dmd2LOxLOzElmZjlmYnckk5JO5NdIyCoMoOv0I6c3elXkeo2JHXoOCaBziG9tyctbTbHGSAY5QC0UmCMgsGlmj9DvJ75QLXVrKLULJiYZSVeN8CW2nTaS2mUE8MkZ7MkMpVlLKysebawUA4oBIoNUGEUAEUAkUAEUAEUCmWgBhQKIoFMKA1FA5RQMUUDQKAgKAwKAwKA8UGUG1FBugPFB595dfLPHoVj9I4RNe3DGHTrUnHWzYy00naLe3U9ZI38Kjd1oPz6knlkklnuJWnuriRprmd/rSytzO2yqBhERQFRFVQABgdJGG6oygnaLoU9zIIreKSeUqzCOJC7lUUsxCqCcKoJNNFz8lt5p0yzafqCJCLpla21MD9JZ3CjhQS5YBrNwSJF+yx4j9VXiNRZ/J306uujGoTWWoRdZZzfo722wJIpYnGFurfOBKDHkDkssZKMAwXq82Kb5UehEvR+8ttX0mXrNPncS2U6kyInGMtaTMfrxuvEq8Ry8YIOHjJpB5/5ROkVmL2G/0pntzIEumgClTY3YbLxxMdnj41EqY9EK4Xl6I0KNq2syTSSTSuXlldpJHOMu7kszHAAyScnAA8KDnSXFBHkuKlD9I0ma5cRwRvKxOMIM49Z5D2moPcegHmk3Nwym5crnB6mFS8m+/pHA4dufEUI9hq6y+negvmrWVoA3VRoVGS0n6WQDt4h9Re/0y2B27VjWllk6ZaNbHqVlN5Ku3U2qtdOCOzgtgYU37GdfUtUTIel2oyj+p6M8Knk1/NFaH1mGETyezjyfCgXLp2tP+tvdNtv3YLeWcj1tcyAE/wBjHhQQ5Oht2T+k1u8b92C0soO7ky27N72NQQpugR7dS1dj39eoHsAtwAPCg5V50JI+rqGqA97TRSDw9F7Yj177inYcubQLlfq6nO3hLZ2jD2mNYmPt3p2HIukvl5TWU47mWe2kPtHXwj2YoOeekN5Fv9HuF/ftXS5iH8XVniB8DFnvpgUvlSSf0Jkt7sDIKSqI5h37YDKf7A/GgqGveSnQ77JjL6dOeXGf0RJ/eyV7t3J9VXR5N0883PUbIGRFFzBjIki9LbsPL47eANWUeYGQqSrAqwOCGBBB8Qdx7aobHcVRJjnoOzpXSm4hiuIYpXjiulRLhFwBKkbcaKxxxYDZOFIDZIOQSKC/9Huntvp+mSLZsx1S/wCOK6n4Cv0KzUgdRbsfrSXWMvKoyE2HAwDAPWPJ7oEHRiwXWNQjD6rcqy6ZZPsYVZd5ZBsVbhbMhxmNCIxh5WrNHnvRLo0dRe51rWZ3WwjlJuJc8M15cYytlaLsOIjAPDhYY+1cZWJVS1RJNTvZ3srHq+PjlW0tUZ1hhiQZIAGThVy7YAZ2OFBZVrU7MqwDVGUGUFy8jPlfl0G++lKHksbjhj1O0XfjiGy3cK8/pNsMkAY62Muh3EbLLFj9D7O9iljjngkWaCeNZYJkOUkicAq6nxBBPdXOxoZFBqgA0GUGiKAGoBIoAagWwoFsKBTigUwoGIKBoFAxRQMAoDUUBqKAloCoMxQFQGBQQ9c16C0t57u7kENrbRtLPIx2VF7B3u5wiKN2YgDJIFB+cflD8o1xrN9LqVypTjHV2lsTtZ2SkmKHA261s9ZM4+tISM8KIB0kZ1wqqMoNMaC/650MvNKFpqVrcLLBJwPb6haElI58enBIGXMcqNxIYpVxIoIIOXRY1izavo8PSGKS7sYo4NYiUyX2nx7JeoPrXliu+ZRt11uOZPECTjrSub0S6WW+p2yaRqkqwyQ5XS9RlwPozb/1O7Y4JtHPJmJMLYHILw0UuPyq30NhPpAmRrOSXiZcLIFKsSwgkOeGORwshK8yMqV4n4pgosk9URZJ6BMXE7BUUszHCqoySfADnTR7l5K/Ndnuij3QZVbBWBN5GH7xGAo/e4gu4OW5Vmj7C6J+R2w0q3625aC2hQDI4gg/heY4Zmbb9HFgsduFyRmDs2fTS6uR1ej2ISE/9tvVa3gIPNoYFAuLgfvP1K5xkEb1MEkeRtZ/S1S7uNSIOepz9Gsk3yALeAxoQp5NIzM2ATnfLRdtJ0SKBeC3higT9mGNV7Mc8KDttyaoHTWw+0c/xEn4eiPctXRFeFe7b+HA+ABqCJOo7j8fxoOZcy45KfdQcO+nP7J9x/I0Fev2znIP938/yoKvqW/cfn2Y9tBWNRgI3GQfA/5fjQV/WL8vtOiTr3TJxt4YlHDOMdhVwPWNquivXemwsD1czwH9iUtPb5/4gHXxDGwBDqDzOCcQKsuld9pxDBisTHYgiezlHbhh6IJ5HHVsDkZ2qwS9TttI1gBbiNbC7OyzIf0DseXpbdXk/ZccOTuZKs7DxbykeRW801ssplhP1ZkBIx3nHhvnu3IXNXRRIrirolxz1R09H1h4ZI5oyFkidJEJVWAdGDKSrAqwDAHDAg8iCNqD0+z6QnXdRkvNYvUgghi6ybBCv1EbYW2sYt+KR3fAUZPpvISTkGUSNW1m76Q3lvZWMAhtoE6uytFbEFpbp9aed9xxEelNcPxFmwoz6AZPkTumHTq1sLd9K0eQusmBqOpj0XvXXYwW5GTHZKdxwkGXfJYFmlYmK10r8mE1ja28908cM9yeJLBuL6WlvwkrcSpjESsw4Aj4cns2YLWVOoMoMFFe/wDmeeWb6HONDu3xZ3cjNpkjH0bW8clnsyTyiu2LPFnlOzLg9anDiq+yGUgkHYjbFZUBFAJFANBlAJFAFALCgWaBbCgW1AphQGooGAUDFFAwCgOgMUB0GUBKKDYoDVSSANyeyg+M/PH8rYvLsaLbPmzsHWTUGUgrc6gN0tjjnHZei7jO85ClcwVqRHgtdGWfPz8moPX/ACg+bfcWtpHqFlNHqli0atJPagsYX4R1nFGOJjErZ/SbMm4kSPB4s6qseTjQtNvEktbmdrK8kZWs7uRs2Wy4+j3K4zEJG3FxxEL6IwMYk1VxO0jpDf6Bcz2V7b9ZbzDhvNPn3t7qI7CWJwCA3bFcxb5AGduEFa6W9Cvo6prGiTyyWSyBgwOLzTJxuIrtVyQo24J90kQgEkEGSaKh5S+nyajLHc/Ro7e5aPF48TYjuZwcdeIsBYWZMcarkM+TtUgpEs1XRDluKaOl0R6I3F/KIoEJ39NyDwIO0k8s43x78Demj698j3kGt7QBtpJTjjuGGd+6Icu/BIwDggE5as0ex6Z0x4SbXSYFnmB4Zbhi30WFuWZp1y00gOf0EJJyGUsuCtQW/oz5JUMi3WoStqF2u6tMAIIM81t7Zf0UQGw4uEueEEnOctHpHCAO4e6gjzSDnj2n8B+O3rqCI9wT3n4D8s+tjQJku8D7K/H8VHtyRQc641Id7H1DA94GfiPXQQbi7XxP9on/AKmoObcXfgw+fUaDi3t54sPd+IoODe3h7yfYrfcQfhQVvUrzvAPrBX7wRQVm8uBvzHq3HwyB8KDgX8gPaCPXj+X3UFW1GHc4/I/z9m1BzrfV5IieBscQwwIVkcdzxsCkg/iUkdnfV0JuNMt5/wBWVtJT9ksTaSHu4nLNbseWGLR5OSy5wHkdjo103uLMm0uozJD9q3m3AU59KFznCnORgmM7HCneg4flF8g8NzG17pR/ektjsynmRjcqeeCMg8993qweAyBkYo6lXU4ZWGCD4g/eNjWtEmK4polxTU8j0bTvKXKtgumWFuYXuWP06WLikub9i2IoVwvHHCq8I6iP9YxbsZw9F3s7K26OqstysV3rhUNBaEiS30vIyst1wnhlux9ZIPqx+ixIPCSHG6K9B7jVGm1TUrpreyD5udRuBxPNJ/ubVMfp5zjhWOMcMYGMeiEM1MVfVrOK5vWi0u3uTFK4W1t3PX3LDAHpdWvNiGcgcQQH6zBcimLr5T/IM+kWdvNd3cAvp5N9PQhpEhKkiTiBPEVccLeiIxxei7lTmS6jyutIRe2gdSpJGcEMpKsjAgq6MN1dGAZWGCCAalXX3x5tXlkOtadm4K/0lYFbfUFGxkyD9HvVXb0LqNcnA4RKsqjZM1zV6pUUNALUGqDRFABFAJoFkUAOKBTUC3FAa0DAKBiigYooDAoCAoCoNigKgIUHn3l98rH9C6XLdpwteTMLTTozj0rqUH9KVPOO2TinfY5CY5kUH56WVrwLgszsSXkkY5eSRyWkkcncvI5ZiT2k10jJ9aqMzQX7yYeVrUdEdZ7fj+jzk8UMyv8ARbrg9F+EkcPGuOEyxHiQjB4hxKZix6prPk30vpJG93opjstSUGS50qVlVJCPrPDyCgkgdZGvVFiONYGYk58NPOdP6fdWh0fpBbzvbwkrFIVK3+mOeTQlgTLb43MDFkZSChICqdbBQOkMz2E91bWt8J4JUETzWzusV1A4V+B1PaNg6EtwuHXiO9Simyz1BBmuKCz+TjybT6lLhcpAm8sp5ADmFO+T2Z3wcbEkKYPrLozoVrYwCOILHCgy7nYyd5cnsz9nJJJAyxO0FjsI5LwDrC9vaHlGCUnuVPLjOzQQOOSD9JMuM4DHho9f6KRRxIkcaqiKMKqqFAHgB39p5k7nJzUou9lqg9fz8+Hj2VB1kmzuN/3jyHq7/Z76CFd3Qz+03jsB6l3+INBEkDtzO34eodnt/KgWtiOe59X4EYHsJoFyW2OQA8f8gR8aCHcsnawz68/DJoOZNcR94+IoOLeTR9499BwNQRTnBB/tfhk/dQVbUoMdh9n/AKcH4NQVXUEG/b9/ww3vBoKzfju+faN/7woOBdSkc98+r4dh9nCaDmzoGz9x/Ps9tBC+jkHt/H+fzzqwd/T3DoI5R1sQ+qM4khJzvC+7LzJ6vPA2TyOHFHV0XrLSVGD5RzwxzAYV++KVfqpJvgxnKnmp3UmUZ5UfJDDqcZnhUQ3ajOw9F+3BxjIO5xzBzyyS10fKmo2MkEjQzKUkQ4II9mRnGQcbHtoDhnrUHY0TW5IJEmhkaKWJg8ciHhdGHIqRyNUX/wAn1vpxWa/1W4aYRyYXT43b6XfSsofjllP6q2yfTmyzMwZfROOMLhpWk6t0quVWNEhs7f0EVVMWn2EQ+xGqgBpeHmAGlfIJ4UxwzwL3qnlQ0vo3E9poYS91FhwXOrSBXRNt1gHpK+CB+jjPUg4LNOysKz3o+fekN7cyyG4uzM8twBL1s4fimUkqHRnA44/RKKU9AcJUYwQNs1zaIygsvks8praLqUGpDJgA+jajGMnrbCVl61uEZ4pLYgXEe2TwugKiRsyxY/SHiQhWjdZI3VZIpFIZZI3AZHVhsyspBBBIOa5tBYUA0A0GUAmgAigAigWwoFsKBbCgNKBiigYtAa0BgUBigygIUGxQNhiLEKOZOKD4A85TynDVtYlMbZstL6ywtNzwyTK+L26HYeslUQqwyDHCCDh63xiV5tW2WVB0+i/Rie9njtbZOsnl4urTiROIojSEBnZVB4VOASMnAGSQCFx6OeU6605ZNN1G0+lWQY9bpt4rRyQsc5e2lI621l5kFPRYknGW46ipN55OQw/pHo7dTXCw4ke2B6vVbH1xoczxjkJoMg5xhsMaePLRXlA8v0eqad1OoWSSanEyLBqEZEX6PP6TrVAHpYBHV7xMW4gsRXfMHiE81bHPnuKlFj8mvk8m1O4EaejEmDNLyVB3A8uIj3DffKhsj670zS7eythHGBHBENzjeRu/A5knZVGSSe1iSZ5DbDTmkZZp15EGC3YAhNvRllU7PKRuqH0Igc7/AGtC36dKc5J37+eO/HaW7yf5Vmi2afqn1VGd/bn58dvWKguGlXoXn6R7s5UHx/aPh/I0FmtLpn7cD2e4fs/f2HBoJ8dkBz2HaT+P/q5dxoNO6jkOLxbZfYMb+tVOe+gU5LYySB3gAD2cWSfhQRJ7ZO4t6yT78mg509uo/ZHtGfuNBz5ox8g/gBQcS/Xnn48QHxBoKxqNsvcPYR+AX76CrahAVzgn3/gTj40FY1K4O4YA+sY+fnlQVu+kz4/PvHr3FBw7qLPz2/cfgfGg50lvv8/IPgce2gfBbcXMbDtHMfPu9XaHWsdMIOfcew+vu+fVQXLSdOVwUZQVYYdGzwuOzPce1XG6nke8J2lwtbSJHIS0Mh4YZ25q2+IJz2Pj9XLylHYDkUFZ8u3kSW9iMsYCzqPQcD6xyCUfHPPt4tiMkDNiPji5t3ido5FKujFWU9hH3g8weRG9bNPhuKkV19Ku0WSNpE62NXUyRhzGXQMCyB19JCy5XiGSM5xtWh730n8tF5qvBpGh2b2tjjgS1tlAlmX7TXDphY4v2xx8Lc5JHyAuf3EWLT9L0Te46nV9UXlao3Fptk//AMxIP9blQg5hXEYOzYIDVpmuHcpq+vSTXbrLdC3iZpJSFitreKMF+qQnghi7eGFTxsSThtzRFDVqAqDTLnY7g9lB9f8AmUeUc3FhNpEzFrjSsPbFjlpdNmZjGB2n6JJxQHnwx9Rvvtzrb6HqAaAWFBqg0aAGoAagBqBbCgWaJRKKKYooGAUBigMCgKgwUB0BAUHnHnF+UttJ0e5uIji7uCtjY74IuLnKtKP+7Q9ZP49XjtFWD8+rCyEaIi8lUDJ5kjmxPazHck5JOTk10YPoNE0F10TyQ3l1aC8smiumjLGa1t5eK+tuBiFka32kZWwGVoeMjuGCQajp2floW4QWmu2zX8cfoJdZ6rVLTHYszDMyqRkw3G5OctsForma50HlslGq6Rfi6tYmXFzA3UXdqzkBUurctxoWyFJHFHJ2gAgVkebdKulEt3PLczsrTTNxSMqLGC3CFzwIqqDgDOBuck5JzQV24uKBvRno9Le3EdtCCXkOMgZCrkZY+Azy7Tj1glfavQ3oRBp9sII8BUHFPKftsBlst2gZ338dsgLlUuxtjOyzup4B/qsLDG2NriRSPrH/AGQIwqemfrKp0LBFbe09p/Afifx5YDzkHhA+fn2evYEOpYXHDsDueZH4HfAPfuW7M9gW7Q5PH5+ezcnx3wF60q+zgLy7+z1DH3Lv3kUHejgLc+ztO/8AdX6o9e58aApI1Xmd/ex9nP4e2ghyTju/vHJ9w2959lBEuT6z68KPxPuNByrh17/vb37N99BzbiZe45/gP4H8BQcG+uvAe0EfnQV7Ur0dqkf2vwYLtQVi/uhjnj1jHxG1BWNTl7PuPz+NBV7yPuPz9x9mKDkTN37HvHI+sfnQHFD3+/8AI/g1B17HTeXz7B/5T7KC06bpHhz7O/1fl+XCQsdjpGMfBu7wbw/zyedBabfQEmRopVDK44WU/aAOcHtGDurc1bByD9YB6N25jkOnXZ4iyk2kzbfSIk5xt/8AMwgZIySygOOXHWoPnfzovIO2WuIU/TIM7D9dHk55fbHvye5wRR8oQT/JoOjBPQXTon03voopLO0leNbySNZFiCrLK31Ej60YkCMWAMYcK22eZokeh23QPTtKHFrEv0q6Ayuj2cg9E9gvrxOJYR2GKIM/bkjIE1S77pnquuOljawEW6fqtOsIzHawjOzyKMKx3yZrhuZO68WK1IlV3p10JbT5VgkntpperDSrbSiZYHLMDBI4HD1qgBmClgOIDO29ZcAGgyg7nk98oDaRqVnqi/Ut5BFeLv6enzlUuxgfWMaYuEXkZIl/iqWLH6WS8OcowZGAZGByrIwDKwI5gqQc1yaLIqgTQDQZQBQCRQLYUANQKIoDUUDBQGtAa0BrQboNqKAhQFUHxN55XTf6XrMdihzBo8HC2D6LX94qyTkjkTDAIUUnJUySjbJJ6SJXidaZEIiQxAJCjLEAkKCcAsRsoJOMnG9GsSNDt4XmiS4maCBnAlmWMzNGna4iUguRt6IIPuolXnVPJFqFoBf6ZcC/t4zxLe6ZI4liPPE0CkXMDAYLKVZVB3bY0WAl8r9pqA6vW7XrJccI1SzVIb5cbA3EYAiuwu49JVYDOMnlnVeadM9Pgt52jtrsXkDKrLMkckPEG9IJJFJ6Sum3Eu4B5HbYKncTUHNuZ/nt9Q8aD7A83byUGythcyqBdXIzuN4ou4fIzuRkMtB6HeQCeQxf7CAgznskl5pBkc1XIeUg8+FMqag7kVsc57SP7o+7J+A7tgJokdXjkPUPn4moFMee/rb57O4dvvJCRbrjc/h8/gBt4EO9pdweZ2HYPz7cHx3PhQX3RLwDBJ7vZ3ADx7AB7KC029+WwBt4D63/AKfifVQPaMD8f/UT/wBRPqoI0k/YOzu7PaR/yqPX3BEkBPdn1Fj7/SINBzbyBu3i5fPNh8MUHJmtz2bf2h+BoOPexN+3/iP4GgrOqW5/az6x+ec0FN1eEjlg+rY/PtoKxeMp2Ox+/wDA/O9BwrtSPEfH8fxHqoIqpxc/f2/5e8eNBPstNI5DIPz7PVQWvSdM5bZHbn7j3gd/ZQW/TdL5A8jyPj3Hx7j7D30Fp0/Rt8Efz/Ij8zvvxBYrLR8Y/wAJ/wCk93h+O3EE3pH0MW9gKZMc0ZDwyrs8UqbpIvivaPtKWXt9HUHIs7carZyQTqsd9bN1Uy42WYDaRdt4Lhd1O4wxGWKZpR+ePnDeTBrC6aZUKRyOVkTH6qYE5Bx2N/zb5PGAA8vt56o6NvPy+H5j86D0noLp+lCJrrUbqZyJGVdPtkIuJiArccly/wCjhhbixxAM7EHBBUigstz5WL+9A07S7b6DbOcCy05XMs2dibmdQJ7gn7TOVQjGVGM0gLWfI4tjbyPqN9b2t31ZMGnRD6VcvJjKrcGJurtVOCSzsx5bZODdR59EMkAAkkgADcknkABuSe4CqyNkIJBBBBIIIwQQcEEHcEHYg1IAkjDAqRkMCCO8EYOfZWqr7e8z7p4b3RI7eVuK50mQ2Euc8TW4HHYyEHfe2KxFskM8Tnb6q8qse0mooaATQaoBagA0ANQLIoFvQGtAxaAwKAgKBlBlAQoCUUEbWNeitILi8nOIbO3mupT+5Ahcgd5bGAOZJx20H5fw6hJOZbqb9feTTXk+TnEt1I0zLnuTj4ByAVQAAABXWdmTaIvfkl8tFzo0krQRW80dwEW4iuI+ISIhYhQ4IZPrn9pScZVsDExrXo8updE9Z/WRyaBet9qIA2TMfBV6lRntZLY9nEdsvB5V7W/N/wBb0pheaZObqIDKXWmzESFf3oVYtIpHNUM69/ZUtMUvXvKpbXiyrqunL9MCsFvbMLZ3JkVTwC7hK9TMC2zMVRwvIbCivH55qDmXM9B6X5t3k1/pG/Ekgzb2uJH7mcY4V7tsg+BKHcA0H2XreoNGgEQHXSsIoFx6IJz6RHZHEoMjZ2wqjbIrOh+kaOsSLGuSqfaOcySHJZ25kszEs2Scctwow0T2XA8T85/Ae6oI793b2+A548M8z4UBwW+d+wfE/PLuG/ZuDokyRgZ7h2es/ujs/aO/dQdK3bh25sfnJ+cCgsGlXODz9bd2e7tH3n4UFz03UgAABuewcz6yOfqFB2oYsj0zy+yCAB6zy9g376AmUcgNvH0V9xOT7Tmgjy55A+xRgDwwN/ft66DmyjB+zn2E/Akn4UEC7n8QPf8AyoK7f3A7/gaCq6rMDnkfCgpmqOBncj15x8fzoKpqCc+zxG49o+fXQceTI57j55Hs9vvFBJtLHi3Hf3bg/vD8R8aC2aLpZHMfzHh/LbuxyoLlpOjcscj29/h4MO/2HPYFr07SAOzY+HL8t87dh27aC3aZo4ICnnzU94A5H1AeOcAjluHWt7AYIIx394PYfuB+H2aCZCpU57Rz8e4+75Aq6Kd5QrM2c0erQKSEAivo1H621J3bC/WktmPXKcZKdYvIgUFC85nyZQ39sbhQHjmRUlK4xkj9DOD3tspbsIjPjVH5karpj200kEn14mKnsz3MPBhhvbQPtpqos3RK7tVnQ3iTSW4yZEgdY5G9E8IV3BCgtgMRgheLByACHrWl+UzUbrNloVl9AhbZo9ORjcyL33V9tK3Z6TNEuMA5GKC36P5r6WyC51/UoNOjPpGFHE11IeZAYcQLnt6pLgk+OKJXWXy/6PpI4NA0tJJwCBqN+peX1qv67BO/CJLdcgehsMMqPBtd12S5nmuJeHrZ5Hlk4FCKXdizEIowMkk/5mtIhVR7D5oHTL6Jrq27HEOr2z2rZzj6VbBri0buJ4PpEW+/pruN887Fj7lIrLQDQaIoBoNNQA1ADUCzQLYUBrQGtAwUBigKgwUB0BCg8H89fpV1GiLZq3DJqt5Dbbc/o1ufpVyRjHossawt2YkxsSKsSvjKujIWNAlzQejRaboF2iKtzd6Tc8Kq30pfptlI4ADMJIVWeLjO5LqUQnuFS1qJFj0T1/SAbjTpTPa5z12mzLd2r/8AEt1LMDyyZIRjOzbbZqqh5WPLZNqscK3Ntax3ELMZLmKPgllHDwqjZyyqCSxXjKs3CeFeFRVHk9xNQcu4ck4UEkkAAcyTsAPEk7VB+gfkQ6ADTdNgiI/TTASzHtJO4HuO3bggHPDtB3tHXrpnuOarxW9v3EBv00oHL05BwA/sR47aUWPquzsHPx7/AHnb2HwqBMvMn2+HgPV2+r15oExw527+Z8D+eCfh2UDpTk8I3A2P7x7vV3+6gnwxgbc2Pz7h89lA9I+fxPz8igl2kvYNvHw7x3fxHn2cxQWTTLvHLn29m3j3Dw5n4UFqsJsjPb2Z/Adn4+NB0HQbcXPsHM+wDl7cUEd4Cezb94/lhR7c4oIlzaL359QJ/P7hQcW+t1HJD7gPwoKxqSc/Rx6xn/poKVrA57D2Hf3el8aCnahc4zucdzcvxFBw7jvG33e78qAba3ycEYz7jQWLStC3BGx+B9X5cu6gv+i6ICMY+fD8uw91BbdN0XhwCMg8xjn4jx8OZ9e5C32WjgAciCOfeMD8O3uwew5Dp2tlghfap9X4gjFB0lhDAnk3I+sfgeX8xsHOmbHrHZ3jtGPD3dnJTkMj4XVo2wVYY33BB237weR7/VVHn3Qu3EX0rR58lIV44Ady1hMSqKCeZtpA0WR9ULFsM7h8I+d/5Mmtpxcgbo3UzEfaB3jk9TcQ37esHdVg+frWeqOrby0Hv2jecPqskEGn6Vax23DGiN9Bti88jgYaTZSsXGfSJCcQJz1lTAu48j84Y3GuajBYM27fSJWvtQkHhbQtJLv2cbqRvkCrqOJ00n0gIkWnJeySK5Ml5dvGqypgjgjtoxiMZIbidi2xGCGGNRMVVGohgNAqfUnt2iuos9dZTwXsWDgmS1lWcAH97g4SO0EjfOKlWP1ItdVjuI4bmI5huoYrmI98c8ayKfc3h7K5tCagGgGgw0AGgA0ANQLagJaA1oGLQGooN0G1oCFAVQfFnns9IhNrVpaDddM0/ibuW41KTjdcftCG2hJP7Mi95rpxSvDCa0yW5oJnR3VIYZ45Li3F3CpbrLdpGiEgKMo/SJ6SlWIkBHaoHImiRcp9N6PXeepurzSZT/s7yP6ba57lmtws6r+9KpI7aldENPJXq1pm602dLlFGTc6VdhiAN/0kaskwHbgxsMZzUHlPSjpPNdzPcXEhlml4S8hCgtwqFBIUKvJRyA7+05Cs3c1B6F5tXQL+kdWhVhmKD9NJ3ej9Udu/MjxUcqlH290r1g8LmMgPKwggx2EkgEY7FAaQfweohBO0mBY0RVwFjUInZy2yfEAZPjmpR0HfA+J9XYPntqBb8sd+5/Lu3PwU+NASLgeLZPs/ny9W/ZQbgAXJ7eQH4+388ZoJMCe88z+P4DxzzFA8v2DkNvWe71Dt7/fQOtz25HeSezx/8o9tB0bKYnAGwz29veTnme/Oy+vkFv0W6J5E+vtPqzyH7x3PZQWqKMAZyBnmdz9/M/xbeFBHnkU9uw5FhxE+odnsAoIlyhxnfHYSce7fb3UHD1QDHLf1j7+IGgp2qq2+Dj2/iCfvoKbq8mc5Ab1bn8TQVG9weRPqPzn3H2Gg472mTt7B2H58MHwoO9pGjcX45/HvH7w/Ogvei6HnbG47/wA+0dx+QF50fRSMHGOz58ce/l2KQFytNLGB3H4HsI8G+/HsDoWacOVI7fcdzt69yPHPeBQSmjB2HaOJT8+z2eqgj9fghv7Lj8fnx76CPqg7R28/X4+vt9veaDnNNsPk+Pu5+HKgqHlLn6o22pLztX4bgAZ4rWYiObIG56s8E4xnBQ7c8h575ynQRL21fbIkjMTEYO4BeJx3sBxKD3qnhnUH5iPC0TvG4w8bsjjuZSQfiDVHStpqD0PyedIdUIax02S5H0g8bxWx4ZJOFcEl1w4UL9YcYXbJziguUfkX6kl9V1Ky09iSWiLm+vST3wWxf0j3tLtkZ54pBIvNY0C3jkjtrW91CZo2Rbq8mW1ijZlIEkNtApdihIYdc53HLFaHn6NRg9TQGy9h5HnQfcXmfdJDcdHbNGOZNPludOf+CCUtbeP+rPFk9rA1ybexmgGgCgygEigA0C2oFtQGtAa0BrQGtBug2tAS0DreLiZV72A95qUfm15Vekf0zWdZus5V9SuIYznIMVkRZxlf3WEBcdwaus8MqyTVQlmoO/0N6W2tt1q3WnQX8cvBu8ssM0PBxbwyxnC8XF6QKNxcK8sbljr3Nr0dufqT6jpbn7M6R39spP7LwhLjA/fBNStKz0m8n7WsbXdtqNldRLhC9rcNHOBIeHDQOEmGc+koyAOed6g8yuJaDj3c1B9heZz0a+jaXd6gwxJcv1MR8PRHwxxjwapWXphuuK4X9iCPb/iSbfCNW7c/pP4sxpYorrJVe7c/Pw9tZEy4vM4XPifZyqhscmcePpHwGNvcAfUaB7TZ+eQ7PhuPE0BRDJz2D7+33ch40EnrOwc2+A/9I+NAxWzgDkNvX/n91A5HB8FH+I+H3L3DfuoOjaLnfOBtt2Adg8fxPOgsNheYOBz8eQB7W7Sx7AKC06fd8Xj4nw92MdwwB2nsoJsrKvbufaT7t8ergHj3BCnDnJC48Tt92D/ib10Ff1F8Dcx+w7/eaCnarc88Y9hJ/ECgpOsXGezf57D2+rJoKvcuCccz7iPfn78eAoG2GmFm7fUe3+fx+6g9E0DQs8OxB7D+Hzz8DvQXzSdGBA2AI+HiO9T3cxj10FrsLQDmNvtD8fZ8QPaQ6iLw4zup2PhnlnwPwProF3K9naPeV7MeI2378d1AMMp5dvMHxHP2HOR4NjsoIss42bsPot6+w+vkfDB7qBclxlSp9Xu5e40HAa9xz7/j25+8+z1UEe5VZEkhfdJEZSD2hhwn4H2e6rBSOjkjTaf1Eh4pbcvaOe+S2YdWx3O7JwMd9+MnkRWh+dfnI9FvomqSFRhLhVmXuz9Vh7uEnxb10FBtJqDv6NcOHXq3KMx4AyuU+v6JBYEYUg+lk4xnNB6pbeSqzt/9f1iygI5w2YkvpvEHqlESnxLkUHWtukPR62/U2N7qTj7d/cLbQZ/dhtV6wqe6STNBSdV1NZppJVhit1kYssMIYRRA8ljDszcI8WJ+FWMFK1UNWg+l/MN1sibXLIn0WWx1CIfvES21ySfFUtvjWK2+r6yAAoNNQaoBNABoAagWaJgloo1oGCgIUG6AhQEtAu91ZbeKe5c4S2t57hz+ysMTuT7MZoPyv0CRmgjd/ryL1r/xynrG+LfCusZS3aiHahos8SLLJDNHE6hkkeJ1jdTuGV2UKwPPIJFFd7o35SrWKBbe50mwvEUsRPma3vDxsW9K4ikw4XOFVo8KoxUU26uejs5+pq2nsR9hoL23HsYJcezJ/OKonTjQbSHq2tL9L1ZOLI+jy28sWMfrFkHCQ2SAUY/VOccqCjXcvOg4tyxJwNydgO9jsB7SaD9GLbSxY6VpVkuxEXXN7iEz78f2TWRyNDus5f8A3jlzy5clHZ9lV58hk/apR3LPUN2NQOjv8k78zj2Dn8/yoOnbajzPecD1Dn92KBv9JdufH59Z7PCg6lvOAAPAE+vOw9/3Cgdb3GcntOw/h7/7R/Cge823r2HqzuR6ztty2oJFt6WB9lfieX8vCg6iXOCAPYOzbmx8B2e2g6NnJvgesnl7T3d3hso+0QFi0m97jsNvaO7ly7+QHLPOgtmnRKwzsc+7+Z8SaAb63GTn2Z39w5e4Ggr2pRKNzt6wB8MCgo2uYOeWD89n4EUHn2sR8JPLHj+B/wA/hQc+LS+Mg4zvzH1h+BoLzoHRwEAEZ7m7/nu5jxoPQdJ0DAGdxzB7x2+0du243xnIIWGLT8AdhPI+I/PkR34O/aDluPyPgR84x6gaCRDOCOE8mBx4d49h/DvoFC82Od2Q4PiOfxX40EKa7w3r7u/BI9/pD+73UEKW63YftDI+/Hvzn1+FBBe9ORv9dSPavbQcy5uhse/n6zt9+/soII1LGDncHH37/f8AIqwVeC86q+uk5LcRR3K88ccZ6mXtxnh6o7Dcfw1ofLXnw9Fx1NtdqPqSlG5fUfl/iKDuwKzB8n2ctaHatpKD1Lo/0Z0hYo5LvVZOJ0VmtrOzd5IyRkxtLKVi4hyOMgHt50FhtelmgQfqdLvL1hyfULxYlPris1Axns4zt2imCu9LOmKXkqMlpZ2QVRGsFnGyK3pMQz8ckjSSnOC+QSANtqSphN5os0So0sMsSycXVtJG8YfhxxcBdRxcPEucZxkd9aQpWqo9b80TVjF0ktUz6N7ZX9m3dxKkd1GfWDbuo/iNY5NR92VhQmgFqDVBpqAGoFmgBqDa0DFFAYoDFBlAQoCWgoHnE6kYej2uONidNngB8boC3x7ePFB+esMeFUdwA9wxXWMBdqK9X6KedlrNlDDbxzQSQQRpDFHNboQsUahETij6piFVQMsSx5kk5JmKnXXnVQ3A/r+h6Zc55tGgQ+6RZjn+3t7sZVxb3pt0UuD+l0q8tGP2reXiQH1dePhDQeP+U2LT1uB/Rkk8tsYlLG4ADrMWk4kH6OM8ATqyCQx4i3pHbFRQLySip/kz0c3Op2MA3MlxHseXoenv4ejQfePlm1MC9liT6tvFFAu+SMIHHrxxj25rAqsF3w5HLhHDjPqH3DA8MUEmHVcL7c+7+YoHDVd8dwA/H7z84oOjDquB6l+LbmglQallgPHJ9n8+L2UHVGr88Hmcfh/Og6Fvqnb4YH3D8/dQS1v9wAe4e2g7lpegDwoJFtejduROw8F+fj66CdBe7Y7Tz78Ds8d9vYx7aCw6O2w7uwcs43JP7ooLfZanwjnufnb8tz6qDqXTeiCfR7T+0fWCdh4sc+qgruo3Y39I+0be4AfGgpOv3RweRHirD47igpU8PGccviD+GPUR7KDudGujxB5etfduv5d3sBD0/RdEVRxY9E/WxzU9jAff6/XQWa0twMjbsI7s88j4H1eIagiXUowQOR3Hgw5gfPaAKDky3u5/e39vb+Y9Z9oIi1M7+HpD1j63vG9Aq81PDBhybAPxKn7x7qCHPfAbesD2bj4cIoIN3qwGD3Nn2N/Pag519qeB/CwI9Xh7KDlXOpcxn7Rx6m/Leg50+o888sj59mc0HA6Q3+J7SX994W23xLGcer01Uf2jWoKJ5xejfStBvQAS0Hpj1p6S+oE4+FSD8+rOWtDuWcvKg9j8nI6PLbLJqLX0l1xOGgg2j4Q3oFWCx/WXGQ0x3zyqC+Wflc6OW/8Aq3R8zMOTXkisfXws90AfUaDsQ+eTdxDhsdP02yXGBwQsz4/iV4lI9ce9IKJ5RPLPqOr9X9OmWQQljEqxRxqhfhD4KrxnPCv1nI2rbKoIaqLX5ItXEGuaFMezVbaD/wDmcVoP8Uy1m+Fj9I50wzDuYj3E1zaKNAJoBoNNQA1ADUCzQbWgYKIMUUYoMoDoCFB4v55l3w9Gr1QcGa60qEeptRgZx6jGrD21YPiBzXSMI7mgjNNgg7bEHcZGxzuO0fhRqL3d+XbrCTPpWiz5PM2XVt7GhkQqfV31lXHuvKFpL/rdCiQ9rW1/dR+5HMij3/jQea9KbuBpXa2jeGAkcEcknWuvojiBfA4vS4iNs4I570SqpeSc6K9U8zrSuv6Q2YxkJxSY8FK5PsUmg+gunGs9ZqF23P8ArMxx3hHKgdvZGBWBwhqGx9g+/wDKgcNS5b9w95oGpqXb3n8T+GffQSjrG+O8/DlQPstX3J7h/M/HNBOi1g7b959vIffQdC11zx7z7th+NB0LLXeRz3n8BQduLXvRAzz+TQdO11vJA7B9+34kf3aDraVqXEfWcewc/gKC26ZqvaOWAB+A93pGgsthqo2J3I5d3ifHuAxzoLLYScfM7d2c7/iRz7h6sEgd/p6gDO3d2Z922fAE0FC1+wAO3v8A5ggj1nIHdQQ9E6LFmO2T3Edns2PgV7eYXnQXvT9ECKM7EcvyPgeXt7OI4DqQ3IU77A8x8CPV8jbmATXWNgd13Ge0cx+I9RPPlQcfUdSyTg4zuP4gM/n7VoOPf6mowy8iAw9fb8Dn2UHKbWwGG+xPwIx9340ETUdX9EjPL8PSHwz76CLLrORnPZn3CggXOpei3t+BJFBBudWyvP7IPt3Wg5lzqnjzUe8Hf4bUHOutW57959+cUHH13Vcx5BxwSRP7nU/iT7KsHSWNbmy1SA8jbF9vDJ+8AUg/MjT2I2PMbH1jY1od6zkoL/0J1rT4kf6ZZS3chYcHDdNboExurBVJY8W+c8qC62nlTsI/1Og6eMdt1Nd3fvDSxr7MYqAOkflYe6g+j/Q9Ntoiyt/VLRYpMoSQBJxM/DzyM7ikFZhats1JSiGQ3hjmtJRzhv7CceBivIJAez9nvHrHOpVj9UtTXEj/AMR+O9c2kRqATQDQaNADUANQLaiNrRTKM/cYo0MUGCgOhBCg8F8+GTGhQjsbWLAH+ysz7eOVFWD4wc10YR5TRS7PUmhkjmXh4onWReNVdeJGDLxKwKsuQMqwII2OaNLjd+cFO2ess9Ik/i0+FT/gK9/dWRxbzywwt9fRtGbxWCSI++OYGg8w6QX6ySSSJGkKu5ZYo+IpGCchV4izcI5DJJoK1ePzoPoH/R9WhbpBxD7FtLn1MPzA8aC4NfF5J5M7kzPn+J2Ps+tWEqA91sfXn7qKNbvf2j7qDa3nL2UG/p+/z3fyoDj1EgNv+1+FBL/pM9/YB8aBsWsHHrH3/wCdB049X5DwA+IH86Drxa1uPd9386Dqw63gE5+fkj3UFj0jVsDf9kfHnQW7Stbwo78f5H30Fq0rU+S5+r9/L/CAT/lQXjSr/AA5d57h3Y7SOfdlu3AwFnnswy5I7ueCR6yx3z7vAUFZ/oAvJjHojl3g+Hh7cE7YoLFb2KxAHYMvPHIjtx4Hnjs37hgE6tqqnkeWN/AjPz66CuXetgZyezw5gb+wAEUHOvekeCpzyPCfn3++grt/0i358ifgRj3hsUHFuOkGQBnkWX1fWH4j3UHGl6RDY/Ox2/Cgy66Q4B37viOGg50fST0Rv2ff/nQR36QbEZ+cCggrrew37D94/nQcubXM8IzzUj59tBzn1vx/YP3UEG41fiThz9ZB798fHFWC8+Ru/Ekt6p3DabctjbfhMZ5HtwTQfm5qkfDcXC/szzKPUJWA+FaE2zflQXroV0rituMyWNreFuHh+k9aRHw5zwiORAeLiGeLPIYoL1a+WtV/V6Voqf8A7Ti8ObSk5xtv66B+s+Wu4uYXtzDp0UcgAb6PZQRSYBDbSAF1yQOTDOPXQVSJq0yloaCLrk3DCz/scD/3HVvbjGcdtSkfq/evluL9pUb+8in8a5VpHaqBNANBo0ANQA1ABojFopgoyOjQ6DKA6JBChHgPnyH/ANi2n/8AubT/APBc1Yr4ykNdGEaU0UOm6y9vLHPGVEkTB0LIkihhyykgZGHgykHurLS1XfnHX5+sbBj2ltPssn14hAoObceXK+bnBp8nr0y2JHq4YxQeUa7fNJJJIwVWd2dlRQiqWYkhUGAoB2CjZRttQVq9eg+l/wDRxt/7bn/7t+L1KOjpAbhlz9bqjn15GfjWeIRcg4NBrB+77moMAOFoN8B+fU1AIU4Pt/5hQPlQ/dQEsZx/ZFB0IkOR7PxoOlahtvX+X86Dr2sbHPz3GgtVlatwnY8vwoLRotnIeHY8hnn2EfhQXjRtMl223ycH153zQX7QtGkbfs2JHrI7fUDn1CgtenAqCrNvgHGT6O3ge/v7jyoG3cjBCEHMELjn245evmO7txQVrUruXDD9wZOe0cXz7+6gq19cSni/gAProKvq1xLh9/tOO39gmg4+pXMuCe8jG3bgGg4uqyS5FByJZpBn+Jj7qDlymTA+e0UBztIf8P3mghI0nAP4R9woFAv8B9woIgkfA9R/Cg5zcfof2qDnyFwPYv4UCLVmyvd6P304+R6R5uz4vLrO6/0Ze458sJjnvy76o/PbpEf63df95n//ACvWhIs35UF86CdMZrQuYYoJS4UN19slwF4SccPGDwnfGRjOPAUF6h8v18v+z09Byx/R1oFHh6UX4mgfqPl3vriF7dmtFilUq6xWVnGzA9zrCHU7bFGU0FViNaEtDRmoXSk/1af+A/hRH6xTfZ/4cX/41rk0U1FCaAaDTUANQA1ADUSsWimCjIxRoYoMFAdCCFB4J58KZ0KE/saxYE/2hMg+LD5NWD4tkNdGKizGixmkX8scsc1vkyxOHQiMSgOpyCUZXRsEcmVge0Go09CPld6TyfUN0fCLS7cA+yOyANZ0RZte6WSfZ1EfxWiQ+PN4I9vhQeH9Mop1uJxdBhc9YxnD44usb0mLcPo5PFnbbeqKffNQfQn+j11Dh6QcO/p2smfUv82B9lBfTYcElwmORlT+65G/93wrATPppwfZ99BiacdvZ+X40BHSDgA9mfx/Kgkf0Pt7/wAaDSaISp9v5/hQT10LI5dxoJ9p0WJA27x8/Cg61j0RJCnHzz/Ggslt0GOdhtnPLsOR8+ygsmm9As5OOWM+7H3ge+g9A0LoBkAY+z78bH3jlQW/RugIGMjbB9/h7iPaPCgty6fDGudjjHd2Hx8fhQVLW+mnVsUQgrkgeGTyPPHr9lA7oveuwOdzjIP2h7OZHqoLHDek4UnLdnLb1Ab+3s7+4F3unDGO0g8R7N+e/hvnHPJoONLoo3OMZ7D2KMc/cPVvQcC96PZ2x9Ylj3jiJAHuyPXQcS/0PJAxsX+A7aDj6jouTy7x7C2PeMGg4c+g8/af7x/zoOXe6LsAB2b+HEcj4fdQZcaNheXIZ9wzQc2bScLy+QfyFAibSsDlyWggR6Vy25BvvA/CghNpnLwBP3Cg5dxpm7f2B8RQQf6PwB/Zx7WIH31eI9A8iNmEkvXOwGm3AJ/iMYHwz7qD82dWueO5uG7GuJ2HqMrEfCtCbZtyoPUvJUurATPpYn24BMYQhPJmQENknkxHCD20HpMfTTpZFnK6jgdv9Hq69vb9FZeznnNBG1zypa9NDJb3TTGKRSsgfTreNiueXWi0SVeXNXU7cxQUKOTBwdj3HY+7+VWUTojWkqPrcPFC6c+PgTHfxuq49uazUj9Yb1MNj9lUX3Iork0jtVAmgGg0aAGoAagA0Ri0UwUQYooxQZQHQbWg8W88204ujV8wGTDdaVOPUuowK59iMx3B5e0WD4bkrowXb3hjdJBgmN1cA7glGDDI7sjejUexal55WrHPBHYxD923YkerMuPeD2VnFV6484fpJcfqpJWz2W9hE+fURBI3Z2Gpg5tzf9LJxk/0io73jW1H/wBxIse6g8U6dWFzHcSLdktcHhMjGRZWOQMEupYE4wOeRyPKqKXfHnQereZrrfU9IrMk8IkDx5/i4SR/dU0H1B0v0YpeXowMdbOfYxMm3ic7eus4FR6MSM+GfxqBkeg7cu8fiKCaOju4ONtvy/GgnwdG9sY5fhz+740D7LomTnbYH+R+OaDs6X0S9EZHh7tvhjPuoLBpnRLn6PccY+HvAFB3NM6Hkqy8PLcbd38se6gt2ldDchSR2AH2+ifiF9RProLPp3RcLsRjOx8CeR9QYD1ZoO1ZWwQZ2BXP3YI+4jbt8KCBqnStEGx332yB6vURj34oPNOmHTnOeA7+B3/z7MY++grGl6qztxEnfmRv8P8AL1mg9U6N3HCv1lPdkAHl4lfhkUD7u+I9LiGB44z3Db7gfZQdrSNWV1GdgPYSezf47Z5Z3wOEOiLfiOTsMfDsHrPd3d+TgIV1aczjwX18h7hj/D20HHOnDdsbKOEeJ7ces7e2g4d3pW/Llz+OfbuxFByrnStmPjwj8fZmg5dzpeSdubY9i+iD7yfjQKu9N9H2ffQc+50nbHqHz8aCBe6XzHgB7zQQ5tKxxHuGB7z+NBy203cjH2fvOf8AqFByrzTvreLn/Cp/HHvoOXqljwhF5Eug/wAJP/TmtQWXRpRbWGrXDclteD+9ke7JU+ypB+XOnSEgEnJO58SedaFhsmoPV/JhpWrmOSXTWlCmQI4imjQs6AMMozKWAD7HGOYzsaD0WLpt0stvrDUQB9o2QmT2t9HkT/FQdSy86nX4cCWRGx2T2cae8IsPwxzPhQD0385K+1Kzks7mK0CSNGxkiiZJAY3VxwkyNjJXB7wSNs0kHmkRrTNSba1Mk1pEOc1/YQAd5mvII8f4ql8EfqpqL5kk/jI9xx+Fc2kZqATQDQaNADUANQLag2tAwUBiijFEZQHQbWg8984fTeu6Pa4gGSNNnmHrtgJ8+sdXkeqg/PCOTKg94B94zXVhHmNGohTNTVXlvKB0ivBwxTalKDsBaxyKuOze3jUAY7SeVZHL1HyV63KOK66yMcy99eomB49dMX/w5oPMemPRz6K6p9ItrgsvEWtZeujU8RHCX4VBbbO22CKCl3tB0/JZrxttVsJwcFLlBk8v0mY9x3enQfpF0w0pZLl5B9WVUcEjbdQucczgBTipoidG9M4oYzjcKVIx9pCVYb9uRj11KOpbaCPkdoB/I1B1Yej2V2G+Pj/nQdDT+j+Ty5/9Qz8WoOlY9G/S4cc9vb//AG+6g7ei9Fd2BHbxDI7DzHvx76C02XRsDDY7cE47G7fYwz7qDsWmjhH5bNtjHaM7Z8QSPXQTYIFQlTy7PEHY+3cMPE+BoFXusKoOTz9FvXjZh/EMNmgo2udNsAkNuOfj+8O7PbQeW9JOmmcjiO/Ig8j4+Pf37UFSg1N3bJJz2kdvj4/f66C76BCSQQSPEezn/Og9P0gjhGcZ9RH/AC5+6gzUbtB2jPqLH2Zx91BD07VjxjmB2ZzxH1Ds7849o50HoumaorrvgY59w9X7THt7By9YMmU7k7dijuz2fxHmT9kePII93b7KqjIGAAPtP+S7k+Pq2Dm3drj2ff8A57+pR+1Qcq9sdlHbzx4n6v50EAaWDy5cge8D6x9pz7cUCbzT+z52+ce2g5tzYb+r7zsPvPuoObc2ODy7cn3bCggXdj6OO1jj8/eR8aDnJZDc9hPwGT92KDltp+yjHM5PtOf+kig4t5Z8VxEv7KySnly2jXI9rj2nurUFZ84TW/ofRm/YbNcMY1wf2hwL6wG+8VIPzjsuz2Vod6zoPSuiHk5luY1lgurISNxDqHu0guRwsVHoycKnixxDD8iNt6C82vQ/pHaANEupBR22s0syf3beRwR61oIfSbygapPELa+nuHjDrIEuI+FuJAQDlkWTYMdixG+4O1EcCGtKmwmiVcPI9pAuNc0OE/8A6rbTn/8AZ8V2P8UAqXwkfpM75Zj3sT7zmubQWoBY0A0GmoAagBqBZoNigNaBgoCFBugIUBLQRb7SluI5rZxlLm3nt2HYVmieMg+vioPyr0NGWCNH+vGvVP8Axwkxv/iU+6urBs1GogzVlVq03pBrl1FHb2suoywxKIkjtjOsSKowEZoeFcAY/WN3eFBC1PyL3w9O+ltrQc+K9vI+sPqRWlkJ8CB66Ch9MtAtYFUQ3yXchYh1jt5Y40XH1hNIf0hJ2wqjA3yaChXvbQcG+kI3U4ZcMpHMEbgjxBwRQfqj5LdfW/sbK4X/AGtuvjzAwMntHo+3NZosHRSw4ZbmE/YkWZR/8OYDO2ScCQOOzsON6C1RaCc8uRz7uX3H31BY9L6P9mPV6jyoOhb9HwGAx24Ht3U+88uz3UHWGidoGD+O2PfsPW3hQTzYhSsmNj9b1HZvcd/d7A6bcI29h9w5f4SPAD2BzbvUBggncdvq3B+fiTQcPVOkWwOcMPn3E7e3G3aHn/SbphscHw9Rz2+Gc7UHmHSLpad/S39fz7Rt394oKNNqpdj39q9/iP5UHc0OXJGc7cscx7O0ePKg9V6LqGxy+4+48/fmg9QsxsMY5eGeXqNBzr6Hu278uPwB/A0Fcln4T2n1bA+sklj7/ZzoLFoOucJHEd+xR2eAH2f4jk9woPQLG7DAMdgBtjs8F72PeOXieQSyvb24wB+wvM7952JP8uIIN1B2nl2ePs8e7uwPGg50tkT/ABNkDw7z/ZG3r+AbNgFHgBgez8zvQQJLXO/f8FHP3nb1YoIL2Hb7fht8MnHjQci4su3v/P7idvURQc6+s98dw+Lcs+oYPsNBCuNP2Cjt2/vHJ9y/dQc+WzxxN3DA9mB9+/tNWCsaVbcUtzL2IVt0P/DGXxsNutkcdxIPcKo+c/8ASBdKhFZ2GnqRl361wP2VyeXPPGIz6jUg+MrL8q0O9aUHqWj+T+0nRTDqtr1hA4oruOW04WIGVEr8cbgHbiBAI325UFqsfJZrdsOstlnZBuJNOuetBHeotpC/+HPgKg5nSjpXqE/VxX81zI0HFwJc8XWJx8PFnjAk9LhH1s/GrE+7mQ1pU2KjNey+aDpJl6R2z/ZsrG/uycZHEyR2sQPcT9Icjv4D3Vmkfd8dYabNALUGqDTUCzQCxoFmgwUDFoDWgNaDdAS0GxQahl4WVu5gfcaD81/Kz0b+hazrNrjCpqVxPGOQEV6ReRhR+yon4F7wtdIxVPlqVYgzUadjo9d6pMhs7F754+JpGt7Z5uDifALyLGQoB4VGZCFzjG5oybe+ReeP07+5s7DO5E9wslwfHqYTI57sMVOeyhVT6TWWlRROsM93d3BACS9UttbqcjJKOWlYEZA3G+DRp5reioODeiqPtvzEPKCHsjau29pcFdz/ALKUhlb1AtjGf9meQqUfYGsaYIL21n5R3GbKXuHX/pLdiOW0ymPixt1mCdxiQei22ljCnHP0T4EbZx7j6hUHWsdNx935fiPYKCfLpgPZzGM+PNT7D7s0GoZFYePaPHtx6yTjxPhQJuZQM925x3g/W9vJh4UHCu9Z4fRJ5bZ71P1T/Zzj1HwFBVtZ1/AJzuuzDtx3+ODv8e6goevdKeYzse3PL+R/n2UHmXSLpQcnffkd+Y7/AF/f94UW/wBQL9vq/L+R9VA3TF4tjzHv9Y/KgvWgwkYyAfWBn58QaD07o2VyM5HLsz/i5/E0HollOmBu3+P8RQRL6RezJ9e3wOKCuag+O5fbv8Dn/FQQtPvirA9gPNth7ufwHiO0BfdB1ssRkk9+dgPUOQ+PfvnYL9ZSArk7L48z6x2DPZzJ50G5zzZtu5eZHcMftH4eoDIZbW32iNz8AOQH3+J3oIt8mdvf8+H/ADY8cBFls+zv5+AHIe3f/FQQru3yQo9Z9Xz/ANPfQce6jySez6o8e8+7717qCA1pk7/xN7TyHsP+LwoI81ruT3Dbu4m/AD4Ggr3SS4W3geVhsilsd5GyL63chB27r4ZsHN0jRTBbRI+7kcUh7TIx43PZzY+wUo/Nfzvenn07XJgrZjtVWBO7P1nI57kFFONsr2b1oeW2QoLLopQOhlDGPiXrAhCuUz6QQkEBiORIwDQeo2PRXSrj/V9Re1c/7K/gIX/+TATGP7SdtB3bTyRatb/prRWnQbifTLkTZx4QOJs+BTOe+oODrOtXE8he6lllmUCJmnZmlAjJARi/pAqcjDbg5zzqzwyCGkaTYa0zX0/5h2hkya5ekeiBY6fEf3gJbm5Hue3+PdXOtPrWM1BugEig1QCaADQA1As0TW1oo1oDFAxaDdBtaDZNAuSp9x8U+e10e6nWbS7HLUtPCN+9cabJwOSe1jDcw+xRjtrpxSvApq0sQZ6yOt0R6PalOXGnx3Z6wcEjW5kjRlyG4JJFKRlcgNwu2MgHszV0Ws+bVJCvW6pe2tgpOSrOssx7SPrKnF/C0nqNRmuFqGs9HrLaC3m1OUfbn9GEkfuuigjb/cPnvPOjTwjVGDMxUcKlmIUHIUEkhc9vCDjPbigr14tB6D5sXTr6Dq0aucQ3am3fu4zvEx8c8SDxkqD9bNKtF1TS2QtiThMZcfWSZCDHID2EOEkyOxsb0Fx8n2v/AEu1jlYcMhzHOnLguYm6udcDllhxL+4wwTkVKLQmO3n2/n9xx66gMXWR+8vx7veNvXnuFBX9UvuBuIfVbf1HtHt/PxoOVqWtDGx8Qe4/PP1t3CgpmuauCu31lzt+HsPKgoGqdJSe30l5fvDuP3fIoPOukHSDc4O3aP2T+Xh3eNBSdR1Itz3HYe32UEaGTv7e38x8mgsel22cZ28ea+w/Z9VB6N0dtm27fn57/VQej6DDg54T6xjPuyCfdQXC2Ax2j2EffQKuohjmSfHiwfft8KCvalZeKj3/AIn7iKDjOAu+7EdvYPHu+80Ha0DVcHsz3dg/D2/5UHoOm60BjJyewcwvj6+zf3AbALTYelgt2dnd4nvJ+cciEq5lxy5/Px/z2A3CHDF2n2DvPZ7B2HtOW32oBKbFvd49nu7uwAZ7TQcq6U5wPrNz9udvZz8OX2aDm3VqBt2Lt6//AOze4YI5UEd7bHPnzb1nkPZn2ZoEPbch28z9/wAAeXcWFBSekUH0m7gtR9SPF3ceCIWW2jJ73lDScOc4iB2zmqKj5wHlAj0+yurhjgQxMRggZYggKO4ncDtzw99WD8jWvnmkeWQ5kldpHPe7ksx9WSceHxo69mtBf/Jzr9tbSlrq0W8jeMx9WzAcBLKesTKkcYC4BypwxwwzuHrdh0V6P3/+r3kumzN/s7leKEH+JiF3PYLj1AUHRn83zWLM9fZnr15rPYTlZMcwQoZJD4dWZKg89vbWVJGE6SJKWJcTK6yFiSWLBwGyScknck57aRk6IVtpMjONzyAJPuolfdnmh9GjbdHrJ2GJL+W51GT+CeUrbeP+rJFseRzXNXs6VAVAJoNUAmgCgBzQLagxTQGpoGUBg0BUGCgI0C2oPA/PU6Ldfogu1Xik0q7iutvrfRpz9Gut/wBlUkWZhnGIjsSBVlHxRMK6BMF0Y5EkADGN0cKwDKSjBgGB2KnGCDsRsamD0Ppl5z2q3AMcTx2MPJY7NOrIXu61uJwR3x9X4AVnEVFfJvNPGt7qF7BawzLxpNdTG4uJkyfSjgjZ533yMNwniz66DkX+s6Ta7W1rJfy/76+/RwZ71tU3YduJmz8aqqJ0tvLm6zdyRYjHDEHihEUC4yUjXhHDsCe0nlk8qCi3iUHCuiykMpKspDKwOCrA5DA9hBAIPYaD9VPMn8t6XcMLOwAuE6mZf2LqP0eXICRQQO0/oe81B9DK/wBB1IgnhtdUYAHkseoquEOOQF3EpXPNpI1G/Fmgust7sR2g/HtHtHvIPfWRyL7VsekDuOY7x/Ll7j25oK/qusqwIzsd/UfwzQUe/wCkXDlSdjyP4+scj7DyNBUNW14557j4j55e7uoKB0k1ntXfPz8/OApGoaqW37e09/roIEU2fy/I0HVsIeLl7j870Fu0SyxjBx4dh+fGgv8AodmQB6P90gj+6dvdQeg6Jty9x4lP34+FBare82/9Q/KgCeQkHA/xD8hQcC9hPcB7M/E7UHAu2HLJY9w3/wDSPaaBNtdEHA29R39p/LPrG1BbtB1AAjfJ8Ozx7h/Ed6C+aPrORgHbtb7I78HtPj20Het8Hf7A5k827MDwPd28t6BjtxHHYOZ7h3fme3kO2gizz9vYPqg/f+PdjbagjomBk/Wbl3gHt9beOPecEIzW4wSeQPrye/1d3hk/bWgR9GOCT39vafv27e3mN9shydevUgikmlPCiIXc9oQbnHezH0QPtMdvrA1YKp0Usmgt5by4HBPdt1zqd+qXhAihHhDGFGOZbPMmqPz48/TytmaWLTI27RcXIBztkiKMnl9Zckc/0Sn7YoPlSxjqjv2a0Hpmh9JZrIfRLqyhmiDFjDdQ8EqlgMtHMAsiEgYDekO6gtFlo2j3eOquJdMmPKK7Uz2pPctxGOOMH9qZSBv4UHQe31PRXjaO5MSShmhltLpZbedVIDHhRmVgCQCJYwcnltmgsvSXzgr2/sms7tLaUloytz1QSdAjBiBg8A48YLKiEDPMnIuCgw1Q/wDoqS4aG0iz117PBZRY3IkupVhBHZ6IcsSTgAEnAFSo/Umz0uO3jitogBFbRRW0QHIRwIsaADwC1zVNFAWaABQZQBQAaAGoFsaDFNAa0DBQGKA6DKAqBZFBzdX0OO6hntJhmG7gmtZR+5OjRk+teLiB7MUH5ePpksDS2s+09nNNZzZGMyWztEzY32fhDg5IKsCM5rpKI01Uc+4FTETujHREXTycVzb2scSh5Jbh8YUnAEaAFpWB+wu+43Gaipl9q2lWe1tA2pTD/tF6pS2B747QYZx2/pmyKDhXMeqatkszG3TmzFYLKEDfOPRj9H90O+/qoPKr6HBI22JGxBG3cRsR4jnQcC+joPV/NV8qp0/UPo0jlbe8IUHJHV3Ix1Tgjlx44Cf2hFuApyH6x2Oqx6pp5imOJOEK5TZo3XDJNGewq3DKmDtkD7LCiB6O9N3kRknwt3bkRXIGwY4zHOn7k6AOOwNxL9nNZVq76Q7nf1+HiPxqCqa5rmPSB9fiPn86Cl65rQYZz7e755fIoKNqmvnlnBHI5+cqfhQVG/1YknB37R+VByHPEcrz7R30Eu1HLIwfn5zQWTTLTPge/wCedBdtHtjtke0fiDQXzRUG3L2bH3dtBfNJYAb59o+fjQd2GIHfb59lAm5Ukc29h2+6g4WoRd49rZP/ADHhoK/eD5HL8B8aDlTT9gyfBfzxj3D20E7Tb3H1jgfsry/tHtoLvpOrFsDkB2ch8/HwHOgummagW2zk+4AY+G3t7KDtK64x2d/7R7MDuHZ/MZAOrz6Tcvsj9o/+UfH3ZBboSfE/WPcO714wO/GBzPogCx8RGNgPw5nu2+/HYpFBudQfBQPhnx7Sce3t2bNHm+pQ/wBI3othvaWTrJdkfVluV3htR2FYPRmkGMcfVrsVNWCh+cz5XYdPtpndwI7dON8faf8A2aAdrEkHHaerHaao/H7Xukkt7czXc5zJO5dt8hQfqoM/ZRQFHgM9tBJsY+VBceh/ReW6kMUPB1nCWVXkWMuQQOCMsQDIc5C5GwO4oPQ7Tp3e2x+i38C3Ua87e/Ri6jvilOJEPYGDMo7AeVB3rLo3pV7j6Lctp85/7NfHitmP7Md2i+gO7rhns7qCrTWJjd4yVJR2QlGDISpKkqw2ZSRsRzoJVutaE+IUHtnmfdEPpWuC5YZh0i2a6Pd9LuQ0FmvsQXEnflFPYazR9zxGsCQvOg21Bqg0aACaAWoFmgWxoMFAwUBrQGtAYoN0GxQA9BGnoPiPzy+hX0XV4r5BiHV4MvgbLf2arHMCRyM1uYXAO5Mch5DA1B4TMK2IE4oOfMmSATgcsns8eROw3wN8VKLfdyaTYfqwdWuR9uRWi09CO1Yzia4IP7ZVCMY4agrt3/SWsMebQxcwOGCytwN+W0a4B/ekx30FG6Y6LBCypDcC5YA9a6IViD55RM28gxzbABPLuAUq8joODfRfPLH5VB+h/mW+cGb63EMz/wBctgI5Qec0X2JQDzOMg/vdYuMFaD6G6VSs7Jc2/wCvQcJQcp4ju0B/eyOKJux9twwFKOI/StZEDoeY27DkbFSOxgQRjvBHbWRXr3pGO/8Al89hoKZrGt8JOOR+fn5wFU1HU89vqPd3+zwoOLJKc/O/q/Kgk2r5Pce+g79lDnAI+fD5zQWfTLHu9x+fvoLno1vy7O7O3uP88UF40uA9vxA+/agt+no2NsH3j4gr91B2Yes/e9jD8jQDMGxv8WP4EfCg42oRAc2UH1ZPs3J95NBXL6LPIFvFuXu/E0HKlgxnLexd/uwPx8KCNHNg93q3Y+3s+/woLXolwcDPojw+sfDw+J/hoLxp2ojAHLwH3sfw7+ZoLPY3PItuexfuJ7h4dv3B0+Mt3cR7exRv35/ltnfAIKcZ9Ecu0955/jnvG53JAoG9VjYfPh6h7fbjcKP096VuhS0tMNeXOeqJGVhjG0t5L3RxDKxg5MkuFHGFetCNqtxDo9gsUfpSEHHGcvLK3pSSynmxJzJI3rGRlcNH5L+eB5cDqV4bKFy1vbOWmfJ/TXOWDZ7CI8+rjJGP0Smg8Ps4eVB3LSOqPSejXQBbuJfos6PdAHrLST9E7EHb6O7Hq5dseiWDA55bCgs+m+UG5h/qmoQLeRIcNBeKwmi8YptpYjjkcuuDsO4JOv6RprQ/SLK5lRuIB7G6TMq8XNop416qSNcfaw4BGSTtQcK3Wg6UIrSRLDhQSdgBknuA3J91FfcvmidBDZaLFNKvDc6rIb+YdqwEcFjGc77W4WUjkGlbnzOOQ9viFZD0oNk0GqASaADQCxoFk0CmNBimgYpoGLQGKAxQFQYKDUgoI8o2oPL/ADh/Js2raRc20QBu4eG+seWfpNtljECf/eIusgPL6+dsZFg/Pa1vFlRZF5MobHIjwI7CORHeK6BMy0HPuEqUdbozcadGjy3cU1zMrAQ2ykRwMMZ45pR+kwDtwRjfbOQWxEpsjanrbCCFAtvHgCGFepsoBzGcZBI2+sZJO0UIT0m0DS9Mjkhc/T71kZG4TwxQEgjIIzwsD38UnggxgrxC7h23HiNuY7/nxoOJewc6zQzoT01n0y8hvbY4liO47JIyQXjbG/C3CDtycI2MqKQfqB5PPKVDq+npf2Zz6OLiH7cbDZxwjkVIORy2yMjhLaHK1S54i0kW7kFpYx/tQBvKg7JUUfpFH11HEBkHAVDUNbz6SnftH7Xz7KwOBdaxnPzj10HGmuCN+YPb8/fQMgl/y+eR+B8KDp2UQP5dv86CxaWpHiO4/gfzoLlpIB8PA7e4/wAzQXjSIsYzn7/u3x6xQXLR4xtj4H8OVBb7IjtB92fuzQdeKQfIoI08i93wFByL2VR9n4Y+fuoOFeOTyU/P+H/FQcS6i7zz7Bufhj48VBE6vHIcPid2Ps5D7vCgl2d3jkcd5zv7W5D1DNBaNJ1Lljn393iAfvPL1UFs0zUO45PMnu8fnfu/aoLHZ3nFsueE+9j/AJ55/wCI5oO1CgA+G3b4D1drfHJJIVTp301S0RUVeuuJ2MdtbocPcSDGVB+xDHkGaU4VFGOfCtaHI0DRlsIpr29kV7mXD3MwHo5GBHbwLzWCHISJObEgndhw5tHwT57vnUunHbW74vLhcAA5+iWxY+kcHaV+Fgpxu4J5RhSwfA1lb0Hfsoa1Bb+h15FDPFJPD18QJzGdgwxjO4w3CTnhOxIGcVR68/kigvUNzo8ofhwz2kjcMsZ/cLbgjbhDkgnlIdhQZp/lAcf1TV7Y3aRHhzJmK/t/+HOcMdt+CXiDbb4xQcHV7a3WZ1tXleAEdW0yqkpBUEh1X0cq3EuRscZwM0BQLQT4VrQtPk28n51bUrPTR+rmfrrw/safblWujz/2ilbdSduOZee4rFo/SziBPogKoAVFGwVFACqB2ALgYrIkKKBy0GUGGgCgCgBjQAaBTUGKaBimgYtAYNAdAYoMoNNQIegiuxUhhzBBHrFB8Cecz5NxpmryGNeGz1TrL61/ZSdnzfWw7urlYTKOQSbA+rgbg8omWtCBOtSj1jSfIjbWcMd7rdwsUTqHhs4XDTTgjIyy52IOcQkgbFpE3Agq/TLywXF3w2WmwG0tieCOCBf08vgxTOMjcrH2A8TuM4Jqq3fRS100ZveG5vAMrYRsDFCez6XKu2Ry6mPi8cgnBVO1W3vNRMtywXggjwzejFBCiglYUzsDv6KZJOck7g0Hn15BUHDvIKlF48gnl2udAvRcREvbuQLqDsdcjLqNv0iqMYyONfRODwlA/QHWUgv7NdZ0dxLbsBJNFGcvbsM5kQDcBWViy7FSDtgMqaFAmdbsZiwt1gloxhUucb8UQ5LNgEtEThtyv7KQU2a5JJzswJBU7HI5gjsIqUbt5v8AL5+fuqDo28Pd7vnlQdmyh+e0er/I+qgtOkrywRnuOxP4e/NBbtNiHIjHs2/L4j1UFw0mMjGM+zce47+2gt+mnODt7+E+0HANBarFT+/8MfDNB0Ys9x+fdQIuCd9tvnwNBClibsyvqGB7zvQcm6sP2iT6yT+X3UHKu8LyAHwH5/D20HInlydt+/YgfDc+04oIwn4T3kch3fwjkPWcmg7NhfHt28Bux/n49/Kgs2mX2RjYL3dntPafh91Bc9Jv8bfyyO9v2V8O3ljG1AvpT5RFtuCKNTcXc4xb20ZAeTmOJidobaPcvK3YGxxkGtCP0a6OLaCW/v5ke7kQddPuIoIhutrbBt1hQnHa8rHLZZsNkfIXnjed2lonCm8rcQsrbt7jcTgNkBeWMnGeAekzMtg/My/1KW5mknncyTSuXkdubMfgABhQoGFUADYDFE+zgoLR0c0Rp5UhThDuSF42CLnBOOI7b4wO8kUF80LX3tgbK/tzLbqx4oXASeBjuXt5NuFjzwSUcHO2STRY/wD/AAyWAf0hpc7zwR7mSP0bm17SLmMbgfvgGNhzAHMPRdD8qFhqiJb61EEkA4YtQgHCyd3WAZ4Ruc4V4s80XmA43lI8jU2mrHOJYrmznbht7iJl9I4LAMgJ3wG9JC6bfWUtwlBUIFrQmxkAZOwG5PcO/wBlZH2H5l/k5NvYy6rKpFxquFtw31otNhZhGfA3cmbg77x9TsuGBwPo+3FBJSgdQaoNGgBqAWoFsaBbGgWaJWgaKYDQNU0BigNTQGDQboNGgVIKCLMKDzTy7+Sv+mdMms0wt3EwutPkO3BdRAnqyTnCXMfFA/cH4tioNXR+esUpYbqUcFkkjYYaORCUkjcdjI4KkdhFa0R50q+U1DvpmbhLMzFVWNeIluFE+qgyThV7FGw7qVUrROm1xaRTR25SJp+EPOqDr1QZzHHLzRW2JxvkcxneIdZ+T5IY1u9TZ4YnHFDbLtd3fbkK36qI9srkE74x6LEscHVb261SRLeCJY4Y8mK2j9GCFBzkkbtIyS0r5OScc8MFO6ZaXbxOscEpnKLiaXAETSZ5Q/aKKNuJuZGRtQU26gqDi3dvUwej+bz5xl50cuxLDxS2shH0i1zs65GWQHAD4HIlVfAyVIV1aPt/VeiVprtqNZ6Our5BkudPQ4kR1PpPbqPSDq49KHAPFgKFYcBo8/j1mK99C6bqLpcot0RhXKnHV3qj6rA5Xrwucj0wMvIWCFqOlSwOI5k4H5qeauuMhkbkykEEEZ2IrNE+wPv7vyNQWOxgz6+75/CqLDYRHbIz99BbtIPZn2N7e3/Kgt2nRgYO6+I5ffy9poLfpT/v58CAfvx/zUFm09jnkh9Q3+Bag7EU57v+f/yUCJWbu/5/yWg51w58PgfvbP30HIvmPf8APuX76DiXcY7i3wHv/wA6DlzA8tgO5fxJ2+e2g58s4XYe5dz7T+W9AdrcknfAHcOQ/iP+fqoLJp2oYxv6jjf+wvb/ABNtVGL01lmJhsQrkHEty5JtoDyOWXe5nH2Yo/QBHpEAMtXBZtAittOjknldnllx11xJvcXDgeioA2VRySGLCquP2Qwo+UfO3881LVeqUh7ggm2swwxHnIE9yV5duAO4qmTxyLgfm5rmvT3k8lzcyGWeU5ZyAO/CqBsqJyVRsB6ySDrO3rUHatIao9C0LoQl1ADauz3UakzWr4DSKCT1ltj6/CMcUZPEME/s5CzaF0rhnRbXUw7KvoRXijNzbdnC4O80QP1lcF13xk4wHRk0G90iaO5hl9Bx+gvLc8UE6HmpzlTnHpQyDs5HGaDm6rqhnmkmZI4zK3EUiTgjBwAeFNwM4ydzkknnmgfHOxVULMUUsyoWJVWfHEVXOAW4RkgZOBmkEyBa0i5eSbyZtrOowaeMi3x9J1GQZHV2MbDrE4h9WS5bECbgjLuM9WaxVfo5EF2CKERFVI0UYVI0XhRFHIBVAAHZWROiFA9BQMoMoBJoAJoAJoFsaBbGgWxoNJQMU0DVNAYNAYNAYNAdBmKBbigiyighTjtoPjXzwvJV9FuRrMCYtb51j1BQPRgvz6Md0e5LzaNu6YKeclag+fZUrcTECaOpVc64i51B1NN0uTUbkm4ulTEfWTXNzJkrFHgHhBOXYAgLGvM+00IV0o6UoU+g6bG8dszBWYjNzevyBl4ckKTjhhXbvBzhQhXmlR6WMyhJdRYejCcPFZhhs0vY05GCIyCFG55jJVH1ToVcLbLduoWKR+FckK7cWSHCYHoEggY9fDjegpl1bVEce6tqmCx+Snyv6hoV0t3YSlDxAyREnqpgNsON8HBKhwCQDghlJQtH3r0O8omidMo+NHTS9dVR1iPhY7hh6I61QSGDEDE0Y4sEZ3xCGo5Wpafeaa30HUbbihyeCNyerbfJksrgAlDuWIGU4my8ZYei1R2/RoOC1mxuF3Jt2wt1GBzwgJWVR+3EzYHDkKSVATNHmB27tirbMPAg4I9RxTBcdNTl2+B5+/8AzqCy6fADQWnSoCMYJ9QP4H+R8KC12A23+K/lj4ig71rEO3H978COH40E+GAfLL+BFBkka/JT8STQRbiQAfWH97+WKDjXc6e3wBJ9W5/Cg4l5dHu9rnHw/kaDiXhJ5k4/ur+Z9goIjLjwHjlR/wCZvbwirg5k/SFFfqkDTzdkUS8TDluVBCoN/rSFRjcE71BJj0x5P9accLc7WB8oRyxcXA4TIOY6uHEZGxbOasFguemEVsgUBSUXCxrhIohzwxGyDtwAXbfO54hR8W+ch57vpvbafItxcjija5GDb22+GSEZIkcEHvUEemzkFDNHxfPcSTSPLM7yyyMXkkclmdjzJJ+A5AYAAAAqCfa21XB2bO15VYPRYtFuNLmUzwxyxyx8LKfTiljYDjQPgFXXbddwcHdedHY1Hon1arf2Du1sGBJBxPZS7YjmxyAJAWQEhgQDzBcLZYNb6sAsrR2up49GZsR215gfVlxtDORsHACv2/ZACq299KIjB1jdT1gkMQfMfWAFQ4AJUnBIyOfedqJqRDHRU+FKQSJpwi8WGY7BVUEu7EgKiAZLMzEKAASSR37W0fe/m6eSE6Pp4ScD+kb0rcagw34GweotFO/oW0ZCnGzSmRvtDGB65Am1QTIhQSFoCoNE0AE0Ak0ANQLagU1AtzQaQ0DRQMU0DAaA1NAYNAamg3QA4oESigiTLQcPXdEhuYZrW5jEttcxtDPGftIw7O0Mhw6sN1YAjcUH52eUfydTaRfSafOxkCjrbO4IwLuzYkRyZwB1qY4JlH1XGeTKTuUVSaOrRAnjqYIE8VEjvaJ0ogsrfjt0ZtRkLqZ5AvV2kfIGAEsHlcAemyjg3x28RUron5PY1iOp6mStuDxRRtkyXUhJIJBOWViDgE/pNycKDkrz7ygdLpb6Xjf0Y12ihH1Y1+GWPa3sGAAKFUi6gojk3VtQcm5tazggwyPFIssTtHJGwZJI2KOrDtVlwR3HvGRuCRUH115FfP8A3WJNO6R24v7PCoLjgHWRgbBnVQCpUYw8WcdiR7tRX0bpnk9sr+MXegX0d1E3pi3eVeujx2RyKTxFeRDEFSDlyaITPIxbqr+3YyrsHPFBcr34kA/SDODmQS57CoNa1NdOx0ZxvBNHMv8Au7jht5h6n9KBh3ekhJ7Btmdldm315YiFuEltif8AfoUU+pzxR/8A3B4Z5VBetCnR8MjKw71bI9X2h8aC6WLbCg7EKDuX59330EtIx+z8/wB6gi3MPrHqXI+BNTRBmtx+/wD4V/nVHMuYPYPFvyx949VBVtc1m3gz1s0cZ7iyoT6uI8Z8Mc/Gg4B1uSXe2tpXU/7aQfR4P/qzYcnuCIS2D6qCJLorN/rNwW74LXMaeAedwJmx2hFjRsnDYxjWg/paxL1USLEnPq4l3ON8vnLOc75kdgCSQwFQeYeVTzh9P0lD9JnHWkZS2gIkuJPYCCo5DjJVRyZwBQfDvlg85vUNX4olJs7I5H0eJvSkXOxnkABORzjQhMEhutwpoPLrW05VB1La1oOta21ag61tDVHr/k46YQyx/wBH6j6Vs+BFMThrdvsgtzCA/Vb7OSpyhPCEu90W80O7BXDxSKQrMvFBdQnOY5F5Zx9Zc5UniUkEFg5nSc2jyh7NJI4nQM8MuCIZSTxRxtkl4gMFS2DuRjYUEaCOiOhAlFToU+fnuoPoXzRPJB9JmXW7pM2ts7LpkbDa4ukJV73HbFakNHET9abjbH6NSc2j7FgXJyeZOTUE9BQS4xQNWg3QCTQATQATQATQLY0CyaBTGiNLRTVNAxDQMBoDFAYNAYoDzQaagU4oIkq0EC5joPNvLb5II9asjbFliu4SZdPuTn9DPgAxvzLQTr+jkTfAIYbouGj4Cu7OWOSWC4iaC5t5DDcQP9aKReY/eRhhkcei6EMCQa3KlQZo60RAmjrKvR/J95NIEt/6V1MhbJCeoh2L3cik4HDkZTIOEz6eCW4UUliPP/KV09m1GYySehGuRDAPqRJy8MucDiYjJ2HJVANVRLiCiOXcQUHNubag5dxa0HLuLWs0c2e0qLEvor0uvNOl6+xuZbWUEEtE2zEcuONg0b45DjRsDljei19Z+Tj/AEjsvCtvr1kt5EAF+kQgdYNsFjG3pA9uUeRtyAowK0zj6K6DeUro/quDp2pRxyYBNtO4V0z2EOQ6DcjikC8j3VMHo9pZ3EQxtJGf2CJI2/s7q2xzuDzz400FF0dtJG4ntVR8frIGe3fHd+heNPehJ76sHZtujBH6jUL2DwcQ3anwHXRggep80HVjsL8fV1G2fu62zAPt6uYfAU7CSiaqOVzpTfxR3Skf3ZCDUCpINTPO705fCOG5cj2NMM58eXKpsEafRLw/W1Pg/wCBYRE//eaQfCqIMnQuNv1s99cHt4rjqkP/AIcAhCjwzvTRGitLO2P6KK2hPPZRJLnv45OOYnO+z7e6mjk610tQZZ2PLJeVurX2lvTPtU+6g8C8o/niaPZBkF0LuUcQ6ixxJhh2PKGKpg/WDvHuDsaYPlnykeeZql6GitAunQEn9XiS4YfvSMuEJ3zwKWGdpO+jw1kZ2LuzO7HLu7F3c97MxLMfEkmpROgtag6Vva0HUtratDp29vVHTtoKDqW8NB7X5L+nsE0P9F6p6Vq+FgnY4a2YD0cvzVF+y+/BnhbMZIUOH5QvJpNplx1MhDo68cEq8pY844sb8LA7MuTg8iwIYhw4Y6CdDHViVffI15IZNcvDb5aOwt+FtSuV24UO62kT/wDvM4PYcxR5c7lAy+FfoLYWUcaRxRRrFDCixQxIMJHGgARVHcABXMdWCOgmxLQPQUDQKDRoAJoBagAmgWxoFtQLc0CXNBpTQNVqBoNAxTQMU0BqaAgaAwaAqBUgoEyLQQ5koOdcRUHhfnI+QU6rGL2zVV1a2j4Qp9FdQt1yTbSHkJowWaGU75HASFbKUfFUc3GCeFlYEq8bqUkjdThkkjYBo5FbZkYBlOxAreiPLHUEe5uXKLGXcxozMsZYlFZscTKpPCpbG5AydqDk3ENBzpoaDnT29Bzri3oOdcW1Bzbi1oOdPaVmjny2lQQprKghtZ4IYZBByGGxB7wRyPqNGl+6G+cNrunY+i6nchV5JMwuFI/ZJlDScPIcKuoxsMVdZr2ro5/pHNVj2u7G0u9t3Vmt357kehKTtyBfHiOdPKY9P0b/AEltgf19hfQHb9W6SqD283ckepRsB6Ipguunf6RTQyBm7uoyTyeyc8PLmUg4eZ55FF13ofP90LGRqkYPc9qwx/yn4Cqmol//AKQPRFBxqQfAz+jtHbbuGEfPqAyKGqtrn+kY0hcdXNezbbiO06r3GSKP7xQed9JP9I/GwIt9NuJjnb6VcCNMdv1Gn3/8MeyoPKOkvny63OCLdbWxByMxR9bIN8gh34UyPGI00x4/0m6eahfHN5e3NxnmryER/wD0k4Yh3ZCA1dVxoLHHZWROitKCfBaUHQgtKDo29rWx0oLeg6EFvQdKCCg6EMNB0YYKDrSXLycPG7uVVUUuxbhRdlQZzhVGwUbDsAoJEMdagsfQPoLdapdpYWQxKw457hlLQ2VvnDTzYwM78MURIMrkAEDiZZR+gXk/6B2umWkVjZqVgiyxdzmWeZt5LiZvtSSNk9yjCqFVVA5i3W8dBOjWglqKByigImgCgEmgAmgWTQAxoFk0CmNApjQaU0DVNA1TQGpoGg0BqaA6AloDU0GmFAlxQRpEoIU0dBz7iPu2I5YoPnjzjfN2N8X1LTUA1FQDdWowqaiij6yclS8RdlflMqhG3CsKPj+OYOMgEEEhlZSroynDI6NhkdSMMrAEHatQR5oqCFNDQQZ4KDnzQ0ECe2oOdLb0EGa2oIE1rUEGa0pghS2dMESS0pi6iyWdZNR3sqGktY0C/oNFa+g/OKujPoPz8imglsqimrY0SnpZUTUiO0oiVFZ0EyGzqwTobWrgnQWtMHQht6onQW1B0ILegnwwUHQghoJ0UdBNhioO90N6H3Wo3SWVjH1k7jid2z1NrFyM9y4BCIPsr9aRsKuSaaPvXyU+S210i0Fpa5dmIe6umGJbybG8j7nhQco4gSqLjG5YnOi+W8VQdCFKCZGtA+NaBwoBJoBJoAY0AE0AMaBbGgWxoEsaBbmgFDQOU0DFNAwGgYpoGKaAwaAwaAgaAs0AOtBHkWgjSpQQJoqDnXEJ5jn2Gg8D84Dzb11Fmv8AThHDqeMzQkhINSUAjDnYRXY24bgghwAj59Fko+O5EYM8ciPFNExSaCVSksLjmkiHcHuPIjcEg5rUEeaKghSw0EGe3oIM0FBCmtqCDNbUEKW2oIktrQQ5bSgiSWlBGksqmBD2VTAprOmADZ0xdAbTw+fdUNbFnQ0Qs6ppi2VMNOSyqIkJZ1cEqK0pglxWlUS4rWqJsVtQTYbagmw29BOhgoJ0MFBNihoJsUVBZvJ75O7zVrk2tioyu9zdyKTbWaH7Up2Dykfq7dWDvzPCoZwH3X5MfJjaaTbfRbNWPEQ9xcybz3cuMGSVu7sSMYRBsBuc5ovVtDUE+GOgnRrQSEWgeooMJoBJoBJoAJoAJomlsaKW1ApjQLY0C2NAINA1WoGK1AxTQMBoGKaBgoDBoCFAWaDeKBTrQR3SgizRUECaKg51xBQeUeWryC22sqJOIWmoxrww3ypxCRRnhhvIwV6+LfY5Dx81bGVaj4s6WdFrqwuDaX0Jt7gDK78UM6f7y2lwFlQ+GHTkyqdq0OLLDQRJYqCFNBRNQ5YKKhy21BEltqCJLbUEV7WgjPa0CHtKBL2dAk2dAJsvCoBNnUwYLOmA1s6sBrZ1Q1bOoHpa1RIjtqCTHa0EqK1oJkVtQS4regmRW9BNigoJccVBLRAASTjHMnYD21B6T5G/ITd6yRLlrPTAfTvSv6S4xzjsUbHHnkbkgxJzAkKkU0fbPQ/oha2FtHZ2UK29vHyQbtI+2ZZpD6Usr4y0jksdt9hjIs1vBQT4Y6CbGlBJjSgkotAZNAJNABNAJNABNAtmogCaKUzUCyaBTNQLY0GlNGYYtGjFNAxTQNBoGA0BqaBgNAQNAYNBug2RQIkWgjOtBFmhoIMsNBzri3oKv046DWmo25tb6BbiHPEudpYXwQJbeUenDKAThkIONuRIIfHXlZ83S+0rinh49Q04bmeNc3VsvddwrkuoGf6xCpXG7LHzq6PKEZXAZCGB3BBBB9RFaCZYqJiJJBRUWS3oIj21BGktqCPJa0EZ7WgS9rQJa1oANt4UAG18KDX0XwoM+i+FBsWtAYtqBq21A5LWgelpQSUtaCRHbUEqKCglRQUEuKGglRw0Em2iZpI4Yo5J55TwxQQoZJZD+6i5OBzLnCqMkkYqUfTHkl80cDgudcCyPsyaUjB4E7R9OlUlblhneBP0IxuZc7TR9PRR54RgKqgKqqAqIoGAqqMBVHYAB2VBPt4KCfDFQTYo8UEmNKCSiUDKDRNAJNABagAmgBmoAJoFsaBTGgWxoFmgW5oAQ0DQaBiNQNVqA1NA0GgNWoGKaAgaAwaAgaAhQaYUCHjoI7pQRZoqCDNDQQJ7eghYKnIOD87HvHhQeH+VTzW7G+Z7i0I0y9YlmaNM2dw53JuLZeEI7HnNCUfJJIk2FB8q9POgd9pcnV6jbNAGOIrlCJbSfkQY51yFJz+rmEUmx9HAzV0V94fdWhHkhoI0lvQR3tqJqM9vRSTb0Cnt/CgUbWgWbSgE2tBr6JQ1gtKAha0BraUBrbUDkt6BqW1A9LegkR21BJjgoJKRUZwc8qIOJ2Cjlv2nsAHMk8sDejT1byaebjqepcMsinTLI4PX3Cf1mZef9XtCQ4yNhJcBFGeILJgipo+sfJp5JrDSUK2MHDI4AmvJcSXk+P8AeTYBVc5IijCRqScKMmoLvBb1B0YIKCdFDQTYo6CSiUElEoGg0GqAaAWNABNADNQLZqAC1AstQKY0C2NADGgU7UYArUbNRqBlAxWoGg0BqaBgNAatQMBoDBoCBoCBoDoAZaBLrQRpY6CLLFQRJYaCDNb0EGa3oIF7ZB0aJ0SSJwRJFIqyROp5h0YFWB7iDQeAdPPNBs5uKTTJm02Y7/R3Bm09j3CPIlts8sxPwKDkRnGCHzz078l2paZk31m6wjld2/8AWLRh2MXjBeEdhE8cWD37Z0KnGyuAykMp5FSCPeKJQPBVQhrei9yXtqKU1rQLa2oFm2oB+jUGfR6JjPo9FbFvQEttQMW2oGLbUDktqB629EOSGhGNOoYJuZHOEjRWeVydgEjQM7EnbYc6K9b6DebJq17wvMiaXbnB6y7HHdOuxzFaIwKEjl9IaPB34TggzR9IeTXzf9M0wrLFC11dr/2294JZlJGD1CcIitx2Dq1VuHALNg1keniMscsSSe070EyG3oJ8NvQTIoaCXFHQSY46CQiUDQKDeaASaASaACaAC1AtmoBJoFMaBbNQLZqACaBTNQJdqJQK1FOVqBytQGDQMU0DFagYpoDBoDVqBgNAYNAQNAQNBug0woEulBHkjoI0kVBFkhoIcttQQ5beghzWtBG4GXPCSM7Edh8CORHrBoPLum/m56PfFnktPos7ZJutPYWspb9p1CtBKfGSJvuwHi/SjzPL2PJsL23u07IrtTa3HqE0YeCQnxjix452ujyTpP5PtSsQTe6bd26jnIIxcQYH2uvtjNGF8WK89wDtWhWbW+ik+o6N4BgT7ufwoHNBRmgMFABgouhNvQ1r6N4UTWfRvCi62LehoxBRNEtvQMENFwiK/jLCNCZZCcLHCrSyMe4JGHYnwANFei9GfIHrd3gx6e1vGRnr7+RLVN+6Il7ltt/1IHZnO1Z0et9FfM0iHC2o6hJNuCYNPT6NEf3XuJesmdewmMQsRyK00e5dCPJ1Y6cpWws4LUkYaRE4riTnvJcPxSudzzbG9QWmO3ycnc95oJcVtQTYbegmw29BKjioJUcdBJjjoHolA0UGZoNE0AE0Ak0AMaACaACaBbNQLZqBbNQLJoFu1AlmoFO1ACtQORqByNQNVqAlNAwNQMVqBitQGDQMVqAwaAgaAwaAgaDdAJFAp0oEvHQRpI6CNJFQR5YKCJLbUESW3oI0ltQRJbOgWisv1WK+o4/l99BVulHk30+93vNPs7k/tywJ1gzzKyqFkVvEHNB5zrPmk6LLnqkvrInttLssB4BLpZ48f2aCo6h5mK/9n1iZe76VZxS49ZgaDJ8cCrort35n2pr+r1DS5R/8RLu3Y+wLcD/FTRy5vNU1schpsnit4653/ftx2b1dEdvNf10f9ns28Vv0x8YwfhTRtPNc10/7GxX+K/XP+GI00TLfzTdab60mlxfx3M7/AAjtjTR2bHzOb0/rtVsY+8QWlxN7mkliH+A1NFl0/wAzG02M+p6jJ3rbx2tsp8MvFO/CfAqfGmi66N5sWhQ4J0/6Sw+1ezzXIJ/4bOIjntBTHhUHpeh6PHbJwW0MNqmMcFvFHCuO7CKNh66CeLUnc5Pr3oJMVpQSY7aglx21BLitqCVHBQSY46CQkdBISOgeFoGAUGFqASaDRNABNADGgAtQATQLZqBbNQAWoFk0C2agUzUCXagS7UTQI1FOVqBqNQOVqBqmgNTQMDUBqaBitQGDQMVqAlagPNAQNAQNAQNAJFADLQJeOgQ8VAh4aCPJDQR5LegjyW1BGktqBD21Ah7agU1pQKayoFmyoA+g+Hz7qATp/h8+6g2LD5+RQELHwoDFjQMWzoHLa0DUtqB6W1BIjtqCTHa0ElIaB6RUEiOGgekVA5Y6BoWgPFBhNBomgEmgBjQCTQAxoAJoFs1AtmoAZqBZNADNQKdqBLNQJdqBLvRktGo0er0DlagarUDlagYpoDVqBgNAatQGGoGA0Bg0Bg0BA0BA0BBqAqDRFALJQLZKBTxUCXhoEvBQIaGgS8FAl7agU1tQKa1oFG0oANrQa+i0Gvo3z8igz6N8/IoN/RaAhaUBi0oGpa0DltqBy29A1IaByQ0D1hoGpFQPWKgYFoGBaAgaDKASaASaASaACaACaAC1ADGgWWoALUCyaAGagUzUCnegSzUCXegS70ZLVqNHI9A9WoGq1A5WoGK1A1WoCDUDFagMGgYrUBhqAw1AQagMGgIGgJTQFmg3QCaAStAtkoFtHQLaKgU0NApoKBZgoFm3oAMFAJtqATbUGuooN/R6DBb0BiCgIW9AxYKA1goGrBQNWGgYsdA1Y6BgWgMLQbFBvNBhNAJNAOaAWNABagAmgEtQLY0AE0C2agDNADNQKZqBTNQKdqBLNQJZqBLNRmlo9DTlajRyNRKcrUNOVqKYr0DVagaGoCBoGK1AatQGGoDV6A80BBqAw1AQNBsNQHmgzNBvFBoigEpQCUoFlKADHQCYqADDQCYaATBQD1FBn0egz6PQbFvQbENAYhoCENAQioDEdAYjoGBaDfDQEKDdBhagEmg0WoAJoBLUAFqASaAC9ABagAmgBmoFk0As1AtmoEs1ApmoFM9EIZ6GlM9FJd6MlI9DD0ejRytRKaj0MOVqKar0DVagarUDFagIGgNWoGA0Bg0BK1AYagMNQEGoCDUBZoNhqDYNAYNBqgzFAJWg1w0AlaDXV0A9TQYY6AeroM6ugzq6DfBQb6ug2IqDYjoC4aAgKDYFBvFBmaDCaAeKg1xUA8VAJagEtQCWoBLUC2agEmgBjQAXoAoAZ6BbPQKZqBTNQJZqBLNRC2ahhEj0UiR6MEo9G0hHoHq9A1GoHK9A1GoGq9A1WoGq1AxWoDBoCDUDFagINQGDQEGoDBoCDUBBqAuKg2GoCBoMBoCzQbzQYDQZig1w0GcFBrhoNcNBnDQZw0GcNBvhoN8NBmKDdBlBhNBrNBrioBLUGs0AlqDRegAmgEtQCWoALUAFqAS1Asmg0TQLZ6BTNQLZqBTPQKZ6BLPQKZqBTvQIkegjSPRgmOSgkJJQSEejUPV6KYrUDVejBytRs5WoGK9AxXoGq9AYagIGgINQMDUBBqAg1AQagMNQb46DYagLioCDUG+Kg2DQbzQb4qDOKgzNBvNBmaDKDM0GZoNZoMzQYTQZxUGiaDXFQaLUA8VBotQCWoNZoBLUAlqAeKgEtQAWoALUAE0AlqBbPQLZ6BbPQKZ6BTPQJZ6BbPQJd6BDvQR3kowjyPQLQ0WJCGiw9WoVIQ0Q5DRaapopqmgctAamgapoGIaBgNA1TRK3RRKaAwaAg1AQahRUBq1AQNBsUBCgzNAQNBuiRotRWw1AVErKJrKLGUVlBlE1lCVomis4qDWaJWUQPFRprNBomg1mg0aIAmjQaIEmgA0IEmgAmg1QAxoAY0CmNAtjQLY0CWNAtjRkk0WlOaEJkahUdzRKQ5oiOxo1X//Z;" parent="1" vertex="1">
          <mxGeometry x="690" y="40" width="72" height="71.44" as="geometry" />
        </mxCell>
        <mxCell id="LD7MNeFPw9spvS_a8iKk-8" value="" style="strokeWidth=2;html=1;shape=mxgraph.flowchart.database;whiteSpace=wrap;strokeColor=#36393d;fillColor=#FF0000;" parent="1" vertex="1">
          <mxGeometry x="40" y="470" width="60" height="90" as="geometry" />
        </mxCell>
        <mxCell id="LD7MNeFPw9spvS_a8iKk-9" value="" style="strokeWidth=2;html=1;shape=mxgraph.flowchart.database;whiteSpace=wrap;strokeColor=#36393d;fillColor=#FFB366;" parent="1" vertex="1">
          <mxGeometry x="120" y="470" width="60" height="90" as="geometry" />
        </mxCell>
        <mxCell id="LD7MNeFPw9spvS_a8iKk-10" value="" style="strokeWidth=2;html=1;shape=mxgraph.flowchart.database;whiteSpace=wrap;strokeColor=#36393d;fillColor=#FFFF66;" parent="1" vertex="1">
          <mxGeometry x="200" y="470" width="60" height="90" as="geometry" />
        </mxCell>
        <mxCell id="LD7MNeFPw9spvS_a8iKk-11" value="" style="strokeWidth=2;html=1;shape=mxgraph.flowchart.database;whiteSpace=wrap;strokeColor=#36393d;fillColor=#99FF33;" parent="1" vertex="1">
          <mxGeometry x="280" y="470" width="60" height="90" as="geometry" />
        </mxCell>
        <mxCell id="LD7MNeFPw9spvS_a8iKk-12" value="" style="strokeWidth=2;html=1;shape=mxgraph.flowchart.database;whiteSpace=wrap;strokeColor=#36393d;fillColor=#3333FF;" parent="1" vertex="1">
          <mxGeometry x="360" y="470" width="60" height="90" as="geometry" />
        </mxCell>
        <mxCell id="LD7MNeFPw9spvS_a8iKk-13" value="" style="strokeWidth=2;html=1;shape=mxgraph.flowchart.database;whiteSpace=wrap;strokeColor=#36393d;fillColor=#33FFFF;" parent="1" vertex="1">
          <mxGeometry x="440" y="470" width="60" height="90" as="geometry" />
        </mxCell>
        <mxCell id="LD7MNeFPw9spvS_a8iKk-14" value="" style="strokeWidth=2;html=1;shape=mxgraph.flowchart.database;whiteSpace=wrap;strokeColor=#36393d;fillColor=#FF33FF;" parent="1" vertex="1">
          <mxGeometry x="516" y="470" width="60" height="90" as="geometry" />
        </mxCell>
        <mxCell id="LD7MNeFPw9spvS_a8iKk-15" value="buffer" style="strokeWidth=2;html=1;shape=mxgraph.flowchart.database;whiteSpace=wrap;" parent="1" vertex="1">
          <mxGeometry x="120" y="285.72" width="390" height="90" as="geometry" />
        </mxCell>
        <mxCell id="LD7MNeFPw9spvS_a8iKk-16" value="" style="shape=filledEdge;rounded=0;fixDash=1;endArrow=none;strokeWidth=10;edgeStyle=orthogonalEdgeStyle;entryX=0;entryY=0.5;entryDx=0;entryDy=0;entryPerimeter=0;exitX=0.5;exitY=0;exitDx=0;exitDy=0;exitPerimeter=0;fillColor=#FFF104;" parent="1" source="LD7MNeFPw9spvS_a8iKk-15" target="LD7MNeFPw9spvS_a8iKk-3" edge="1">
          <mxGeometry width="60" height="40" relative="1" as="geometry">
            <mxPoint x="490" y="205.72" as="sourcePoint" />
            <mxPoint x="550" y="165.72" as="targetPoint" />
            <Array as="points">
              <mxPoint x="315" y="255.72000000000003" />
              <mxPoint x="376" y="255.72000000000003" />
              <mxPoint x="376" y="75.72" />
            </Array>
          </mxGeometry>
        </mxCell>
        <mxCell id="LD7MNeFPw9spvS_a8iKk-17" value="" style="shape=filledEdge;rounded=0;fixDash=1;endArrow=none;strokeWidth=10;edgeStyle=orthogonalEdgeStyle;entryX=0;entryY=0.5;entryDx=0;entryDy=0;entryPerimeter=0;exitX=0.756;exitY=0;exitDx=0;exitDy=0;exitPerimeter=0;fillColor=#EA0081;" parent="1" source="LD7MNeFPw9spvS_a8iKk-15" target="LD7MNeFPw9spvS_a8iKk-2" edge="1">
          <mxGeometry width="60" height="40" relative="1" as="geometry">
            <mxPoint x="510" y="215.72" as="sourcePoint" />
            <mxPoint x="570" y="175.72" as="targetPoint" />
          </mxGeometry>
        </mxCell>
        <mxCell id="LD7MNeFPw9spvS_a8iKk-18" value="" style="shape=filledEdge;rounded=0;fixDash=1;endArrow=none;strokeWidth=10;edgeStyle=orthogonalEdgeStyle;entryX=0;entryY=0.5;entryDx=0;entryDy=0;entryPerimeter=0;exitX=0.859;exitY=0.067;exitDx=0;exitDy=0;exitPerimeter=0;fillColor=#00A4ED;" parent="1" source="LD7MNeFPw9spvS_a8iKk-15" target="LD7MNeFPw9spvS_a8iKk-4" edge="1">
          <mxGeometry width="60" height="40" relative="1" as="geometry">
            <mxPoint x="510" y="275.72" as="sourcePoint" />
            <mxPoint x="570" y="235.72" as="targetPoint" />
            <Array as="points">
              <mxPoint x="455" y="265.72" />
              <mxPoint x="555" y="265.72" />
              <mxPoint x="555" y="235.72" />
            </Array>
          </mxGeometry>
        </mxCell>
        <mxCell id="LD7MNeFPw9spvS_a8iKk-19" value="" style="shape=filledEdge;rounded=0;fixDash=1;endArrow=none;strokeWidth=10;fillColor=#f9f7ed;edgeStyle=orthogonalEdgeStyle;entryX=0.5;entryY=1;entryDx=0;entryDy=0;entryPerimeter=0;exitX=0.277;exitY=0;exitDx=0;exitDy=0;exitPerimeter=0;strokeColor=#36393d;" parent="1" source="LD7MNeFPw9spvS_a8iKk-15" target="LD7MNeFPw9spvS_a8iKk-1" edge="1">
          <mxGeometry width="60" height="40" relative="1" as="geometry">
            <mxPoint x="180" y="225.72" as="sourcePoint" />
            <mxPoint x="240" y="185.72" as="targetPoint" />
          </mxGeometry>
        </mxCell>
        <mxCell id="LD7MNeFPw9spvS_a8iKk-20" value="" style="shape=filledEdge;rounded=0;fixDash=1;endArrow=none;strokeWidth=10;edgeStyle=orthogonalEdgeStyle;entryX=0.054;entryY=0.914;entryDx=0;entryDy=0;entryPerimeter=0;exitX=0.5;exitY=0;exitDx=0;exitDy=0;exitPerimeter=0;fillColor=#FF0000;" parent="1" source="LD7MNeFPw9spvS_a8iKk-8" target="LD7MNeFPw9spvS_a8iKk-15" edge="1">
          <mxGeometry width="60" height="40" relative="1" as="geometry">
            <mxPoint x="120" y="430" as="sourcePoint" />
            <mxPoint x="180" y="390" as="targetPoint" />
            <Array as="points">
              <mxPoint x="70" y="423" />
              <mxPoint x="120" y="423" />
              <mxPoint x="120" y="380" />
              <mxPoint x="141" y="380" />
            </Array>
          </mxGeometry>
        </mxCell>
        <mxCell id="LD7MNeFPw9spvS_a8iKk-21" value="" style="shape=filledEdge;rounded=0;fixDash=1;endArrow=none;strokeWidth=10;edgeStyle=orthogonalEdgeStyle;entryX=0.144;entryY=0.97;entryDx=0;entryDy=0;entryPerimeter=0;exitX=0.5;exitY=0;exitDx=0;exitDy=0;exitPerimeter=0;fillColor=#FFB366;" parent="1" source="LD7MNeFPw9spvS_a8iKk-9" target="LD7MNeFPw9spvS_a8iKk-15" edge="1">
          <mxGeometry width="60" height="40" relative="1" as="geometry">
            <mxPoint x="200" y="440" as="sourcePoint" />
            <mxPoint x="190" y="380" as="targetPoint" />
          </mxGeometry>
        </mxCell>
        <mxCell id="LD7MNeFPw9spvS_a8iKk-22" value="" style="shape=filledEdge;rounded=0;fixDash=1;endArrow=none;strokeWidth=10;edgeStyle=orthogonalEdgeStyle;entryX=0.262;entryY=0.992;entryDx=0;entryDy=0;entryPerimeter=0;exitX=0.5;exitY=0;exitDx=0;exitDy=0;exitPerimeter=0;fillColor=#FFFF66;" parent="1" source="LD7MNeFPw9spvS_a8iKk-10" target="LD7MNeFPw9spvS_a8iKk-15" edge="1">
          <mxGeometry width="60" height="40" relative="1" as="geometry">
            <mxPoint x="220" y="430" as="sourcePoint" />
            <mxPoint x="280" y="390" as="targetPoint" />
          </mxGeometry>
        </mxCell>
        <mxCell id="LD7MNeFPw9spvS_a8iKk-23" value="" style="shape=filledEdge;rounded=0;fixDash=1;endArrow=none;strokeWidth=10;edgeStyle=orthogonalEdgeStyle;entryX=0.4;entryY=0.992;entryDx=0;entryDy=0;entryPerimeter=0;exitX=0.5;exitY=0;exitDx=0;exitDy=0;exitPerimeter=0;fillColor=#99FF33;" parent="1" source="LD7MNeFPw9spvS_a8iKk-11" target="LD7MNeFPw9spvS_a8iKk-15" edge="1">
          <mxGeometry width="60" height="40" relative="1" as="geometry">
            <mxPoint x="280" y="440" as="sourcePoint" />
            <mxPoint x="340" y="400" as="targetPoint" />
          </mxGeometry>
        </mxCell>
        <mxCell id="LD7MNeFPw9spvS_a8iKk-24" value="" style="shape=filledEdge;rounded=0;fixDash=1;endArrow=none;strokeWidth=10;edgeStyle=orthogonalEdgeStyle;exitX=0.5;exitY=0;exitDx=0;exitDy=0;exitPerimeter=0;entryX=0.567;entryY=0.999;entryDx=0;entryDy=0;entryPerimeter=0;fillColor=#3333FF;" parent="1" source="LD7MNeFPw9spvS_a8iKk-12" target="LD7MNeFPw9spvS_a8iKk-15" edge="1">
          <mxGeometry width="60" height="40" relative="1" as="geometry">
            <mxPoint x="370" y="450" as="sourcePoint" />
            <mxPoint x="341" y="380" as="targetPoint" />
          </mxGeometry>
        </mxCell>
        <mxCell id="LD7MNeFPw9spvS_a8iKk-25" value="" style="shape=filledEdge;rounded=0;fixDash=1;endArrow=none;strokeWidth=10;fillColor=#ffffff;edgeStyle=orthogonalEdgeStyle;exitX=0.5;exitY=0;exitDx=0;exitDy=0;exitPerimeter=0;" parent="1" source="LD7MNeFPw9spvS_a8iKk-13" edge="1">
          <mxGeometry width="60" height="40" relative="1" as="geometry">
            <mxPoint x="480" y="440" as="sourcePoint" />
            <mxPoint x="407" y="372" as="targetPoint" />
          </mxGeometry>
        </mxCell>
        <mxCell id="LD7MNeFPw9spvS_a8iKk-26" value="" style="shape=filledEdge;rounded=0;fixDash=1;endArrow=none;strokeWidth=10;edgeStyle=orthogonalEdgeStyle;entryX=0.908;entryY=0.936;entryDx=0;entryDy=0;entryPerimeter=0;exitX=0.5;exitY=0;exitDx=0;exitDy=0;exitPerimeter=0;fillColor=#FF33FF;" parent="1" source="LD7MNeFPw9spvS_a8iKk-14" target="LD7MNeFPw9spvS_a8iKk-15" edge="1">
          <mxGeometry width="60" height="40" relative="1" as="geometry">
            <mxPoint x="500" y="440" as="sourcePoint" />
            <mxPoint x="560" y="400" as="targetPoint" />
            <Array as="points">
              <mxPoint x="546" y="423" />
              <mxPoint x="500" y="423" />
              <mxPoint x="500" y="390" />
              <mxPoint x="474" y="390" />
            </Array>
          </mxGeometry>
        </mxCell>
        <mxCell id="LD7MNeFPw9spvS_a8iKk-27" value="" style="shape=filledEdge;rounded=0;fixDash=1;endArrow=none;strokeWidth=10;fillColor=#ffffff;edgeStyle=orthogonalEdgeStyle;exitX=0.5;exitY=0;exitDx=0;exitDy=0;exitPerimeter=0;" parent="1" source="LD7MNeFPw9spvS_a8iKk-13" edge="1">
          <mxGeometry width="60" height="40" relative="1" as="geometry">
            <mxPoint x="470" y="470" as="sourcePoint" />
            <mxPoint x="407" y="372" as="targetPoint" />
          </mxGeometry>
        </mxCell>
        <mxCell id="LD7MNeFPw9spvS_a8iKk-28" value="" style="shape=filledEdge;rounded=0;fixDash=1;endArrow=none;strokeWidth=10;fillColor=#ffffff;edgeStyle=orthogonalEdgeStyle;exitX=0.5;exitY=0;exitDx=0;exitDy=0;exitPerimeter=0;" parent="1" source="LD7MNeFPw9spvS_a8iKk-13" edge="1">
          <mxGeometry width="60" height="40" relative="1" as="geometry">
            <mxPoint x="470" y="470" as="sourcePoint" />
            <mxPoint x="407" y="372" as="targetPoint" />
          </mxGeometry>
        </mxCell>
        <mxCell id="LD7MNeFPw9spvS_a8iKk-29" value="" style="shape=filledEdge;rounded=0;fixDash=1;endArrow=none;strokeWidth=10;edgeStyle=orthogonalEdgeStyle;exitX=0.5;exitY=0;exitDx=0;exitDy=0;exitPerimeter=0;fillColor=#33FFFF;" parent="1" source="LD7MNeFPw9spvS_a8iKk-13" edge="1">
          <mxGeometry width="60" height="40" relative="1" as="geometry">
            <mxPoint x="470" y="470" as="sourcePoint" />
            <mxPoint x="407" y="374" as="targetPoint" />
          </mxGeometry>
        </mxCell>
      </root>
    </mxGraphModel>
  </diagram>
</mxfile>
